<?xml version="1.0" encoding="UTF-8" standalone="no"?>
<!-- Created with Inkscape (http://www.inkscape.org/) -->

<svg
   xmlns:dc="http://purl.org/dc/elements/1.1/"
   xmlns:cc="http://creativecommons.org/ns#"
   xmlns:rdf="http://www.w3.org/1999/02/22-rdf-syntax-ns#"
   xmlns:svg="http://www.w3.org/2000/svg"
   xmlns="http://www.w3.org/2000/svg"
   xmlns:xlink="http://www.w3.org/1999/xlink"
   xmlns:sodipodi="http://sodipodi.sourceforge.net/DTD/sodipodi-0.dtd"
   xmlns:inkscape="http://www.inkscape.org/namespaces/inkscape"
   width="27.263981"
   height="40.324001"
   id="svg2"
   version="1.1"
   inkscape:version="0.48.2 r9819"
   sodipodi:docname="wind2.svg"
   inkscape:export-filename="D:\MOOC\FreeCodeCamp\wind2.png"
   inkscape:export-xdpi="300"
   inkscape:export-ydpi="300">
  <defs
     id="defs4">
    <inkscape:path-effect
       effect="spiro"
       id="path-effect3067"
       is_visible="true" />
    <inkscape:path-effect
       effect="spiro"
       id="path-effect4016"
       is_visible="true" />
    <inkscape:path-effect
       is_visible="true"
       id="path-effect4012"
       effect="spiro" />
    <inkscape:path-effect
       effect="spiro"
       id="path-effect4008"
       is_visible="true" />
    <inkscape:path-effect
       is_visible="true"
       id="path-effect4004"
       effect="spiro" />
    <inkscape:path-effect
       effect="spiro"
       id="path-effect4002"
       is_visible="true" />
    <inkscape:path-effect
       is_visible="true"
       id="path-effect3992"
       effect="spiro" />
    <inkscape:path-effect
       effect="spiro"
       id="path-effect3990"
       is_visible="true" />
    <inkscape:path-effect
       is_visible="true"
       id="path-effect3984"
       effect="spiro" />
    <inkscape:path-effect
       effect="spiro"
       id="path-effect3982"
       is_visible="true" />
    <inkscape:path-effect
       is_visible="true"
       id="path-effect3978"
       effect="spiro" />
    <inkscape:path-effect
       effect="spiro"
       id="path-effect3966"
       is_visible="true" />
    <inkscape:path-effect
       is_visible="true"
       id="path-effect3962"
       effect="spiro" />
    <inkscape:path-effect
       effect="spiro"
       id="path-effect3958"
       is_visible="true" />
    <inkscape:path-effect
       is_visible="true"
       id="path-effect3954"
       effect="spiro" />
    <inkscape:path-effect
       effect="spiro"
       id="path-effect3950"
       is_visible="true" />
    <inkscape:path-effect
       effect="spiro"
       id="path-effect3936"
       is_visible="true" />
    <inkscape:path-effect
       is_visible="true"
       id="path-effect3934"
       effect="spiro" />
    <inkscape:path-effect
       effect="spiro"
       id="path-effect3932"
       is_visible="true" />
    <inkscape:path-effect
       is_visible="true"
       id="path-effect3930"
       effect="spiro" />
    <inkscape:path-effect
       is_visible="true"
       id="path-effect3912"
       effect="spiro" />
    <inkscape:path-effect
       effect="spiro"
       id="path-effect3908"
       is_visible="true" />
    <inkscape:path-effect
       is_visible="true"
       id="path-effect3904"
       effect="spiro" />
    <inkscape:path-effect
       effect="spiro"
       id="path-effect3900"
       is_visible="true" />
  </defs>
  <sodipodi:namedview
     id="base"
     pagecolor="#ffffff"
     bordercolor="#666666"
     borderopacity="1.0"
     inkscape:pageopacity="0.0"
     inkscape:pageshadow="2"
     inkscape:zoom="6.485617"
     inkscape:cx="20.618892"
     inkscape:cy="22.006171"
     inkscape:document-units="px"
     inkscape:current-layer="g3935"
     showgrid="false"
     inkscape:window-width="1280"
     inkscape:window-height="753"
     inkscape:window-x="-4"
     inkscape:window-y="-4"
     inkscape:window-maximized="1"
     fit-margin-top="0"
     fit-margin-left="0"
     fit-margin-right="0"
     fit-margin-bottom="0"
     inkscape:snap-center="true" />
  <metadata
     id="metadata7">
    <rdf:RDF>
      <cc:Work
         rdf:about="">
        <dc:format>image/svg+xml</dc:format>
        <dc:type
           rdf:resource="http://purl.org/dc/dcmitype/StillImage" />
        <dc:title></dc:title>
      </cc:Work>
    </rdf:RDF>
  </metadata>
  <g
     inkscape:label="Livello 1"
     inkscape:groupmode="layer"
     id="layer1"
     transform="translate(-275.37414,-535.05733)">
    <g
       id="g3865">
      <g
         id="g3935"
         transform="translate(0,-6.5416146)">
        <path
           transform="matrix(0.87101516,0,0,0.87101516,303.84166,527.14587)"
           d="m -3.7069139,39.179218 c 0,7.315989 -5.930781,13.24677 -13.2467701,13.24677 -7.315989,0 -13.24677,-5.930781 -13.24677,-13.24677 0,-7.315989 5.930781,-13.24677 13.24677,-13.24677 7.3159891,0 13.2467701,5.930781 13.2467701,13.24677 z"
           sodipodi:ry="13.24677"
           sodipodi:rx="13.24677"
           sodipodi:cy="39.179218"
           sodipodi:cx="-16.953684"
           id="path3905"
           style="fill:none;stroke:#2f54df;stroke-width:0.5;stroke-miterlimit:4;stroke-opacity:1;stroke-dasharray:none"
           sodipodi:type="arc" />
        <path
           inkscape:transform-center-y="-2.1260247"
           sodipodi:nodetypes="cccccccccccccccsccccccssccccccssssscsscccccccccsscsssccccccccccccccccccsscscccccccccccccccccccscscscssssscscscccsccccscccccscccccccccccccccscsccscscccscccccccccsccccsccsssscsssccsscscssccsccscccccscc"
           id="path3873-1"
           d="m 288.76003,554.06542 c 0.31881,-0.0296 0.63938,0.0999 0.9375,0.34375 0.12811,0.10478 0.40341,0.2299 0.625,0.3125 0.4389,0.16361 0.71816,0.52831 0.71875,0.90625 3.9e-4,0.27216 -0.29118,0.73771 -0.5625,0.875 -0.12557,0.0636 -0.55476,0.12425 -1.09375,0.125 -0.78215,10e-4 -0.93858,-0.0198 -1.1875,-0.1875 -0.96965,-0.65345 -0.82718,-1.86987 0.25,-2.28125 0.10651,-0.0407 0.20623,-0.0839 0.3125,-0.0937 z m -7.16424,-1.08888 c 0.58065,11.95561 0.29032,5.9778 0,0 z m 7.16424,1.58878 c -0.0924,0.0126 -0.19051,0.0468 -0.28125,0.0937 -0.50008,0.2586 -0.58745,0.8188 -0.1875,1.21875 0.23754,0.23759 0.26095,0.25 1.09375,0.25 0.67773,0 0.87907,-0.0468 1,-0.15625 0.33775,-0.30566 0.11368,-0.7955 -0.375,-0.8125 -0.24103,-0.008 -0.33821,-0.0745 -0.5,-0.28125 -0.1946,-0.24863 -0.47267,-0.35025 -0.75,-0.3125 z m -7.07049,-0.77638 c 0.0528,-0.0176 0.70829,0.54417 1.46875,1.28125 0.76045,0.73709 1.94363,1.99076 1.98263,1.96666 0.039,-0.0241 0.21357,-0.005 0.375,0.0625 0.30873,0.12899 0.6245,0.55929 0.625,0.84375 1.9e-4,0.1022 0.35112,0.50915 0.875,1.03125 l 0.29862,0.22084 0.50005,0.37495 0.5,0.53125 c 0.42989,0.43543 0.54656,0.5 0.8125,0.5 0.38827,0 0.71875,0.37002 0.71875,0.78125 0,0.22651 0.10087,0.36496 0.625,0.875 0.63765,0.62051 0.70714,0.73036 0.53125,0.90625 -0.18808,0.18808 -0.34256,0.10354 -0.9375,-0.53125 -0.52258,-0.55759 -0.64898,-0.6646 -0.9375,-0.6875 -0.41364,-0.0328 -0.6875,-0.31448 -0.6875,-0.71875 0,-0.25145 -0.15689,-0.44931 -1.46875,-1.8125 -0.80785,-0.83948 -0.94912,-0.89404 -0.98612,-0.90834 -0.037,-0.0142 -0.10565,0.0617 -0.15625,0.15625 -0.0999,0.18666 -0.37265,0.21799 -0.46875,0.0625 -0.0347,-0.0561 0.0209,-0.16483 0.15625,-0.28125 l 0.25,-0.21875 -0.65625,-0.65625 c -0.36121,-0.36334 -0.7338,-0.69375 -0.8125,-0.71875 -0.28784,-0.0914 -0.79862,0.12723 -0.96875,0.40625 -0.21481,0.35234 -0.21675,0.57206 0.0312,0.9375 0.21848,0.32197 0.20766,0.5625 -0.0312,0.5625 -0.16915,0 -0.34213,-0.18902 -0.53125,-0.5625 -0.17833,-0.35218 -0.16843,-0.63984 0.0312,-1.03125 0.2174,-0.42613 0.52829,-0.65625 0.875,-0.65625 0.15424,0 0.28125,-0.0342 0.28125,-0.0625 0,-0.0283 -0.97212,-1.15437 -1.48263,-1.68541 -0.51051,-0.53104 -0.8653,-0.95115 -0.8125,-0.96875 z m 12.69623,2.31016 c 0.20273,-0.0778 0.40725,0.18428 0.34375,0.4375 -0.0513,0.20453 -0.30447,0.28928 -0.4375,0.15625 -0.11023,-0.11022 -0.0374,-0.54345 0.0937,-0.59375 z m -1.0625,0.46865 c 0.0896,-0.002 0.20814,0.0722 0.3125,0.1875 0.1282,0.14163 0.11485,0.17858 0.0312,0.3125 -0.12807,0.20473 -0.0344,0.20873 0.375,0 0.39451,-0.20115 0.48529,-0.20135 0.84375,-0.0312 0.35381,0.16789 0.55865,0.48172 0.59375,0.90625 0.0151,0.18333 0.0351,0.54577 0.0625,0.78125 0.0471,0.40452 0.0285,0.44589 -0.25,0.75 l -0.28125,0.3125 -0.90625,0.0312 c -1.00451,0.0237 -1.2298,-0.0486 -1.625,-0.46875 -0.31213,-0.33186 -0.40094,-0.92521 -0.1875,-1.375 0.14915,-0.31431 0.71177,-0.71875 1,-0.71875 0.14141,0 0.1288,-0.0139 0,-0.15625 -0.0758,-0.0838 -0.125,-0.24425 -0.125,-0.34375 0,-0.11769 0.0667,-0.18559 0.15625,-0.1875 z m 2.3125,0 c 0.18674,0 0.22196,0.2613 0.0625,0.4375 -0.17745,0.19612 -0.33885,0.20697 -0.40625,0.0312 -0.0561,-0.14616 0.17157,-0.46875 0.34375,-0.46875 z m -1.1875,0.8437 c -0.053,0.002 -0.0958,0.0334 -0.125,0.0625 -0.0951,0.0951 0.13017,0.3227 0.375,0.375 0.24105,0.0515 0.31665,-0.005 0.21875,-0.1875 -0.0744,-0.1394 -0.30989,-0.25712 -0.46875,-0.25 z m 1.5625,0.24995 c 0.0586,0.012 0.11426,0.0517 0.1875,0.125 0.1033,0.10333 0.10565,0.1603 0.0312,0.25 -0.0999,0.1203 -0.4026,0.1599 -0.5,0.0625 -0.10297,-0.10301 -0.0703,-0.324 0.0625,-0.375 0.099,-0.038 0.16012,-0.0745 0.21875,-0.0625 z m -2.5,0.0625 c -0.18956,-0.0128 -0.40281,0.0893 -0.59375,0.25 -0.2135,0.17964 -0.25,0.2626 -0.25,0.5625 0,0.2999 0.0365,0.38286 0.25,0.5625 0.23814,0.20034 0.32569,0.21875 1.09375,0.21875 0.71583,0 0.85572,-0.012 1,-0.15625 0.0917,-0.0917 0.15625,-0.25205 0.15625,-0.34375 0,-0.24813 -0.30148,-0.5 -0.59375,-0.5 -0.18415,0 -0.33305,-0.0711 -0.53125,-0.28125 -0.17482,-0.18536 -0.34169,-0.2997 -0.53125,-0.3125 z m -8.5573,0.8437 c 0.23251,0 0.33906,0.28613 0.1875,0.46875 -0.0552,0.0666 -0.1466,0.0846 -0.1875,0.125 -0.5495,0.54308 -0.40424,-0.0411 -0.25,-0.40625 0.0345,-0.10866 0.12454,-0.1875 0.25,-0.1875 z m -1.1875,0.0624 c 0.15612,-0.0699 0.34965,0.008 0.375,0.1875 0.0155,0.1094 -0.20957,0.25598 -0.27087,0.29488 -0.26431,0.60653 -0.42326,0.22233 -0.26033,-0.35738 0.0175,-0.0623 0.10421,-0.1017 0.15625,-0.125 z m 0.41658,0.54488 c 0.235,-0.0336 0.42889,0.29086 0.28125,0.46875 -0.0546,0.0658 -0.22655,0.13546 -0.27726,0.20677 -0.54194,0.76221 -0.3024,-0.64892 -0.004,-0.67552 z m 4.91329,1.92571 c -0.0299,0.004 -0.0675,0.0362 -0.0937,0.0625 -0.047,0.047 -0.062,0.10645 -0.0312,0.15625 0.0817,0.13216 0.3125,0.10906 0.3125,-0.0312 0,-0.12216 -0.0977,-0.19924 -0.1875,-0.1875 z m 4.98542,1.54503 c 0.0635,-0.008 0.16215,0.0633 0.21875,0.1875 0.0752,0.16494 0.0509,0.24475 -0.0312,0.34375 -0.20241,0.24389 -0.3682,0.0673 -0.3125,-0.3125 0.0197,-0.13401 0.0615,-0.2106 0.125,-0.21875 z m -9.78543,0.11771 c 0.2755,-0.0133 0.55451,0.0642 0.8125,0.28125 0.14342,0.12068 0.41587,0.27395 0.625,0.34375 0.50373,0.16815 0.8099,0.57385 0.75,1.03125 -0.068,0.51897 -0.6611,1.01065 -0.9375,0.78125 -0.0952,-0.079 -0.21379,-0.01 -0.53125,0.34375 -0.41977,0.46728 -0.55215,0.47604 -0.46875,0.0312 0.0417,-0.22229 0.0474,-0.28125 -0.0625,-0.28125 -0.21414,0 -0.24545,-0.19952 -0.0937,-0.65625 0.14726,-0.44335 0.30041,-0.59375 0.65625,-0.59375 0.28145,0 0.3625,0.20373 0.1875,0.5 -0.13263,0.22459 -0.12932,0.2615 0.0312,0.3125 0.0923,0.0293 0.15625,0.0803 0.15625,0.125 0,0.0447 0.12083,-0.0282 0.28125,-0.15625 0.50761,-0.40502 0.34572,-1.03125 -0.28125,-1.03125 -0.14388,0 -0.34316,-0.0932 -0.53125,-0.28125 -0.3942,-0.39416 -0.80782,-0.40424 -1.15625,-0.0312 -0.35037,0.37507 -0.32063,0.76366 0.0625,1.125 0.16042,0.15129 0.28125,0.3081 0.28125,0.375 0,0.36012 -0.63482,0.0877 -0.875,-0.375 -0.46953,-0.9045 0.26726,-1.80382 1.09375,-1.84375 z m 8.66043,0.38224 c 0.17218,0 0.4311,0.29135 0.375,0.4375 -0.0674,0.17569 -0.26005,0.16483 -0.4375,-0.0312 -0.15945,-0.17619 -0.12423,-0.40625 0.0625,-0.40625 z m 2.28125,0.0312 c 0.0491,-0.0161 0.0922,-10e-4 0.125,0.0312 0.0523,0.0524 0.0889,0.14995 0.0625,0.21875 -0.0264,0.0688 -0.12385,0.16795 -0.21875,0.21875 -0.13912,0.0744 -0.17685,0.0467 -0.21875,-0.0625 -0.0544,-0.14188 0.10263,-0.35798 0.25,-0.40625 z m -1.15625,0.375 c 0.66021,0 1.15197,0.69316 0.90625,1.28125 -0.0672,0.16078 -0.20554,0.33705 -0.3125,0.40625 -0.65351,0.42289 -1.46875,-0.007 -1.46875,-0.78125 0,-0.47332 0.39911,-0.90625 0.875,-0.90625 z m 0.0625,0.40625 c -0.48019,0 -0.71959,0.59292 -0.375,0.9375 0.22294,0.22293 0.47076,0.1855 0.71875,-0.0625 0.11245,-0.1125 0.21875,-0.2813 0.21875,-0.375 0,-0.23941 -0.2983,-0.5 -0.5625,-0.5 z m -1.5,0.2499 c 0.15125,0 0.33555,0.2335 0.28125,0.375 -0.0671,0.17487 -0.557,0.17731 -0.625,0 -0.0537,-0.13998 0.15304,-0.375 0.34375,-0.375 z m 3,0.0937 c 0.24234,0 0.39548,0.23184 0.21875,0.34375 -0.064,0.0405 -0.17295,0.0625 -0.21875,0.0625 -0.0458,0 -0.1235,-0.022 -0.1875,-0.0625 -0.17673,-0.11191 -0.0548,-0.34375 0.1875,-0.34375 z m -2.46875,0.99985 c 0.13911,0 0.13501,0.27124 0,0.40625 -0.12375,0.12373 -0.27115,0.11754 -0.34375,0 -0.0661,-0.10702 0.18669,-0.40625 0.34375,-0.40625 z m 1.90625,0 c 0.0825,0 0.195,0.0388 0.25,0.0937 0.055,0.055 0.125,0.1675 0.125,0.25 0,0.17199 -0.25337,0.21538 -0.40625,0.0625 -0.15289,-0.15288 -0.14075,-0.40625 0.0312,-0.40625 z m -0.96875,0.43735 c 0.15664,-0.0302 0.2671,0.23009 0.1875,0.4375 -0.0289,0.0752 -0.091,0.125 -0.15625,0.125 -0.24773,0 -0.27765,-0.515 -0.0312,-0.5625 z"
           style="fill:#2f54df;fill-opacity:1;stroke:none"
           inkscape:connector-curvature="0" />
        <path
           sodipodi:nodetypes="csssc"
           inkscape:connector-curvature="0"
           id="path3907"
           d="m 283.8234,569.83843 c -2.87688,-1.76724 -4.79551,-4.94299 -4.79551,-8.56687 0,-5.54872 4.49813,-10.04686 10.04685,-10.04686 5.54873,0 10.04686,4.49814 10.04686,10.04686 0,3.65362 -1.95026,6.85174 -4.86655,8.61011"
           style="fill:none;stroke:#2f54df;stroke-width:0.205;stroke-miterlimit:4;stroke-opacity:1;stroke-dasharray:0.615, 0.615;stroke-dashoffset:0" />
        <path
           sodipodi:type="arc"
           style="fill:none;stroke:#2f54df;stroke-width:0.13691674;stroke-miterlimit:4;stroke-opacity:1;stroke-dasharray:none"
           id="path3910"
           sodipodi:cx="-16.953684"
           sodipodi:cy="39.179218"
           sodipodi:rx="13.24677"
           sodipodi:ry="13.24677"
           d="m -3.7069139,39.179218 c 0,7.315989 -5.930781,13.24677 -13.2467701,13.24677 -7.315989,0 -13.24677,-5.930781 -13.24677,-13.24677 0,-7.315989 5.930781,-13.24677 13.24677,-13.24677 7.3159891,0 13.2467701,5.930781 13.2467701,13.24677 z"
           transform="matrix(0.82531909,0,0,0.82531909,303.06694,528.93621)" />
        <text
           transform="matrix(1.0212918,0.07863747,-0.07863747,1.0212918,37.94193,-34.758844)"
           sodipodi:linespacing="125%"
           id="text3915"
           style="font-size:6px;font-style:normal;font-variant:normal;font-weight:normal;font-stretch:normal;line-height:125%;letter-spacing:0px;word-spacing:0px;fill:#2f54df;fill-opacity:1;stroke:none;font-family:Browallia New;-inkscape-font-specification:Browallia New"
           xml:space="preserve"><textPath
             id="textPath3924"
             xlink:href="#path3919"><tspan
   id="tspan3917"
   style="font-size:3px;font-style:normal;font-variant:normal;font-weight:normal;font-stretch:normal;fill:#2f54df;fill-opacity:1;font-family:Browallia New;-inkscape-font-specification:Browallia New">   stormy     rain     change     fair      very dry</tspan></textPath></text>
        <path
           transform="matrix(-0.29017059,0.52970504,-0.52970504,-0.29017059,304.90871,581.62067)"
           d="m -3.7069139,39.179218 c 0,7.315989 -5.930781,13.24677 -13.2467701,13.24677 -7.315989,0 -13.24677,-5.930781 -13.24677,-13.24677 0,-7.315989 5.930781,-13.24677 13.24677,-13.24677 7.3159891,0 13.2467701,5.930781 13.2467701,13.24677 z"
           sodipodi:ry="13.24677"
           sodipodi:rx="13.24677"
           sodipodi:cy="39.179218"
           sodipodi:cx="-16.953684"
           id="path3919"
           style="fill:none;stroke:none"
           sodipodi:type="arc" />
        <text
           transform="translate(275.37414,535.05733)"
           sodipodi:linespacing="125%"
           id="text3931"
           y="24.951206"
           x="22.950165"
           style="font-size:6px;font-style:normal;font-variant:normal;font-weight:normal;font-stretch:normal;line-height:125%;letter-spacing:0px;word-spacing:0px;fill:#000000;fill-opacity:1;stroke:none;font-family:Lucida Fax;-inkscape-font-specification:Lucida Fax"
           xml:space="preserve"><tspan
             y="24.951206"
             x="22.950165"
             id="tspan3933"
             sodipodi:role="line"> </tspan></text>
      </g>
    </g>
  </g>
</svg>
