<?xml version="1.0" encoding="UTF-8" standalone="no"?>
<!-- Created with Inkscape (http://www.inkscape.org/) -->

<svg
   xmlns:dc="http://purl.org/dc/elements/1.1/"
   xmlns:cc="http://creativecommons.org/ns#"
   xmlns:rdf="http://www.w3.org/1999/02/22-rdf-syntax-ns#"
   xmlns:svg="http://www.w3.org/2000/svg"
   xmlns="http://www.w3.org/2000/svg"
   xmlns:sodipodi="http://sodipodi.sourceforge.net/DTD/sodipodi-0.dtd"
   xmlns:inkscape="http://www.inkscape.org/namespaces/inkscape"
   width="27.263981"
   height="40.324001"
   id="svg2"
   version="1.1"
   inkscape:version="0.48.2 r9819"
   sodipodi:docname="barom.svg"
   inkscape:export-filename="D:\MOOC\FreeCodeCamp\wind2.png"
   inkscape:export-xdpi="300"
   inkscape:export-ydpi="300">
  <defs
     id="defs4">
    <inkscape:path-effect
       effect="spiro"
       id="path-effect3067"
       is_visible="true" />
    <inkscape:path-effect
       effect="spiro"
       id="path-effect4016"
       is_visible="true" />
    <inkscape:path-effect
       is_visible="true"
       id="path-effect4012"
       effect="spiro" />
    <inkscape:path-effect
       effect="spiro"
       id="path-effect4008"
       is_visible="true" />
    <inkscape:path-effect
       is_visible="true"
       id="path-effect4004"
       effect="spiro" />
    <inkscape:path-effect
       effect="spiro"
       id="path-effect4002"
       is_visible="true" />
    <inkscape:path-effect
       is_visible="true"
       id="path-effect3992"
       effect="spiro" />
    <inkscape:path-effect
       effect="spiro"
       id="path-effect3990"
       is_visible="true" />
    <inkscape:path-effect
       is_visible="true"
       id="path-effect3984"
       effect="spiro" />
    <inkscape:path-effect
       effect="spiro"
       id="path-effect3982"
       is_visible="true" />
    <inkscape:path-effect
       is_visible="true"
       id="path-effect3978"
       effect="spiro" />
    <inkscape:path-effect
       effect="spiro"
       id="path-effect3966"
       is_visible="true" />
    <inkscape:path-effect
       is_visible="true"
       id="path-effect3962"
       effect="spiro" />
    <inkscape:path-effect
       effect="spiro"
       id="path-effect3958"
       is_visible="true" />
    <inkscape:path-effect
       is_visible="true"
       id="path-effect3954"
       effect="spiro" />
    <inkscape:path-effect
       effect="spiro"
       id="path-effect3950"
       is_visible="true" />
    <inkscape:path-effect
       effect="spiro"
       id="path-effect3936"
       is_visible="true" />
    <inkscape:path-effect
       is_visible="true"
       id="path-effect3934"
       effect="spiro" />
    <inkscape:path-effect
       effect="spiro"
       id="path-effect3932"
       is_visible="true" />
    <inkscape:path-effect
       is_visible="true"
       id="path-effect3930"
       effect="spiro" />
    <inkscape:path-effect
       is_visible="true"
       id="path-effect3912"
       effect="spiro" />
    <inkscape:path-effect
       effect="spiro"
       id="path-effect3908"
       is_visible="true" />
    <inkscape:path-effect
       is_visible="true"
       id="path-effect3904"
       effect="spiro" />
    <inkscape:path-effect
       effect="spiro"
       id="path-effect3900"
       is_visible="true" />
  </defs>
  <sodipodi:namedview
     id="base"
     pagecolor="#ffffff"
     bordercolor="#666666"
     borderopacity="1.0"
     inkscape:pageopacity="0.0"
     inkscape:pageshadow="2"
     inkscape:zoom="12.971234"
     inkscape:cx="25.80794"
     inkscape:cy="13.816791"
     inkscape:document-units="px"
     inkscape:current-layer="g3947"
     showgrid="false"
     inkscape:window-width="1280"
     inkscape:window-height="753"
     inkscape:window-x="-4"
     inkscape:window-y="-4"
     inkscape:window-maximized="1"
     fit-margin-top="0"
     fit-margin-left="0"
     fit-margin-right="0"
     fit-margin-bottom="0"
     inkscape:snap-center="true" />
  <metadata
     id="metadata7">
    <rdf:RDF>
      <cc:Work
         rdf:about="">
        <dc:format>image/svg+xml</dc:format>
        <dc:type
           rdf:resource="http://purl.org/dc/dcmitype/StillImage" />
        <dc:title></dc:title>
      </cc:Work>
    </rdf:RDF>
  </metadata>
  <g
     inkscape:label="Livello 1"
     inkscape:groupmode="layer"
     id="layer1"
     transform="translate(-275.37414,-535.05733)">
    <g
       id="g3865">
      <g
         id="g3935"
         transform="translate(0,-6.5416146)">
        <path
           style="fill:#2f54df;fill-opacity:1;fill-rule:nonzero;stroke:none"
           d="M 5.1699541,15.360077 C 4.9165791,15.228544 4.7459389,15.116691 4.7459389,15.08214 c 0,-0.03612 0.031132,-0.05463 0.082958,-0.04931 0.076602,0.0079 0.079644,-2.66e-4 0.039701,-0.106087 -0.037574,-0.09954 -0.03229,-0.125568 0.040217,-0.198075 0.07041,-0.07041 0.093005,-0.07557 0.1443689,-0.03294 0.054626,0.04534 0.054842,0.05723 0.0021,0.115503 -0.078197,0.08641 -0.074437,0.207053 0.00866,0.277993 0.037101,0.03167 0.1888795,0.123641 0.3372848,0.204374 0.1484053,0.08073 0.2745726,0.150429 0.2803719,0.154879 0.019128,0.01468 -0.037536,0.134798 -0.062852,0.133238 -0.013632,-8.4e-4 -0.2155929,-0.10058 -0.4488012,-0.221644 l 2e-7,0 z"
           id="path3975"
           inkscape:connector-curvature="0"
           transform="translate(275.37414,541.59894)" />
        <g
           id="g3947">
          <path
             sodipodi:type="arc"
             style="fill:none;stroke:#2f54df;stroke-width:0.95979959;stroke-miterlimit:4;stroke-opacity:1;stroke-dasharray:none"
             id="path3905"
             sodipodi:cx="-16.953684"
             sodipodi:cy="39.179218"
             sodipodi:rx="13.24677"
             sodipodi:ry="13.24677"
             d="m -3.7069139,39.179218 a 13.24677,13.24677 0 1 1 -26.4935401,0 13.24677,13.24677 0 1 1 26.4935401,0 z"
             transform="matrix(0.97210931,0,0,0.97210931,305.55558,523.18508)" />
          <path
             inkscape:connector-curvature="0"
             style="fill:#2f54df;fill-opacity:1;stroke:none"
             d="m 288.74327,553.34208 c 0.34876,-0.0324 0.69944,0.10929 1.02557,0.37605 0.14015,0.11462 0.44131,0.2515 0.68372,0.34186 0.48013,0.17898 0.78563,0.57794 0.78627,0.99138 4.3e-4,0.29773 -0.31853,0.80702 -0.61534,0.95721 -0.13737,0.0696 -0.60688,0.13592 -1.19651,0.13674 -0.85563,10e-4 -1.02675,-0.0217 -1.29906,-0.20512 -1.06074,-0.71483 -0.90489,-2.04553 0.27349,-2.49556 0.11652,-0.0445 0.2256,-0.0918 0.34186,-0.1025 z m -7.83729,-1.19117 c 0.6352,13.07878 0.31759,6.53939 0,0 z m 7.83729,1.73804 c -0.10108,0.0138 -0.20841,0.0512 -0.30767,0.1025 -0.54706,0.28289 -0.64264,0.89572 -0.20512,1.33325 0.25986,0.25991 0.28547,0.27348 1.1965,0.27348 0.7414,0 0.96166,-0.0512 1.09395,-0.17093 0.36948,-0.33437 0.12436,-0.87023 -0.41023,-0.88883 -0.26367,-0.009 -0.36998,-0.0815 -0.54697,-0.30767 -0.21289,-0.27199 -0.51708,-0.38315 -0.82046,-0.34186 z m -7.73473,-0.84932 c 0.0578,-0.0192 0.77483,0.59529 1.60673,1.40162 0.83189,0.80633 2.12622,2.17778 2.16889,2.15142 0.0427,-0.0264 0.23363,-0.005 0.41023,0.0684 0.33773,0.14111 0.68317,0.61183 0.68371,0.92301 2.1e-4,0.11181 0.38411,0.55699 0.95721,1.12814 l 0.32667,0.24158 0.54703,0.41018 0.54697,0.58116 c 0.47028,0.47633 0.59791,0.54697 0.88883,0.54697 0.42475,0 0.78627,0.40478 0.78627,0.85464 0,0.24779 0.11035,0.39925 0.68372,0.95721 0.69755,0.6788 0.77357,0.79897 0.58116,0.99138 -0.20575,0.20575 -0.37474,0.11327 -1.02557,-0.58115 -0.57168,-0.60998 -0.70995,-0.72704 -1.02558,-0.75209 -0.4525,-0.0359 -0.75209,-0.34403 -0.75209,-0.78628 0,-0.27507 -0.17163,-0.49152 -1.60673,-1.98277 -0.88374,-0.91835 -1.03828,-0.97803 -1.07876,-0.99368 -0.0405,-0.0155 -0.11558,0.0675 -0.17093,0.17093 -0.10928,0.2042 -0.40766,0.23847 -0.51279,0.0684 -0.038,-0.0614 0.0229,-0.18031 0.17093,-0.30767 l 0.27349,-0.2393 -0.7179,-0.7179 c -0.39515,-0.39747 -0.80274,-0.75892 -0.88883,-0.78627 -0.31488,-0.1 -0.87365,0.13918 -1.05976,0.44441 -0.23499,0.38544 -0.23712,0.6258 0.0341,1.02558 0.239,0.35221 0.22717,0.61534 -0.0341,0.61534 -0.18504,0 -0.37427,-0.20678 -0.58116,-0.61534 -0.19508,-0.38527 -0.18425,-0.69995 0.0341,-1.12814 0.23782,-0.46616 0.57792,-0.7179 0.9572,-0.7179 0.16873,0 0.30767,-0.0374 0.30767,-0.0684 0,-0.031 -1.06344,-1.26282 -1.62191,-1.84375 -0.55847,-0.58092 -0.94659,-1.0405 -0.88883,-1.05976 z m 13.88898,2.52719 c 0.22178,-0.0851 0.44551,0.20159 0.37604,0.4786 -0.0561,0.22374 -0.33307,0.31646 -0.4786,0.17093 -0.12058,-0.12058 -0.0409,-0.59451 0.10251,-0.64953 z m -1.16232,0.51268 c 0.098,-0.002 0.2277,0.079 0.34186,0.20511 0.14025,0.15494 0.12564,0.19536 0.0341,0.34186 -0.1401,0.22396 -0.0376,0.22834 0.41023,0 0.43157,-0.22005 0.53088,-0.22027 0.92302,-0.0341 0.38705,0.18366 0.61113,0.52697 0.64953,0.99139 0.0165,0.20055 0.0384,0.59704 0.0684,0.85464 0.0515,0.44252 0.0312,0.48778 -0.27349,0.82046 l -0.30767,0.34186 -0.99139,0.0341 c -1.09888,0.0259 -1.34533,-0.0532 -1.77766,-0.51279 -0.34145,-0.36303 -0.4386,-1.01213 -0.20511,-1.50417 0.16316,-0.34384 0.77864,-0.78628 1.09394,-0.78628 0.1547,0 0.1409,-0.0152 0,-0.17093 -0.0829,-0.0917 -0.13674,-0.26719 -0.13674,-0.37604 0,-0.12875 0.073,-0.20302 0.17093,-0.20511 z m 2.52975,0 c 0.20429,0 0.24281,0.28584 0.0684,0.4786 -0.19412,0.21454 -0.37068,0.22641 -0.44441,0.0341 -0.0614,-0.15989 0.18769,-0.51279 0.37604,-0.51279 z m -1.29906,0.92296 c -0.058,0.002 -0.1048,0.0365 -0.13674,0.0684 -0.10404,0.10403 0.1424,0.35302 0.41023,0.41023 0.26369,0.0563 0.3464,-0.005 0.2393,-0.20512 -0.0814,-0.15249 -0.339,-0.28127 -0.51279,-0.27348 z m 1.70929,0.27343 c 0.0641,0.0131 0.125,0.0566 0.20512,0.13674 0.113,0.11304 0.11557,0.17536 0.0341,0.27349 -0.10929,0.1316 -0.44042,0.17492 -0.54698,0.0684 -0.11264,-0.11269 -0.0769,-0.35444 0.0684,-0.41023 0.1083,-0.0416 0.17516,-0.0815 0.2393,-0.0684 z m -2.73486,0.0684 c -0.20737,-0.014 -0.44065,0.0977 -0.64953,0.27349 -0.23356,0.19651 -0.27349,0.28727 -0.27349,0.61534 0,0.32808 0.0399,0.41883 0.27349,0.61535 0.26051,0.21916 0.35629,0.2393 1.1965,0.2393 0.78308,0 0.93611,-0.0131 1.09395,-0.17093 0.10031,-0.10032 0.17093,-0.27573 0.17093,-0.37605 0,-0.27144 -0.32981,-0.54697 -0.64953,-0.54697 -0.20145,0 -0.36434,-0.0778 -0.58116,-0.30767 -0.19125,-0.20277 -0.37379,-0.32786 -0.58116,-0.34186 z m -9.36122,0.92296 c 0.25435,0 0.37091,0.31301 0.20511,0.51279 -0.0604,0.0729 -0.16037,0.0926 -0.20511,0.13674 -0.60112,0.5941 -0.44222,-0.045 -0.27349,-0.44441 0.0377,-0.11887 0.13624,-0.20512 0.27349,-0.20512 z m -1.29906,0.0683 c 0.17079,-0.0765 0.3825,0.009 0.41023,0.20511 0.017,0.11968 -0.22926,0.28003 -0.29632,0.32258 -0.28914,0.66351 -0.46302,0.24322 -0.28479,-0.39095 0.0192,-0.0681 0.114,-0.11126 0.17093,-0.13674 z m 0.45571,0.59606 c 0.25708,-0.0367 0.46919,0.31819 0.30768,0.51279 -0.0597,0.072 -0.24784,0.14819 -0.30331,0.2262 -0.59285,0.83381 -0.33081,-0.70989 -0.004,-0.73899 z m 5.37488,2.10663 c -0.0327,0.004 -0.0738,0.0396 -0.10251,0.0684 -0.0514,0.0514 -0.0678,0.11645 -0.0341,0.17093 0.0894,0.14457 0.34186,0.1193 0.34186,-0.0341 0,-0.13364 -0.10688,-0.21796 -0.20512,-0.20512 z m 5.45377,1.69017 c 0.0695,-0.009 0.17739,0.0693 0.2393,0.20512 0.0823,0.18043 0.0557,0.26774 -0.0341,0.37604 -0.22142,0.26681 -0.40279,0.0736 -0.34186,-0.34185 0.0216,-0.1466 0.0673,-0.23039 0.13675,-0.23931 z m -10.70472,0.12877 c 0.30138,-0.0145 0.6066,0.0702 0.88883,0.30768 0.15689,0.13201 0.45494,0.29968 0.68371,0.37604 0.55106,0.18395 0.88599,0.62776 0.82046,1.12813 -0.0744,0.56772 -0.72321,1.1056 -1.02557,0.85464 -0.10415,-0.0864 -0.23388,-0.0109 -0.58116,0.37605 -0.45921,0.51118 -0.60402,0.52076 -0.51279,0.0341 0.0456,-0.24317 0.0519,-0.30767 -0.0684,-0.30767 -0.23426,0 -0.26851,-0.21827 -0.1025,-0.7179 0.16109,-0.485 0.32863,-0.64953 0.7179,-0.64953 0.30789,0 0.39656,0.22287 0.20511,0.54697 -0.14509,0.24569 -0.14146,0.28607 0.0341,0.34186 0.10097,0.0321 0.17092,0.0878 0.17092,0.13674 0,0.0489 0.13219,-0.0308 0.30768,-0.17093 0.55529,-0.44307 0.3782,-1.12813 -0.30768,-1.12813 -0.15739,0 -0.37539,-0.10196 -0.58115,-0.30767 -0.43124,-0.43119 -0.88371,-0.44222 -1.26488,-0.0341 -0.38328,0.4103 -0.35075,0.8354 0.0684,1.23068 0.17549,0.16551 0.30768,0.33705 0.30768,0.41023 0,0.39396 -0.69446,0.0959 -0.95721,-0.41023 -0.51364,-0.98947 0.29237,-1.97328 1.19651,-2.01696 z m 9.47403,0.41815 c 0.18836,0 0.4716,0.31872 0.41023,0.4786 -0.0737,0.1922 -0.28448,0.18032 -0.4786,-0.0341 -0.17443,-0.19274 -0.1359,-0.44441 0.0684,-0.44441 z m 2.49557,0.0341 c 0.0537,-0.0176 0.10086,-10e-4 0.13674,0.0341 0.0572,0.0573 0.0972,0.16404 0.0684,0.23931 -0.0289,0.0753 -0.13548,0.18372 -0.2393,0.2393 -0.15219,0.0814 -0.19346,0.0511 -0.2393,-0.0684 -0.0595,-0.1552 0.11227,-0.39161 0.27349,-0.44441 z m -1.26488,0.41023 c 0.72224,0 1.2602,0.75828 0.99139,1.40162 -0.0735,0.17589 -0.22485,0.36872 -0.34186,0.44442 -0.7149,0.46261 -1.60673,-0.008 -1.60673,-0.85465 0,-0.51778 0.43661,-0.99139 0.9572,-0.99139 z m 0.0684,0.44442 c -0.5253,0 -0.78719,0.64862 -0.41022,1.02557 0.24388,0.24388 0.51498,0.20293 0.78627,-0.0684 0.12301,-0.12307 0.2393,-0.30773 0.2393,-0.41023 0,-0.2619 -0.32632,-0.54697 -0.61535,-0.54697 z m -1.64091,0.27338 c 0.16546,0 0.36707,0.25543 0.30767,0.41023 -0.0734,0.19129 -0.60933,0.19396 -0.68372,0 -0.0587,-0.15314 0.16742,-0.41023 0.37605,-0.41023 z m 3.28183,0.1025 c 0.26511,0 0.43264,0.25362 0.2393,0.37604 -0.07,0.0443 -0.18919,0.0684 -0.2393,0.0684 -0.0501,0 -0.1351,-0.0241 -0.20511,-0.0684 -0.19333,-0.12242 -0.06,-0.37604 0.20511,-0.37604 z m -2.70067,1.09378 c 0.15217,0 0.14769,0.29672 0,0.44441 -0.13538,0.13536 -0.29663,0.12859 -0.37605,0 -0.0723,-0.11707 0.20423,-0.44441 0.37605,-0.44441 z m 2.08533,0 c 0.0903,0 0.21332,0.0424 0.27348,0.1025 0.0602,0.0602 0.13675,0.18324 0.13675,0.27349 0,0.18815 -0.27717,0.23561 -0.44442,0.0684 -0.16725,-0.16724 -0.15397,-0.44442 0.0341,-0.44442 z m -1.05976,0.47844 c 0.17135,-0.033 0.29219,0.2517 0.20511,0.4786 -0.0316,0.0823 -0.0995,0.13674 -0.17093,0.13674 -0.271,0 -0.30373,-0.56338 -0.0341,-0.61534 z"
             id="path3873-1"
             sodipodi:nodetypes="cccccccccccccccsccccccssccccccssssscsscccccccccsscsssccccccccccccccccccsscscccccccccccccccccccscscscssssscscscccsccccscccccscccccccccccccccscsccscscccscccccccccsccccsccsssscsssccsscscssccsccscccccscc"
             inkscape:transform-center-y="-2.3257397" />
          <path
             style="fill:none;stroke:#2f54df;stroke-width:0.324;stroke-miterlimit:4;stroke-opacity:1;stroke-dasharray:0.972,0.972;stroke-dashoffset:0"
             d="m 283.34286,570.5969 c -3.14715,-1.93327 -5.24602,-5.40737 -5.24602,-9.37169 0,-6.07 4.92071,-10.99072 10.9907,-10.99072 6.07001,0 10.99072,4.92072 10.99072,10.99072 0,3.99686 -2.13348,7.49543 -5.32374,9.41899"
             id="path3907"
             inkscape:connector-curvature="0"
             sodipodi:nodetypes="csssc" />
          <path
             transform="matrix(0.90285408,0,0,0.90285408,304.39425,525.8521)"
             d="m -3.7069139,39.179218 a 13.24677,13.24677 0 1 1 -26.4935401,0 13.24677,13.24677 0 1 1 26.4935401,0 z"
             sodipodi:ry="13.24677"
             sodipodi:rx="13.24677"
             sodipodi:cy="39.179218"
             sodipodi:cx="-16.953684"
             id="path3910"
             style="fill:none;stroke:#2f54df;stroke-width:0.24810211;stroke-miterlimit:4;stroke-opacity:1;stroke-dasharray:none"
             sodipodi:type="arc" />
          <path
             sodipodi:type="arc"
             style="fill:none;stroke:none"
             id="path3919"
             sodipodi:cx="-16.953684"
             sodipodi:cy="39.179218"
             sodipodi:rx="13.24677"
             sodipodi:ry="13.24677"
             d="m -3.7069139,39.179218 a 13.24677,13.24677 0 1 1 -26.4935401,0 13.24677,13.24677 0 1 1 26.4935401,0 z"
             transform="matrix(-0.3174308,0.57946843,-0.57946843,-0.3174308,306.40904,583.48602)" />
          <text
             xml:space="preserve"
             style="font-size:6.56367302px;font-style:normal;font-variant:normal;font-weight:normal;font-stretch:normal;line-height:125%;letter-spacing:0px;word-spacing:0px;fill:#000000;fill-opacity:1;stroke:none;font-family:Lucida Fax;-inkscape-font-specification:Lucida Fax"
             x="299.20605"
             y="559.84351"
             id="text3931"
             sodipodi:linespacing="125%"><tspan
               sodipodi:role="line"
               id="tspan3933"
               x="299.20605"
               y="559.84351"> </tspan></text>
          <path
             style="fill:#2f54df;fill-opacity:1;fill-rule:nonzero;stroke:none"
             d="m 5.2184683,24.800516 c -0.1616786,-0.08182 -0.2729038,-0.262758 -0.273684,-0.445218 -0.00147,-0.344816 0.4825951,-0.642229 0.7973192,-0.489873 0.1478099,0.07155 0.2575185,0.236124 0.2758568,0.413805 0.020395,0.197606 -0.1133879,0.387367 -0.3571907,0.506649 -0.1571021,0.07686 -0.309385,0.0819 -0.4423013,0.01464 z m 0.3777361,-0.183727 c 0.2597099,-0.129778 0.3444738,-0.350774 0.2002724,-0.522147 -0.068933,-0.08192 -0.1606485,-0.117454 -0.2634002,-0.102046 -0.111145,0.01667 -0.2942513,0.120757 -0.3639807,0.20691 -0.074219,0.0917 -0.089141,0.225099 -0.036047,0.322233 0.089364,0.163487 0.257252,0.197941 0.4631552,0.09505 z"
             id="path4025"
             inkscape:connector-curvature="0"
             transform="translate(275.37414,541.59894)" />
        </g>
        <path
           style="fill:#2f54df;fill-opacity:1;fill-rule:nonzero;stroke:none"
           d="M 6.1098166,26.111069 C 6.0017045,26.002957 5.9601642,25.928934 5.9601642,25.844394 c 0,-0.188229 0.033055,-0.243052 0.1155017,-0.191563 0.051397,0.0321 0.065012,0.07532 0.051034,0.16201 -0.014739,0.09141 0.00278,0.138702 0.077222,0.208452 0.1219174,0.114234 0.2397566,0.09736 0.2335718,-0.03346 -0.00248,-0.05242 -0.044898,-0.186254 -0.094267,-0.297409 -0.1057947,-0.238203 -0.078002,-0.384309 0.088265,-0.463999 0.085209,-0.04084 0.1259445,-0.04008 0.2321841,0.0043 0.2671806,0.111635 0.4075958,0.400511 0.2960178,0.608996 -0.066569,0.124386 -0.1479965,0.02356 -0.1242077,-0.153801 0.017228,-0.128446 0.00474,-0.158223 -0.10509,-0.250641 -0.1330919,-0.11199 -0.1823584,-0.114982 -0.2454824,-0.01491 -0.029227,0.04633 -0.017253,0.117046 0.04543,0.268279 0.1110487,0.267925 0.1108707,0.432015 -5.531e-4,0.51006 -0.139871,0.09797 -0.2574574,0.07287 -0.4199734,-0.08965 z"
           id="path3959"
           inkscape:connector-curvature="0"
           transform="translate(275.37414,541.59894)" />
        <path
           style="fill:#2f54df;fill-opacity:1;fill-rule:nonzero;stroke:none"
           d="m 5.2887917,25.571043 c -0.066412,-0.02603 -0.059658,-0.03982 0.066681,-0.136188 0.1209889,-0.09228 0.13476,-0.118095 0.098827,-0.185237 -0.050945,-0.09519 0.040368,-0.179508 0.092847,-0.08573 0.047674,0.08519 0.08909,0.07107 0.36138,-0.123237 0.2702307,-0.192833 0.3159579,-0.254816 0.2482082,-0.33645 -0.032606,-0.03929 -0.029878,-0.06338 0.011022,-0.09733 0.043302,-0.03594 0.070836,-0.02416 0.1353892,0.0579 0.1395227,0.177374 0.1194599,0.210982 -0.314272,0.526452 -0.1976046,0.143725 -0.2572367,0.207965 -0.2408823,0.259493 0.024267,0.07646 -0.080951,0.140874 -0.1074947,0.06581 -0.011718,-0.03314 -0.049141,-0.02714 -0.1337151,0.02144 -0.064593,0.0371 -0.1234391,0.06624 -0.1307684,0.06475 -0.00733,-0.0015 -0.046579,-0.01574 -0.087223,-0.03167 z"
           id="path3961"
           inkscape:connector-curvature="0"
           transform="translate(275.37414,541.59894)" />
        <path
           style="fill:#2f54df;fill-opacity:1;fill-rule:nonzero;stroke:none"
           d="m 4.6266843,23.826423 c -0.015091,-0.02442 0.00455,-0.06778 0.043639,-0.09637 0.063575,-0.04649 0.064196,-0.05197 0.00589,-0.05197 -0.089195,0 -0.219375,-0.137246 -0.219375,-0.231281 0,-0.119759 0.1256336,-0.09291 0.2032432,0.04343 0.060433,0.106168 0.082505,0.117206 0.1909966,0.09551 0.067467,-0.01349 0.239104,-0.0782 0.3814156,-0.143798 0.2502427,-0.115344 0.3422027,-0.120528 0.3422027,-0.01929 0,0.03905 -0.8204415,0.448163 -0.8987559,0.448163 -0.012,0 -0.034165,-0.01998 -0.049256,-0.0444 z"
           id="path3969"
           inkscape:connector-curvature="0"
           transform="translate(275.37414,541.59894)" />
        <path
           style="fill:#2f54df;fill-opacity:1;fill-rule:nonzero;stroke:none"
           d="m 4.3026503,23.061334 c 0,-0.0424 0.021683,-0.07718 0.048184,-0.07728 0.026501,-1.04e-4 -6.94e-5,-0.03913 -0.059043,-0.08673 -0.1256614,-0.101417 -0.1824833,-0.339835 -0.1036352,-0.434841 0.042067,-0.05069 0.030791,-0.07582 -0.073643,-0.16415 -0.160677,-0.135895 -0.1989078,-0.337941 -0.086529,-0.4573 0.060204,-0.06394 0.7524277,-0.321567 0.8640358,-0.321567 0.010114,0 0.027402,0.03447 0.038419,0.07659 0.017646,0.06748 -0.025331,0.09059 -0.3611358,0.194216 -0.4264054,0.131584 -0.497983,0.196727 -0.4126843,0.375588 0.068555,0.143752 0.2195158,0.152241 0.6045523,0.034 0.3046952,-0.09357 0.3098653,-0.09386 0.3337464,-0.01862 0.013341,0.04203 0.018337,0.08007 0.011101,0.08451 -0.00724,0.0044 -0.169271,0.05727 -0.3600778,0.117373 -0.1908068,0.06011 -0.3686041,0.126669 -0.395105,0.147915 -0.070518,0.05653 -0.058798,0.200369 0.022309,0.273769 0.094676,0.08568 0.2678745,0.08032 0.5927014,-0.01834 0.2257103,-0.06856 0.2759933,-0.07334 0.3041316,-0.02891 0.018542,0.02927 0.033978,0.06302 0.034302,0.07498 6.168e-4,0.02273 -0.8883503,0.305893 -0.9603369,0.305893 -0.02271,0 -0.041291,-0.03469 -0.041291,-0.07709 z"
           id="path3971"
           inkscape:connector-curvature="0"
           transform="translate(275.37414,541.59894)" />
        <path
           style="fill:#2f54df;fill-opacity:1;fill-rule:nonzero;stroke:none"
           d="m 3.8400883,21.390532 c 0,-0.07518 0.061535,-0.122197 0.3657226,-0.279465 0.2011474,-0.103995 0.3659351,-0.197889 0.3661949,-0.208654 2.598e-4,-0.01076 -0.185998,-0.05413 -0.4139061,-0.09637 -0.3817346,-0.07074 -0.4154048,-0.08405 -0.4274071,-0.168951 -0.0091,-0.06438 0.00252,-0.08625 0.038547,-0.07255 0.028367,0.01078 0.3204397,0.07605 0.6490514,0.145027 0.3286118,0.06898 0.6449264,0.149645 0.7029213,0.179254 0.1566172,0.07996 0.1946967,0.322259 0.050646,0.322259 -0.028251,0 -0.061815,-0.04163 -0.074586,-0.09252 -0.014619,-0.05824 -0.067723,-0.108029 -0.1433583,-0.134396 -0.1114332,-0.03885 -0.1550863,-0.02237 -0.6024392,0.22743 -0.2652654,0.14812 -0.4888449,0.269309 -0.4968433,0.269309 -0.008,0 -0.014542,-0.04067 -0.014542,-0.09038 z"
           id="path3973"
           inkscape:connector-curvature="0"
           transform="translate(275.37414,541.59894)" />
        <path
           style="fill:#2f54df;fill-opacity:1;fill-rule:nonzero;stroke:none"
           d="m 5.7043705,14.921415 c -0.1035186,-0.05012 -0.1775784,-0.208042 -0.1481518,-0.315903 0.012349,-0.04527 0.058606,-0.163393 0.102793,-0.262506 0.044187,-0.09911 0.069856,-0.207525 0.057042,-0.240918 -0.035048,-0.09133 -0.1934703,-0.073 -0.2940133,0.03402 -0.073554,0.07829 -0.084801,0.120998 -0.064804,0.246054 0.01686,0.105433 0.00824,0.164559 -0.028424,0.194988 -0.076047,0.06311 -0.1561512,-0.146285 -0.1231842,-0.322014 0.031885,-0.169961 0.2496473,-0.406499 0.3742324,-0.406499 0.050836,0 0.2309214,0.08635 0.4001902,0.191886 0.1692689,0.105538 0.330716,0.192268 0.3587715,0.192735 0.086004,0.0014 0.030964,0.134953 -0.06104,0.148079 -0.0687,0.0098 -0.086366,0.03736 -0.086481,0.134914 -1.85e-4,0.158191 -0.1267552,0.364684 -0.2529374,0.412658 -0.1170883,0.04452 -0.1272427,0.04419 -0.2339932,-0.0075 l 0,0 z m 0.3114282,-0.23332 c 0.084282,-0.12033 0.075971,-0.32238 -0.017088,-0.415439 -0.042402,-0.0424 -0.092032,-0.07709 -0.1102909,-0.07709 -0.018258,0 -0.070207,0.09671 -0.1154406,0.214915 -0.061762,0.161393 -0.072356,0.23339 -0.04254,0.289101 0.053937,0.100783 0.2111561,0.09446 0.2853594,-0.01148 z"
           id="path3979"
           inkscape:connector-curvature="0"
           transform="translate(275.37414,541.59894)" />
        <path
           style="fill:#2f54df;fill-opacity:1;fill-rule:nonzero;stroke:none"
           d="M 6.1624055,13.767846 C 5.813928,13.494999 5.7719915,13.449581 5.8074171,13.383388 c 0.037437,-0.06995 0.060401,-0.05932 0.3373769,0.156175 0.5548969,0.431729 0.5356422,0.412149 0.4706288,0.47857 -0.051799,0.05292 -0.099236,0.02671 -0.4530173,-0.250287 z"
           id="path3981"
           inkscape:connector-curvature="0"
           transform="translate(275.37414,541.59894)" />
        <path
           style="fill:#2f54df;fill-opacity:1;fill-rule:nonzero;stroke:none"
           d="m 5.4959966,13.249231 c -0.040642,-0.04897 -0.039755,-0.06942 0.00492,-0.113285 0.046513,-0.04568 0.065243,-0.04557 0.1276857,7.3e-4 0.060517,0.04487 0.064702,0.06447 0.02419,0.113284 -0.061783,0.07444 -0.094531,0.07429 -0.1567928,-7.29e-4 z"
           id="path3983"
           inkscape:connector-curvature="0"
           transform="translate(275.37414,541.59894)" />
        <path
           style="fill:#2f54df;fill-opacity:1;fill-rule:nonzero;stroke:none"
           d="m 15.577599,21.796633 c -0.140365,-0.03019 -0.382112,-0.233799 -0.767145,-0.646121 -0.527367,-0.564744 -0.723083,-0.705806 -1.071334,-0.772162 -0.447795,-0.08532 -0.649039,-0.292859 -0.721444,-0.743999 -0.02229,-0.138855 -0.08008,-0.308005 -0.132086,-0.386594 -0.227314,-0.343495 -2.119699,-2.322424 -2.4196,-2.530255 l -0.157243,-0.10897 -0.132108,0.159041 C 10.033417,16.939994 9.8688732,17.002561 9.7400146,16.933598 9.6042724,16.860951 9.6451975,16.73786 9.878419,16.517316 l 0.217759,-0.205921 -0.1503021,-0.156291 c -0.4234269,-0.4403 -1.351755,-1.280402 -1.4690029,-1.329391 -0.3221283,-0.134594 -0.8811746,0.1394 -1.0921807,0.535288 -0.1737001,0.325895 -0.1637394,0.478278 0.05933,0.907662 0.1865979,0.35918 0.2121143,0.52346 0.092892,0.598056 C 7.3587444,16.978198 7.0788612,16.741471 6.866277,16.29949 6.6502669,15.850387 6.6924649,15.460378 7.01077,14.964033 c 0.2217695,-0.345814 0.5219861,-0.531896 0.8639465,-0.535497 0.3064493,-0.0032 0.3053422,-0.01733 -0.032951,-0.419691 -0.6463832,-0.768803 -1.1281701,-1.277236 -1.2106943,-1.277653 -0.1077938,-5.46e-4 -0.2179818,0.127183 -0.2179818,0.252682 0,0.0738 0.071915,0.173928 0.2638049,0.3673 0.2305135,0.232293 0.2566602,0.272764 0.2071892,0.32069 -0.049302,0.04776 -0.1034996,0.01119 -0.4195307,-0.28311 -0.2690181,-0.250519 -0.3564317,-0.354855 -0.3378567,-0.40326 0.02009,-0.05235 0.040456,-0.05706 0.1027239,-0.02374 0.070123,0.03753 0.077666,0.02992 0.077666,-0.0784 0,-0.08194 0.036713,-0.156674 0.1158223,-0.235784 L 6.5387304,12.531755 6.2978589,12.274711 C 6.1653796,12.133336 6.0522884,12.010179 6.0465452,12.001028 c -0.00574,-0.0092 -0.071168,0.04222 -0.1453876,0.114155 l -0.1349454,0.130795 -0.1039099,-0.10391 -0.10391,-0.10391 0.1237923,-0.127721 c 0.1466451,-0.1513 0.1491593,-0.169174 0.040122,-0.285239 -0.1157748,-0.123237 -0.063397,-0.153456 0.080974,-0.04672 l 0.1190051,0.08798 0.1532768,-0.14967 0.1532767,-0.149671 0.096943,0.09107 c 0.053319,0.05009 0.096943,0.105163 0.096943,0.122382 0,0.01722 -0.062252,0.08836 -0.1383381,0.158087 l -0.138338,0.126777 0.2828887,0.248037 c 0.1555887,0.13642 0.8822983,0.842831 1.6149101,1.569802 1.0414812,1.033462 1.3531749,1.321765 1.4290027,1.321765 0.4099024,0 0.8606514,0.413776 1.0098554,0.927021 0.0451,0.155148 0.12223,0.281576 0.282071,0.462377 0.439561,0.497203 0.657032,0.705306 1.035231,0.990636 0.212008,0.159948 0.636987,0.537546 0.944398,0.839105 0.307411,0.30156 0.601751,0.570563 0.654089,0.597785 0.05234,0.02722 0.222502,0.07161 0.378143,0.09864 0.450967,0.07831 0.717301,0.353642 0.766936,0.792841 0.01282,0.113477 0.04928,0.258359 0.08102,0.321961 0.03173,0.0636 0.302509,0.36747 0.601721,0.675261 0.612604,0.630169 0.722531,0.790221 0.64379,0.937351 -0.05855,0.109397 -0.182359,0.172303 -0.292503,0.148613 l 0,0 z m -1.644918,-2.119905 c 0.02801,-0.197616 -0.226487,-0.284343 -0.308191,-0.105023 -0.0598,0.131241 0.0174,0.221023 0.176672,0.20548 0.09053,-0.0088 0.12193,-0.03282 0.131519,-0.100457 l 0,0 z"
           id="path3985"
           inkscape:connector-curvature="0"
           transform="translate(275.37414,541.59894)" />
        <path
           style="fill:#2f54df;fill-opacity:1;fill-rule:nonzero;stroke:none"
           d="m 11.250031,10.835294 c -0.214777,-0.108709 -0.34519,-0.562552 -0.227209,-0.790701 0.06839,-0.1322534 0.269525,-0.2433694 0.44053,-0.2433694 0.113688,0 0.317384,0.1262678 0.317384,0.1967417 0,0.071093 -0.119143,0.081866 -0.190564,0.01723 -0.104954,-0.094982 -0.304449,-0.06439 -0.397616,0.06097 -0.08929,0.120143 -0.06914,0.331782 0.05026,0.528132 0.06069,0.0998 0.09891,0.122048 0.209701,0.122048 0.152668,0 0.289668,-0.109387 0.289668,-0.231281 0,-0.0514 0.0257,-0.07709 0.07709,-0.07709 0.115121,0 0.09895,0.167057 -0.03016,0.311556 -0.08308,0.09299 -0.146066,0.123416 -0.279464,0.135024 -0.09472,0.0082 -0.211548,-0.0049 -0.259627,-0.02926 l 0,0 z"
           id="path3987"
           inkscape:connector-curvature="0"
           transform="translate(275.37414,541.59894)" />
        <path
           style="fill:#2f54df;fill-opacity:1;fill-rule:nonzero;stroke:none"
           d="m 12.057339,10.006719 c -0.08604,-0.6765252 -0.08281,-0.7416663 0.03691,-0.7445608 0.03239,-7.83e-4 0.07077,0.147387 0.07143,0.2757216 2.9e-4,0.056568 0.011,0.1301347 0.02379,0.1634813 0.02039,0.053132 0.03533,0.051139 0.120839,-0.016121 0.104697,-0.082355 0.316463,-0.1011602 0.433545,-0.0385 0.08898,0.047618 0.13954,0.2037065 0.191428,0.5909247 0.0519,0.387321 0.05328,0.373042 -0.03595,0.373042 -0.08418,0 -0.09152,-0.0223 -0.149867,-0.455221 -0.04436,-0.3291516 -0.08558,-0.3928092 -0.254355,-0.3928092 -0.21382,0 -0.267333,0.1019391 -0.237535,0.4524882 0.01399,0.164546 0.03587,0.338204 0.04862,0.385905 0.01934,0.07233 0.0078,0.08673 -0.06952,0.08673 -0.09115,0 -0.09417,-0.01146 -0.179332,-0.681082 z"
           id="path3989"
           inkscape:connector-curvature="0"
           transform="translate(275.37414,541.59894)" />
        <path
           style="fill:#2f54df;fill-opacity:1;fill-rule:nonzero;stroke:none"
           d="m 13.308534,10.530816 c -0.128299,-0.10092 -0.138786,-0.298002 -0.02158,-0.405607 0.04399,-0.04039 0.204441,-0.09975 0.356558,-0.1319068 0.239651,-0.050669 0.274802,-0.068681 0.263278,-0.1349139 -0.02213,-0.127215 -0.08525,-0.1728052 -0.239222,-0.1728052 -0.137355,0 -0.242807,0.059752 -0.274791,0.155705 -0.01804,0.054121 -0.147257,0.00433 -0.147257,-0.056743 0,-0.025837 0.04476,-0.089029 0.09947,-0.1404266 0.08424,-0.079138 0.13789,-0.09345 0.350328,-0.09345 0.353836,0 0.39823,0.060284 0.39823,0.5407738 0,0.197324 0.01053,0.386209 0.0234,0.419744 0.01765,0.04599 -0.0013,0.06097 -0.07709,0.06097 -0.06017,0 -0.100491,-0.02153 -0.100491,-0.05367 0,-0.04239 -0.03005,-0.03834 -0.143065,0.01927 -0.186319,0.09499 -0.36133,0.0925 -0.48776,-0.007 z m 0.505548,-0.137019 c 0.112551,-0.07098 0.129329,-0.339935 0.01927,-0.308948 -0.0371,0.01045 -0.128168,0.03097 -0.202371,0.0456 -0.174664,0.03444 -0.231281,0.08269 -0.231281,0.197123 0,0.162645 0.208619,0.195988 0.414379,0.06623 z"
           id="path3991"
           inkscape:connector-curvature="0"
           transform="translate(275.37414,541.59894)" />
        <path
           style="fill:#2f54df;fill-opacity:1;fill-rule:nonzero;stroke:none"
           d="m 15.057981,10.581797 c 4.19e-4,-0.0583 0.01806,-0.225682 0.03921,-0.371955 0.04502,-0.3114274 -0.0091,-0.4471652 -0.178306,-0.4471652 -0.227838,0 -0.299125,0.1212003 -0.345754,0.5878392 -0.02432,0.243377 -0.0321,0.260191 -0.120473,0.260191 -0.07143,0 -0.08989,-0.01645 -0.07569,-0.06746 0.01033,-0.0371 0.03874,-0.249591 0.06315,-0.472199 0.0244,-0.2226075 0.05115,-0.4261315 0.05945,-0.452275 0.0196,-0.06176 0.133646,-0.018212 0.133646,0.051034 0,0.043021 0.0253,0.041009 0.133577,-0.010626 0.112772,-0.053777 0.157703,-0.05647 0.288472,-0.017291 0.209197,0.062677 0.248712,0.1505007 0.217765,0.4839948 -0.04511,0.486109 -0.06448,0.561913 -0.143632,0.561913 -0.05321,0 -0.07197,-0.02784 -0.0714,-0.106004 z"
           id="path3993"
           inkscape:connector-curvature="0"
           transform="translate(275.37414,541.59894)" />
        <path
           style="fill:#2f54df;fill-opacity:1;fill-rule:nonzero;stroke:none"
           d="m 15.609865,11.204116 c -0.124846,-0.06157 -0.233362,-0.247682 -0.187596,-0.321732 0.03495,-0.05654 0.131038,0.0023 0.187072,0.114487 0.06167,0.123502 0.273,0.177367 0.391431,0.09977 0.04853,-0.0318 0.105751,-0.108052 0.127155,-0.169453 l 0.03892,-0.111637 -0.180733,0.01737 c -0.153864,0.01478 -0.198903,0.0021 -0.302949,-0.08547 -0.14588,-0.122751 -0.192376,-0.311979 -0.128797,-0.524186 0.05673,-0.189353 0.206308,-0.367868 0.335376,-0.4002622 0.131501,-0.033004 0.347497,0.040246 0.418784,0.1420221 0.04781,0.068259 0.06018,0.071454 0.0797,0.020583 0.0136,-0.035432 0.05212,-0.052631 0.09359,-0.041787 0.06621,0.017314 0.06277,0.04801 -0.05677,0.5064857 -0.15887,0.609324 -0.185537,0.677562 -0.294658,0.753993 -0.111447,0.07806 -0.362059,0.07798 -0.520519,-1.77e-4 l 0,0 z m 0.493914,-0.519418 c 0.09267,-0.0496 0.186937,-0.258601 0.186937,-0.414476 0,-0.156173 -0.133995,-0.3148111 -0.265907,-0.3148111 -0.288308,0 -0.455579,0.5843281 -0.208429,0.7281061 0.09047,0.05263 0.190494,0.05304 0.287399,0.0012 l 0,0 z"
           id="path3995"
           inkscape:connector-curvature="0"
           transform="translate(275.37414,541.59894)" />
        <path
           style="fill:#2f54df;fill-opacity:1;fill-rule:nonzero;stroke:none"
           d="m 16.865543,11.178116 c -0.178022,-0.11997 -0.235519,-0.242236 -0.210268,-0.447135 0.05494,-0.44581 0.433665,-0.673935 0.757235,-0.45612 0.17402,0.117144 0.240175,0.261466 0.207771,0.453267 -0.01412,0.0836 -0.03985,0.16076 -0.05717,0.171462 -0.01732,0.0107 -0.184932,-0.04 -0.372478,-0.112675 -0.34061,-0.131988 -0.341017,-0.132042 -0.36394,-0.04817 -0.01262,0.04618 -0.0027,0.136006 0.02208,0.199608 0.05883,0.151105 0.207134,0.204965 0.386135,0.140237 0.08471,-0.03063 0.156771,-0.03558 0.196252,-0.01349 0.05406,0.03025 0.0483,0.046 -0.04312,0.117908 -0.140275,0.11034 -0.354481,0.108333 -0.522501,-0.0049 l 0,0 z m 0.595646,-0.509923 c 0.03198,-0.08335 -0.03594,-0.238583 -0.12533,-0.286423 -0.102542,-0.05488 -0.245389,-0.05165 -0.322541,0.0073 -0.124485,0.0951 -0.09106,0.151266 0.144701,0.24316 0.279407,0.108905 0.275366,0.108425 0.30317,0.03597 l 0,0 z"
           id="path3997"
           inkscape:connector-curvature="0"
           transform="translate(275.37414,541.59894)" />
        <path
           style="fill:#2f54df;fill-opacity:1;fill-rule:nonzero;stroke:none"
           d="m 20.822829,14.131297 c -0.02863,-0.07462 -0.05366,-0.0495 0.355709,-0.357096 0.266128,-0.199965 0.312169,-0.249925 0.273389,-0.296652 -0.07012,-0.08449 0.01127,-0.150242 0.109812,-0.0887 0.06263,0.03912 0.09258,0.03623 0.167308,-0.01611 0.135802,-0.09512 0.247799,-0.07795 0.359798,0.05515 0.144282,0.171469 0.0639,0.269477 -0.09263,0.112944 -0.06455,-0.06455 -0.0917,-0.06961 -0.173461,-0.03236 -0.105866,0.04824 -0.122434,0.106515 -0.05068,0.178269 0.03598,0.03598 0.03544,0.05696 -0.0024,0.09444 -0.03897,0.03859 -0.05623,0.03476 -0.08672,-0.01927 -0.02093,-0.0371 -0.05689,-0.06746 -0.07989,-0.06746 -0.02301,0 -0.189109,0.112749 -0.369115,0.250554 -0.180006,0.137805 -0.340597,0.250555 -0.35687,0.250555 -0.01627,0 -0.04068,-0.02892 -0.05425,-0.06427 z"
           id="path4001"
           inkscape:connector-curvature="0"
           transform="translate(275.37414,541.59894)" />
        <path
           style="fill:#2f54df;fill-opacity:1;fill-rule:nonzero;stroke:none"
           d="m 21.503018,15.158488 c -0.03014,-0.04826 -0.02906,-0.07968 0.0039,-0.114767 0.03488,-0.0371 0.03469,-0.05226 -8.29e-4,-0.06533 -0.09718,-0.03577 -0.246792,-0.177524 -0.303887,-0.287933 -0.08244,-0.159429 -0.03964,-0.326528 0.102459,-0.400012 0.165175,-0.08542 0.282819,-0.03636 0.496205,0.20691 0.18755,0.213815 0.190314,0.215292 0.269222,0.143882 0.106505,-0.09639 0.100456,-0.183839 -0.02285,-0.33038 -0.07431,-0.08831 -0.12689,-0.117257 -0.190803,-0.105039 -0.05359,0.01024 -0.09655,-0.0048 -0.109431,-0.03839 -0.03926,-0.102297 -0.02172,-0.126047 0.09309,-0.126047 0.135575,0 0.355259,0.177691 0.423567,0.342601 0.08415,0.203164 0.04065,0.319179 -0.171671,0.457821 -0.106004,0.06922 -0.272555,0.183743 -0.370114,0.254499 -0.161699,0.117273 -0.18105,0.122771 -0.218882,0.06219 z m 0.321796,-0.348357 c 0.03733,-0.03098 0.01008,-0.07982 -0.118165,-0.211779 -0.179902,-0.185105 -0.300989,-0.216446 -0.366112,-0.09476 -0.04752,0.08879 0.03112,0.277147 0.144364,0.345769 0.07468,0.04526 0.264513,0.02335 0.339913,-0.03923 l 0,0 z"
           id="path4003"
           inkscape:connector-curvature="0"
           transform="translate(275.37414,541.59894)" />
        <path
           style="fill:#2f54df;fill-opacity:1;fill-rule:nonzero;stroke:none"
           d="m 21.71297,15.557551 c -0.07446,-0.07446 0.01479,-0.149065 0.419033,-0.350287 0.374751,-0.186542 0.450476,-0.212286 0.481245,-0.163613 0.02008,0.03177 0.03678,0.06678 0.03711,0.07781 5.08e-4,0.01725 -0.865161,0.461787 -0.899261,0.461787 -0.0068,0 -0.02399,-0.01156 -0.03812,-0.0257 z"
           id="path4005"
           inkscape:connector-curvature="0"
           transform="translate(275.37414,541.59894)" />
        <path
           style="fill:#2f54df;fill-opacity:1;fill-rule:nonzero;stroke:none"
           d="m 22.787883,14.977153 c -0.01601,-0.04173 -2.77e-4,-0.08488 0.04231,-0.116018 0.05625,-0.04113 0.07795,-0.03926 0.127375,0.01098 0.05378,0.05467 0.0523,0.06594 -0.01525,0.116018 -0.09685,0.07179 -0.123395,0.0699 -0.154431,-0.01098 z"
           id="path4007"
           inkscape:connector-curvature="0"
           transform="translate(275.37414,541.59894)" />
        <path
           style="fill:#2f54df;fill-opacity:1;fill-rule:nonzero;stroke:none"
           d="m 21.879591,15.929394 c -0.03416,-0.06384 -0.02177,-0.08216 0.08626,-0.12755 0.06939,-0.02915 0.278924,-0.118764 0.465637,-0.199136 0.265113,-0.114121 0.349552,-0.135912 0.385468,-0.09947 0.0357,0.03622 0.02926,0.05901 -0.02883,0.101883 -0.06512,0.04806 -0.06637,0.05523 -0.0096,0.05523 0.0892,0 0.219375,0.137246 0.219375,0.231281 0,0.05654 -0.0257,0.07709 -0.09637,0.07709 -0.0671,0 -0.09637,-0.02107 -0.09637,-0.06938 0,-0.09399 -0.07456,-0.161897 -0.177755,-0.161897 -0.04688,0 -0.225337,0.05996 -0.396565,0.133252 -0.300124,0.128458 -0.312759,0.13057 -0.35122,0.05871 z"
           id="path4009"
           inkscape:connector-curvature="0"
           transform="translate(275.37414,541.59894)" />
        <path
           style="fill:#2f54df;fill-opacity:1;fill-rule:nonzero;stroke:none"
           d="m 22.853056,21.923701 c -0.303922,-0.203087 -0.433394,-0.311962 -0.433394,-0.364448 0,-0.08236 -0.007,-0.08045 0.645406,-0.175192 0.465162,-0.06754 0.472452,-0.06788 0.472452,-0.02154 0,0.09592 -0.130189,0.148168 -0.431215,0.173067 -0.505879,0.04184 -0.505113,0.03982 -0.111463,0.294389 0.252277,0.163146 0.349944,0.248219 0.349944,0.304817 0,0.04318 -0.01312,0.07851 -0.02917,0.07851 -0.01604,0 -0.224195,-0.130321 -0.462562,-0.289603 z"
           id="path4011"
           inkscape:connector-curvature="0"
           transform="translate(275.37414,541.59894)" />
        <path
           style="fill:#2f54df;fill-opacity:1;fill-rule:nonzero;stroke:none"
           d="m 22.487119,23.18895 c -0.0371,-0.0097 -0.06746,-0.02171 -0.06746,-0.0267 0,-0.005 0.05204,-0.151657 0.115641,-0.325931 0.0636,-0.174275 0.11564,-0.342383 0.11564,-0.373573 0,-0.08529 -0.203118,-0.07069 -0.32245,0.02318 -0.117894,0.09274 -0.137522,0.279047 -0.04067,0.386065 0.05011,0.05537 0.05257,0.08284 0.01391,0.155077 l -0.04698,0.08779 -0.09081,-0.113495 c -0.150126,-0.187627 -0.09533,-0.511281 0.115339,-0.681203 0.118078,-0.09524 0.420749,-0.08899 0.601175,0.01241 0.256845,0.144355 0.332702,0.376342 0.208586,0.637899 -0.09655,0.203453 -0.332152,0.28897 -0.601915,0.218473 z m 0.40918,-0.207507 c 0.131327,-0.103302 0.139512,-0.305769 0.01698,-0.419928 -0.102025,-0.09505 -0.118071,-0.0801 -0.205387,0.191445 -0.03749,0.116604 -0.07617,0.23369 -0.08596,0.260191 -0.02906,0.07874 0.162032,0.05665 0.274368,-0.03171 z"
           id="path4013"
           inkscape:connector-curvature="0"
           transform="translate(275.37414,541.59894)" />
        <path
           style="fill:#2f54df;fill-opacity:1;fill-rule:nonzero;stroke:none"
           d="m 22.489852,24.078925 c -0.05817,-0.0584 -0.05887,-0.07391 -0.0069,-0.153229 0.09062,-0.138309 0.01188,-0.227939 -0.353428,-0.402293 -0.179638,-0.08574 -0.326349,-0.168403 -0.326024,-0.1837 3.25e-4,-0.0153 0.01645,-0.05289 0.03584,-0.08354 0.02926,-0.04625 0.104521,-0.02403 0.442725,0.130684 0.22411,0.102522 0.434423,0.206112 0.467364,0.230198 0.0714,0.05221 0.03323,0.191092 -0.04434,0.161327 -0.03809,-0.01462 -0.04602,0.0078 -0.03039,0.08596 0.01406,0.07028 -0.0025,0.134875 -0.04949,0.19265 -0.06623,0.08149 -0.07467,0.08286 -0.13536,0.02194 l 0,0 z"
           id="path4015"
           inkscape:connector-curvature="0"
           transform="translate(275.37414,541.59894)" />
        <path
           style="fill:#2f54df;fill-opacity:1;fill-rule:nonzero;stroke:none"
           d="m 21.577735,24.485009 c -0.352026,-0.44377 -0.430118,-0.565388 -0.430118,-0.66985 0,-0.140837 0.07395,-0.227747 0.16429,-0.193081 0.04731,0.01816 0.05058,0.04319 0.01718,0.131689 -0.03278,0.08685 -0.02835,0.128944 0.02158,0.20516 0.0522,0.07967 0.12021,0.106372 0.402087,0.157863 0.186592,0.03409 0.422126,0.07317 0.523408,0.08684 0.203268,0.02745 0.257051,0.07264 0.176969,0.148678 -0.04336,0.04117 -0.125753,0.03526 -0.462983,-0.03321 -0.352341,-0.07154 -0.404022,-0.07478 -0.366195,-0.02297 0.02422,0.03318 0.145671,0.185146 0.269882,0.337708 0.138824,0.170509 0.217263,0.299732 0.203581,0.335387 -0.01224,0.0319 -0.0374,0.058 -0.05591,0.058 -0.01851,0 -0.227207,-0.243996 -0.463772,-0.542214 z"
           id="path4017"
           inkscape:connector-curvature="0"
           transform="translate(275.37414,541.59894)" />
        <path
           style="fill:#2f54df;fill-opacity:1;fill-rule:nonzero;stroke:none"
           d="m 20.616354,26.293641 c -0.415567,-0.377681 -0.503532,-0.475502 -0.467084,-0.519419 0.034,-0.04097 0.0577,-0.04349 0.09761,-0.01037 0.04269,0.03543 0.05271,0.02054 0.05271,-0.07837 0,-0.141766 0.132451,-0.294744 0.289274,-0.334104 0.25704,-0.06451 0.641419,0.212518 0.695602,0.501336 0.03408,0.181686 -0.07637,0.373961 -0.246987,0.429944 l -0.125607,0.04122 0.177995,0.164071 c 0.144143,0.132866 0.169329,0.174513 0.132428,0.218976 -0.02506,0.0302 -0.05645,0.05426 -0.06976,0.05347 -0.0133,-7.91e-4 -0.254586,-0.210829 -0.53618,-0.46675 z m 0.454169,-0.187107 c 0.0424,-0.0424 0.07709,-0.119128 0.07709,-0.170503 0,-0.17577 -0.302569,-0.446246 -0.499195,-0.446246 -0.112309,0 -0.233195,0.13543 -0.233195,0.261251 0,0.30373 0.458389,0.552406 0.655296,0.355498 z"
           id="path4019"
           inkscape:connector-curvature="0"
           transform="translate(275.37414,541.59894)" />
        <path
           style="fill:#2f54df;fill-opacity:1;fill-rule:nonzero;stroke:none"
           d="m 20.128226,27.081052 c -0.01356,-0.03534 0.0096,-0.09668 0.05463,-0.144601 0.118166,-0.125781 0.09593,-0.223125 -0.102783,-0.449916 -0.311974,-0.356062 -0.298033,-0.333022 -0.242204,-0.400292 0.04369,-0.05265 0.08954,-0.01785 0.361878,0.274656 0.171516,0.184217 0.326874,0.360527 0.345241,0.3918 0.04321,0.07358 -0.05043,0.136068 -0.118832,0.0793 -0.0384,-0.03187 -0.04948,-0.01517 -0.04948,0.07458 0,0.116057 -0.04112,0.170585 -0.160634,0.21303 -0.03912,0.01389 -0.07348,-0.0012 -0.08782,-0.03856 z"
           id="path4021"
           inkscape:connector-curvature="0"
           transform="translate(275.37414,541.59894)" />
        <path
           style="fill:#2f54df;fill-opacity:1;fill-rule:nonzero;stroke:none"
           d="m 19.264459,27.541842 c -0.316558,-1.045321 -0.334351,-1.125747 -0.273172,-1.234745 0.06322,-0.112641 0.174713,-0.154616 0.239253,-0.09008 0.02847,0.02847 0.0143,0.06194 -0.04733,0.111845 -0.07229,0.05854 -0.0831,0.09334 -0.06067,0.195449 0.02809,0.127907 0.03854,0.136039 0.71619,0.557556 0.195201,0.12142 0.227701,0.156155 0.189346,0.20237 -0.02547,0.03069 -0.05769,0.05579 -0.07161,0.05579 -0.01392,0 -0.185253,-0.103439 -0.380748,-0.229864 -0.195495,-0.126425 -0.355445,-0.224544 -0.355445,-0.218042 0,0.0065 0.03528,0.114277 0.0784,0.239501 0.184237,0.535045 0.194246,0.589653 0.11578,0.631648 -0.06352,0.034 -0.08001,0.0097 -0.149994,-0.221434 z"
           id="path4023"
           inkscape:connector-curvature="0"
           transform="translate(275.37414,541.59894)" />
      </g>
    </g>
  </g>
</svg>
