<?xml version="1.0" encoding="UTF-8" standalone="no"?>
<!-- Created with Inkscape (http://www.inkscape.org/) -->

<svg
   xmlns:dc="http://purl.org/dc/elements/1.1/"
   xmlns:cc="http://creativecommons.org/ns#"
   xmlns:rdf="http://www.w3.org/1999/02/22-rdf-syntax-ns#"
   xmlns:svg="http://www.w3.org/2000/svg"
   xmlns="http://www.w3.org/2000/svg"
   xmlns:xlink="http://www.w3.org/1999/xlink"
   xmlns:sodipodi="http://sodipodi.sourceforge.net/DTD/sodipodi-0.dtd"
   xmlns:inkscape="http://www.inkscape.org/namespaces/inkscape"
   width="27.263981"
   height="40.324001"
   id="svg2"
   version="1.1"
   inkscape:version="0.48.2 r9819"
   sodipodi:docname="barom.svg"
   inkscape:export-filename="D:\MOOC\FreeCodeCamp\wind2.png"
   inkscape:export-xdpi="300"
   inkscape:export-ydpi="300">
  <defs
     id="defs4">
    <inkscape:path-effect
       effect="spiro"
       id="path-effect3067"
       is_visible="true" />
    <inkscape:path-effect
       effect="spiro"
       id="path-effect4016"
       is_visible="true" />
    <inkscape:path-effect
       is_visible="true"
       id="path-effect4012"
       effect="spiro" />
    <inkscape:path-effect
       effect="spiro"
       id="path-effect4008"
       is_visible="true" />
    <inkscape:path-effect
       is_visible="true"
       id="path-effect4004"
       effect="spiro" />
    <inkscape:path-effect
       effect="spiro"
       id="path-effect4002"
       is_visible="true" />
    <inkscape:path-effect
       is_visible="true"
       id="path-effect3992"
       effect="spiro" />
    <inkscape:path-effect
       effect="spiro"
       id="path-effect3990"
       is_visible="true" />
    <inkscape:path-effect
       is_visible="true"
       id="path-effect3984"
       effect="spiro" />
    <inkscape:path-effect
       effect="spiro"
       id="path-effect3982"
       is_visible="true" />
    <inkscape:path-effect
       is_visible="true"
       id="path-effect3978"
       effect="spiro" />
    <inkscape:path-effect
       effect="spiro"
       id="path-effect3966"
       is_visible="true" />
    <inkscape:path-effect
       is_visible="true"
       id="path-effect3962"
       effect="spiro" />
    <inkscape:path-effect
       effect="spiro"
       id="path-effect3958"
       is_visible="true" />
    <inkscape:path-effect
       is_visible="true"
       id="path-effect3954"
       effect="spiro" />
    <inkscape:path-effect
       effect="spiro"
       id="path-effect3950"
       is_visible="true" />
    <inkscape:path-effect
       effect="spiro"
       id="path-effect3936"
       is_visible="true" />
    <inkscape:path-effect
       is_visible="true"
       id="path-effect3934"
       effect="spiro" />
    <inkscape:path-effect
       effect="spiro"
       id="path-effect3932"
       is_visible="true" />
    <inkscape:path-effect
       is_visible="true"
       id="path-effect3930"
       effect="spiro" />
    <inkscape:path-effect
       is_visible="true"
       id="path-effect3912"
       effect="spiro" />
    <inkscape:path-effect
       effect="spiro"
       id="path-effect3908"
       is_visible="true" />
    <inkscape:path-effect
       is_visible="true"
       id="path-effect3904"
       effect="spiro" />
    <inkscape:path-effect
       effect="spiro"
       id="path-effect3900"
       is_visible="true" />
  </defs>
  <sodipodi:namedview
     id="base"
     pagecolor="#ffffff"
     bordercolor="#666666"
     borderopacity="1.0"
     inkscape:pageopacity="0.0"
     inkscape:pageshadow="2"
     inkscape:zoom="6.485617"
     inkscape:cx="25.614189"
     inkscape:cy="26.361702"
     inkscape:document-units="px"
     inkscape:current-layer="g3935"
     showgrid="false"
     inkscape:window-width="1280"
     inkscape:window-height="753"
     inkscape:window-x="-4"
     inkscape:window-y="-4"
     inkscape:window-maximized="1"
     fit-margin-top="0"
     fit-margin-left="0"
     fit-margin-right="0"
     fit-margin-bottom="0"
     inkscape:snap-center="true" />
  <metadata
     id="metadata7">
    <rdf:RDF>
      <cc:Work
         rdf:about="">
        <dc:format>image/svg+xml</dc:format>
        <dc:type
           rdf:resource="http://purl.org/dc/dcmitype/StillImage" />
        <dc:title></dc:title>
      </cc:Work>
    </rdf:RDF>
  </metadata>
  <g
     inkscape:label="Livello 1"
     inkscape:groupmode="layer"
     id="layer1"
     transform="translate(-275.37414,-535.05733)">
    <g
       id="g3865">
      <g
         id="g3935"
         transform="translate(0,-6.5416146)">
        <path
           transform="matrix(0.97210931,0,0,0.97210931,305.55558,523.18508)"
           d="m -3.7069139,39.179218 a 13.24677,13.24677 0 1 1 -26.4935401,0 13.24677,13.24677 0 1 1 26.4935401,0 z"
           sodipodi:ry="13.24677"
           sodipodi:rx="13.24677"
           sodipodi:cy="39.179218"
           sodipodi:cx="-16.953684"
           id="path3905"
           style="fill:none;stroke:#2f54df;stroke-width:0.95979959;stroke-miterlimit:4;stroke-opacity:1;stroke-dasharray:none"
           sodipodi:type="arc" />
        <path
           inkscape:transform-center-y="-2.3257397"
           sodipodi:nodetypes="cccccccccccccccsccccccssccccccssssscsscccccccccsscsssccccccccccccccccccsscscccccccccccccccccccscscscssssscscscccsccccscccccscccccccccccccccscsccscscccscccccccccsccccsccsssscsssccsscscssccsccscccccscc"
           id="path3873-1"
           d="m 288.74327,553.34208 c 0.34876,-0.0324 0.69944,0.10929 1.02557,0.37605 0.14015,0.11462 0.44131,0.2515 0.68372,0.34186 0.48013,0.17898 0.78563,0.57794 0.78627,0.99138 4.3e-4,0.29773 -0.31853,0.80702 -0.61534,0.95721 -0.13737,0.0696 -0.60688,0.13592 -1.19651,0.13674 -0.85563,10e-4 -1.02675,-0.0217 -1.29906,-0.20512 -1.06074,-0.71483 -0.90489,-2.04553 0.27349,-2.49556 0.11652,-0.0445 0.2256,-0.0918 0.34186,-0.1025 z m -7.83729,-1.19117 c 0.6352,13.07878 0.31759,6.53939 0,0 z m 7.83729,1.73804 c -0.10108,0.0138 -0.20841,0.0512 -0.30767,0.1025 -0.54706,0.28289 -0.64264,0.89572 -0.20512,1.33325 0.25986,0.25991 0.28547,0.27348 1.1965,0.27348 0.7414,0 0.96166,-0.0512 1.09395,-0.17093 0.36948,-0.33437 0.12436,-0.87023 -0.41023,-0.88883 -0.26367,-0.009 -0.36998,-0.0815 -0.54697,-0.30767 -0.21289,-0.27199 -0.51708,-0.38315 -0.82046,-0.34186 z m -7.73473,-0.84932 c 0.0578,-0.0192 0.77483,0.59529 1.60673,1.40162 0.83189,0.80633 2.12622,2.17778 2.16889,2.15142 0.0427,-0.0264 0.23363,-0.005 0.41023,0.0684 0.33773,0.14111 0.68317,0.61183 0.68371,0.92301 2.1e-4,0.11181 0.38411,0.55699 0.95721,1.12814 l 0.32667,0.24158 0.54703,0.41018 0.54697,0.58116 c 0.47028,0.47633 0.59791,0.54697 0.88883,0.54697 0.42475,0 0.78627,0.40478 0.78627,0.85464 0,0.24779 0.11035,0.39925 0.68372,0.95721 0.69755,0.6788 0.77357,0.79897 0.58116,0.99138 -0.20575,0.20575 -0.37474,0.11327 -1.02557,-0.58115 -0.57168,-0.60998 -0.70995,-0.72704 -1.02558,-0.75209 -0.4525,-0.0359 -0.75209,-0.34403 -0.75209,-0.78628 0,-0.27507 -0.17163,-0.49152 -1.60673,-1.98277 -0.88374,-0.91835 -1.03828,-0.97803 -1.07876,-0.99368 -0.0405,-0.0155 -0.11558,0.0675 -0.17093,0.17093 -0.10928,0.2042 -0.40766,0.23847 -0.51279,0.0684 -0.038,-0.0614 0.0229,-0.18031 0.17093,-0.30767 l 0.27349,-0.2393 -0.7179,-0.7179 c -0.39515,-0.39747 -0.80274,-0.75892 -0.88883,-0.78627 -0.31488,-0.1 -0.87365,0.13918 -1.05976,0.44441 -0.23499,0.38544 -0.23712,0.6258 0.0341,1.02558 0.239,0.35221 0.22717,0.61534 -0.0341,0.61534 -0.18504,0 -0.37427,-0.20678 -0.58116,-0.61534 -0.19508,-0.38527 -0.18425,-0.69995 0.0341,-1.12814 0.23782,-0.46616 0.57792,-0.7179 0.9572,-0.7179 0.16873,0 0.30767,-0.0374 0.30767,-0.0684 0,-0.031 -1.06344,-1.26282 -1.62191,-1.84375 -0.55847,-0.58092 -0.94659,-1.0405 -0.88883,-1.05976 z m 13.88898,2.52719 c 0.22178,-0.0851 0.44551,0.20159 0.37604,0.4786 -0.0561,0.22374 -0.33307,0.31646 -0.4786,0.17093 -0.12058,-0.12058 -0.0409,-0.59451 0.10251,-0.64953 z m -1.16232,0.51268 c 0.098,-0.002 0.2277,0.079 0.34186,0.20511 0.14025,0.15494 0.12564,0.19536 0.0341,0.34186 -0.1401,0.22396 -0.0376,0.22834 0.41023,0 0.43157,-0.22005 0.53088,-0.22027 0.92302,-0.0341 0.38705,0.18366 0.61113,0.52697 0.64953,0.99139 0.0165,0.20055 0.0384,0.59704 0.0684,0.85464 0.0515,0.44252 0.0312,0.48778 -0.27349,0.82046 l -0.30767,0.34186 -0.99139,0.0341 c -1.09888,0.0259 -1.34533,-0.0532 -1.77766,-0.51279 -0.34145,-0.36303 -0.4386,-1.01213 -0.20511,-1.50417 0.16316,-0.34384 0.77864,-0.78628 1.09394,-0.78628 0.1547,0 0.1409,-0.0152 0,-0.17093 -0.0829,-0.0917 -0.13674,-0.26719 -0.13674,-0.37604 0,-0.12875 0.073,-0.20302 0.17093,-0.20511 z m 2.52975,0 c 0.20429,0 0.24281,0.28584 0.0684,0.4786 -0.19412,0.21454 -0.37068,0.22641 -0.44441,0.0341 -0.0614,-0.15989 0.18769,-0.51279 0.37604,-0.51279 z m -1.29906,0.92296 c -0.058,0.002 -0.1048,0.0365 -0.13674,0.0684 -0.10404,0.10403 0.1424,0.35302 0.41023,0.41023 0.26369,0.0563 0.3464,-0.005 0.2393,-0.20512 -0.0814,-0.15249 -0.339,-0.28127 -0.51279,-0.27348 z m 1.70929,0.27343 c 0.0641,0.0131 0.125,0.0566 0.20512,0.13674 0.113,0.11304 0.11557,0.17536 0.0341,0.27349 -0.10929,0.1316 -0.44042,0.17492 -0.54698,0.0684 -0.11264,-0.11269 -0.0769,-0.35444 0.0684,-0.41023 0.1083,-0.0416 0.17516,-0.0815 0.2393,-0.0684 z m -2.73486,0.0684 c -0.20737,-0.014 -0.44065,0.0977 -0.64953,0.27349 -0.23356,0.19651 -0.27349,0.28727 -0.27349,0.61534 0,0.32808 0.0399,0.41883 0.27349,0.61535 0.26051,0.21916 0.35629,0.2393 1.1965,0.2393 0.78308,0 0.93611,-0.0131 1.09395,-0.17093 0.10031,-0.10032 0.17093,-0.27573 0.17093,-0.37605 0,-0.27144 -0.32981,-0.54697 -0.64953,-0.54697 -0.20145,0 -0.36434,-0.0778 -0.58116,-0.30767 -0.19125,-0.20277 -0.37379,-0.32786 -0.58116,-0.34186 z m -9.36122,0.92296 c 0.25435,0 0.37091,0.31301 0.20511,0.51279 -0.0604,0.0729 -0.16037,0.0926 -0.20511,0.13674 -0.60112,0.5941 -0.44222,-0.045 -0.27349,-0.44441 0.0377,-0.11887 0.13624,-0.20512 0.27349,-0.20512 z m -1.29906,0.0683 c 0.17079,-0.0765 0.3825,0.009 0.41023,0.20511 0.017,0.11968 -0.22926,0.28003 -0.29632,0.32258 -0.28914,0.66351 -0.46302,0.24322 -0.28479,-0.39095 0.0192,-0.0681 0.114,-0.11126 0.17093,-0.13674 z m 0.45571,0.59606 c 0.25708,-0.0367 0.46919,0.31819 0.30768,0.51279 -0.0597,0.072 -0.24784,0.14819 -0.30331,0.2262 -0.59285,0.83381 -0.33081,-0.70989 -0.004,-0.73899 z m 5.37488,2.10663 c -0.0327,0.004 -0.0738,0.0396 -0.10251,0.0684 -0.0514,0.0514 -0.0678,0.11645 -0.0341,0.17093 0.0894,0.14457 0.34186,0.1193 0.34186,-0.0341 0,-0.13364 -0.10688,-0.21796 -0.20512,-0.20512 z m 5.45377,1.69017 c 0.0695,-0.009 0.17739,0.0693 0.2393,0.20512 0.0823,0.18043 0.0557,0.26774 -0.0341,0.37604 -0.22142,0.26681 -0.40279,0.0736 -0.34186,-0.34185 0.0216,-0.1466 0.0673,-0.23039 0.13675,-0.23931 z m -10.70472,0.12877 c 0.30138,-0.0145 0.6066,0.0702 0.88883,0.30768 0.15689,0.13201 0.45494,0.29968 0.68371,0.37604 0.55106,0.18395 0.88599,0.62776 0.82046,1.12813 -0.0744,0.56772 -0.72321,1.1056 -1.02557,0.85464 -0.10415,-0.0864 -0.23388,-0.0109 -0.58116,0.37605 -0.45921,0.51118 -0.60402,0.52076 -0.51279,0.0341 0.0456,-0.24317 0.0519,-0.30767 -0.0684,-0.30767 -0.23426,0 -0.26851,-0.21827 -0.1025,-0.7179 0.16109,-0.485 0.32863,-0.64953 0.7179,-0.64953 0.30789,0 0.39656,0.22287 0.20511,0.54697 -0.14509,0.24569 -0.14146,0.28607 0.0341,0.34186 0.10097,0.0321 0.17092,0.0878 0.17092,0.13674 0,0.0489 0.13219,-0.0308 0.30768,-0.17093 0.55529,-0.44307 0.3782,-1.12813 -0.30768,-1.12813 -0.15739,0 -0.37539,-0.10196 -0.58115,-0.30767 -0.43124,-0.43119 -0.88371,-0.44222 -1.26488,-0.0341 -0.38328,0.4103 -0.35075,0.8354 0.0684,1.23068 0.17549,0.16551 0.30768,0.33705 0.30768,0.41023 0,0.39396 -0.69446,0.0959 -0.95721,-0.41023 -0.51364,-0.98947 0.29237,-1.97328 1.19651,-2.01696 z m 9.47403,0.41815 c 0.18836,0 0.4716,0.31872 0.41023,0.4786 -0.0737,0.1922 -0.28448,0.18032 -0.4786,-0.0341 -0.17443,-0.19274 -0.1359,-0.44441 0.0684,-0.44441 z m 2.49557,0.0341 c 0.0537,-0.0176 0.10086,-10e-4 0.13674,0.0341 0.0572,0.0573 0.0972,0.16404 0.0684,0.23931 -0.0289,0.0753 -0.13548,0.18372 -0.2393,0.2393 -0.15219,0.0814 -0.19346,0.0511 -0.2393,-0.0684 -0.0595,-0.1552 0.11227,-0.39161 0.27349,-0.44441 z m -1.26488,0.41023 c 0.72224,0 1.2602,0.75828 0.99139,1.40162 -0.0735,0.17589 -0.22485,0.36872 -0.34186,0.44442 -0.7149,0.46261 -1.60673,-0.008 -1.60673,-0.85465 0,-0.51778 0.43661,-0.99139 0.9572,-0.99139 z m 0.0684,0.44442 c -0.5253,0 -0.78719,0.64862 -0.41022,1.02557 0.24388,0.24388 0.51498,0.20293 0.78627,-0.0684 0.12301,-0.12307 0.2393,-0.30773 0.2393,-0.41023 0,-0.2619 -0.32632,-0.54697 -0.61535,-0.54697 z m -1.64091,0.27338 c 0.16546,0 0.36707,0.25543 0.30767,0.41023 -0.0734,0.19129 -0.60933,0.19396 -0.68372,0 -0.0587,-0.15314 0.16742,-0.41023 0.37605,-0.41023 z m 3.28183,0.1025 c 0.26511,0 0.43264,0.25362 0.2393,0.37604 -0.07,0.0443 -0.18919,0.0684 -0.2393,0.0684 -0.0501,0 -0.1351,-0.0241 -0.20511,-0.0684 -0.19333,-0.12242 -0.06,-0.37604 0.20511,-0.37604 z m -2.70067,1.09378 c 0.15217,0 0.14769,0.29672 0,0.44441 -0.13538,0.13536 -0.29663,0.12859 -0.37605,0 -0.0723,-0.11707 0.20423,-0.44441 0.37605,-0.44441 z m 2.08533,0 c 0.0903,0 0.21332,0.0424 0.27348,0.1025 0.0602,0.0602 0.13675,0.18324 0.13675,0.27349 0,0.18815 -0.27717,0.23561 -0.44442,0.0684 -0.16725,-0.16724 -0.15397,-0.44442 0.0341,-0.44442 z m -1.05976,0.47844 c 0.17135,-0.033 0.29219,0.2517 0.20511,0.4786 -0.0316,0.0823 -0.0995,0.13674 -0.17093,0.13674 -0.271,0 -0.30373,-0.56338 -0.0341,-0.61534 z"
           style="fill:#2f54df;fill-opacity:1;stroke:none"
           inkscape:connector-curvature="0" />
        <path
           sodipodi:nodetypes="csssc"
           inkscape:connector-curvature="0"
           id="path3907"
           d="m 283.34286,570.5969 c -3.14715,-1.93327 -5.24602,-5.40737 -5.24602,-9.37169 0,-6.07 4.92071,-10.99072 10.9907,-10.99072 6.07001,0 10.99072,4.92072 10.99072,10.99072 0,3.99686 -2.13348,7.49543 -5.32374,9.41899"
           style="fill:none;stroke:#2f54df;stroke-width:0.324;stroke-miterlimit:4;stroke-opacity:1;stroke-dasharray:0.972,0.972;stroke-dashoffset:0" />
        <path
           sodipodi:type="arc"
           style="fill:none;stroke:#2f54df;stroke-width:0.24810211;stroke-miterlimit:4;stroke-opacity:1;stroke-dasharray:none"
           id="path3910"
           sodipodi:cx="-16.953684"
           sodipodi:cy="39.179218"
           sodipodi:rx="13.24677"
           sodipodi:ry="13.24677"
           d="m -3.7069139,39.179218 a 13.24677,13.24677 0 1 1 -26.4935401,0 13.24677,13.24677 0 1 1 26.4935401,0 z"
           transform="matrix(0.90285408,0,0,0.90285408,304.39425,525.8521)" />
        <text
           transform="matrix(1.0212918,0.07863747,-0.07863747,1.0212918,37.94193,-34.758844)"
           sodipodi:linespacing="125%"
           id="text3915"
           style="font-size:6px;font-style:normal;font-variant:normal;font-weight:normal;font-stretch:normal;line-height:125%;letter-spacing:0px;word-spacing:0px;fill:#2f54df;fill-opacity:1;stroke:none;font-family:Browallia New;-inkscape-font-specification:Browallia New"
           xml:space="preserve"><textPath
             id="textPath3924"
             xlink:href="#path3919"><tspan
   id="tspan3917"
   style="font-size:3px;font-style:normal;font-variant:normal;font-weight:normal;font-stretch:normal;fill:#2f54df;fill-opacity:1;font-family:Browallia New;-inkscape-font-specification:Browallia New">   stormy       rain      change      fair       very dry</tspan></textPath></text>
        <path
           transform="matrix(-0.3174308,0.57946843,-0.57946843,-0.3174308,306.40904,583.48602)"
           d="m -3.7069139,39.179218 a 13.24677,13.24677 0 1 1 -26.4935401,0 13.24677,13.24677 0 1 1 26.4935401,0 z"
           sodipodi:ry="13.24677"
           sodipodi:rx="13.24677"
           sodipodi:cy="39.179218"
           sodipodi:cx="-16.953684"
           id="path3919"
           style="fill:none;stroke:none"
           sodipodi:type="arc" />
        <text
           sodipodi:linespacing="125%"
           id="text3931"
           y="559.84351"
           x="299.20605"
           style="font-size:6.56367302px;font-style:normal;font-variant:normal;font-weight:normal;font-stretch:normal;line-height:125%;letter-spacing:0px;word-spacing:0px;fill:#000000;fill-opacity:1;stroke:none;font-family:Lucida Fax;-inkscape-font-specification:Lucida Fax"
           xml:space="preserve"><tspan
             y="559.84351"
             x="299.20605"
             id="tspan3933"
             sodipodi:role="line"> </tspan></text>
      </g>
    </g>
  </g>
</svg>
