<?xml version="1.0" encoding="UTF-8" standalone="no"?>
<!-- Created with Inkscape (http://www.inkscape.org/) -->

<svg
   xmlns:dc="http://purl.org/dc/elements/1.1/"
   xmlns:cc="http://creativecommons.org/ns#"
   xmlns:rdf="http://www.w3.org/1999/02/22-rdf-syntax-ns#"
   xmlns:svg="http://www.w3.org/2000/svg"
   xmlns="http://www.w3.org/2000/svg"
   xmlns:sodipodi="http://sodipodi.sourceforge.net/DTD/sodipodi-0.dtd"
   xmlns:inkscape="http://www.inkscape.org/namespaces/inkscape"
   width="27.263981"
   height="40.324001"
   id="svg2"
   version="1.1"
   inkscape:version="0.48.2 r9819"
   sodipodi:docname="humidity.svg">
  <defs
     id="defs4" />
  <sodipodi:namedview
     id="base"
     pagecolor="#ffffff"
     bordercolor="#666666"
     borderopacity="1.0"
     inkscape:pageopacity="0.0"
     inkscape:pageshadow="2"
     inkscape:zoom="8.5228464"
     inkscape:cx="27.50097"
     inkscape:cy="17.373138"
     inkscape:document-units="px"
     inkscape:current-layer="layer1"
     showgrid="false"
     inkscape:window-width="1280"
     inkscape:window-height="753"
     inkscape:window-x="-4"
     inkscape:window-y="-4"
     inkscape:window-maximized="1"
     fit-margin-top="0"
     fit-margin-left="0"
     fit-margin-right="0"
     fit-margin-bottom="0" />
  <metadata
     id="metadata7">
    <rdf:RDF>
      <cc:Work
         rdf:about="">
        <dc:format>image/svg+xml</dc:format>
        <dc:type
           rdf:resource="http://purl.org/dc/dcmitype/StillImage" />
        <dc:title></dc:title>
      </cc:Work>
    </rdf:RDF>
  </metadata>
  <g
     inkscape:label="Livello 1"
     inkscape:groupmode="layer"
     id="layer1"
     transform="translate(-275.37414,-535.05733)">
    <path
       style="fill:#749bac;fill-opacity:1;stroke:#759baa;stroke-width:1.50721061;stroke-linecap:butt;stroke-linejoin:miter;stroke-opacity:1"
       d="m 293.77411,560.55973 c 0,0 -0.40046,0.97799 -1.57741,3.12186 -0.76817,1.39926 -1.88697,3.02108 -1.56167,4.1027 0.76947,2.55847 5.07974,3.87038 6.26102,-0.0573 0.32391,-1.07696 -0.72155,-2.33098 -1.49104,-3.79204 -1.1874,-2.25458 -1.6309,-3.37522 -1.6309,-3.37522 z"
       id="path3002"
       inkscape:connector-curvature="0"
       sodipodi:nodetypes="cssssc" />
    <g
       id="_x35_4"
       transform="translate(275.37414,535.05733)">
	<path
   id="path2987"
   d="M 11.978,26.869 11.976,4.496 C 11.976,2.014 9.963,0 7.482,0 5,0 2.99,2.014 2.99,4.496 V 26.867 C 1.178,28.234 0,30.396 0,32.841 c 0,4.134 3.35,7.483 7.484,7.483 4.131,0 7.482,-3.35 7.482,-7.483 0.001,-2.445 -1.177,-4.607 -2.988,-5.972 z M 7.484,37.58 c -2.617,0 -4.738,-2.121 -4.738,-4.738 0,-1.992 1.229,-3.695 2.973,-4.396 V 4.637 c 0,-0.977 0.789,-1.768 1.766,-1.768 0.975,0 1.766,0.791 1.766,1.768 V 6.498 H 7.838 c -0.344,0 -0.623,0.279 -0.623,0.624 0,0.344 0.279,0.624 0.623,0.625 H 9.25 v 3.588 H 7.838 c -0.344,0 -0.623,0.28 -0.623,0.624 0,0.344 0.279,0.625 0.623,0.625 H 9.25 v 15.861 c 1.742,0.701 2.972,2.404 2.972,4.396 0,2.618 -2.121,4.739 -4.738,4.739 z"
   style="fill:#83a5b3"
   inkscape:connector-curvature="0" />

	<path
   id="path2989"
   d="m 8.25,29.715 0,-7.986208 c 0,-0.469744 -0.342,-0.851966 -0.766,-0.851966 -0.424,0 -0.768,0.382222 -0.768,0.851966 l 0,7.986208 c -1.412,0.346 -2.461,1.608 -2.461,3.126 0,1.783 1.445,3.229 3.229,3.229 1.785,0 3.227,-1.445 3.227,-3.229 0,-1.518 -1.051,-2.78 -2.461,-3.126 z"
   style="fill:#83a5b3"
   inkscape:connector-curvature="0"
   sodipodi:nodetypes="cssscsssc" />

</g>
    <path
       style="fill:#83a5b3;stroke:#83a5b3;stroke-width:1.69747865;stroke-linecap:butt;stroke-linejoin:miter;stroke-opacity:1"
       d="m 298.29861,560.88574 c 0,0 -0.54446,1.56865 -1.86998,3.98316 -0.86515,1.5759 -2.12518,3.40245 -1.75882,4.62061 0.86661,2.88145 5.721,4.35898 7.05141,-0.0645 0.36479,-1.21291 -0.81264,-2.62524 -1.67927,-4.27074 -1.3373,-2.53919 -1.74334,-4.2685 -1.74334,-4.2685 z"
       id="path3010"
       inkscape:connector-curvature="0"
       sodipodi:nodetypes="cssssc" />
  </g>
</svg>
