<?xml version="1.0" encoding="UTF-8" standalone="no"?>
<svg
   xmlns:dc="http://purl.org/dc/elements/1.1/"
   xmlns:cc="http://creativecommons.org/ns#"
   xmlns:rdf="http://www.w3.org/1999/02/22-rdf-syntax-ns#"
   xmlns:svg="http://www.w3.org/2000/svg"
   xmlns="http://www.w3.org/2000/svg"
   xmlns:xlink="http://www.w3.org/1999/xlink"
   xmlns:sodipodi="http://sodipodi.sourceforge.net/DTD/sodipodi-0.dtd"
   xmlns:inkscape="http://www.inkscape.org/namespaces/inkscape"
   version="1.1"
   id="Layer_1"
   x="0px"
   y="0px"
   viewBox="-146 -462 419.79998 419.79998"
   xml:space="preserve"
   inkscape:version="0.48.2 r9819"
   width="100%"
   height="100%"
   sodipodi:docname="new  11.svg"><metadata
   id="metadata3103"><rdf:RDF><cc:Work
       rdf:about=""><dc:format>image/svg+xml</dc:format><dc:type
         rdf:resource="http://purl.org/dc/dcmitype/StillImage" /></cc:Work></rdf:RDF></metadata><defs
   id="defs3101" /><sodipodi:namedview
   pagecolor="#ffffff"
   bordercolor="#666666"
   borderopacity="1"
   objecttolerance="10"
   gridtolerance="10"
   guidetolerance="10"
   inkscape:pageopacity="0"
   inkscape:pageshadow="2"
   inkscape:window-width="1280"
   inkscape:window-height="753"
   id="namedview3099"
   showgrid="false"
   fit-margin-top="0"
   fit-margin-left="0"
   fit-margin-right="0"
   fit-margin-bottom="0"
   inkscape:zoom="0.52619517"
   inkscape:cx="233.53609"
   inkscape:cy="302.76709"
   inkscape:window-x="-4"
   inkscape:window-y="-4"
   inkscape:window-maximized="1"
   inkscape:current-layer="g3089" />
<style
   type="text/css"
   id="style3046">
	.st0{fill:#FF8C18;}
	.st1{display:none;fill:#615F5C;}
	.st2{display:none;fill:none;stroke:#000000;stroke-width:0.7;}
	.st3{display:none;fill:#FF8C16;}
	.st4{clip-path:url(#SVGID_2_);fill:#FF8C18;}
</style>
<desc
   codePlatform="0"
   iVinci="yes"
   showGrid="no"
   gridStep="20"
   snapToGrid="no"
   version="4.6"
   id="desc3048" />
<g
   id="Layer1"
   transform="translate(-1.46118e-5,0)">
	<g
   id="Shape1">
		
			<desc
   locked="0"
   shadowOffsetX="0"
   pers-center="0,0"
   font-bold="1"
   font-alignment="1"
   markerEnd="0"
   shadowBlur="4"
   blurRadius="4"
   blurEnabled="0"
   markerStart="0"
   bounding="rect(-313.5,-188.5,627,377)"
   strokeStyle="0"
   shadowEnabled="0"
   shadowOpacity="160"
   pers-size="0,0"
   font-underline="0"
   shadowOffsetY="2"
   text="OpenWeatherMap"
   font-pixelSize="66"
   font-familyName="Raanana"
   shapeID="1"
   pers-start="0,0"
   mesh=""
   flag=""
   pers-end="0,0"
   transform="matrix(1,0,0,1,321,239)"
   type="2"
   basicInfo-basicType="0"
   basicInfo-roundedRectRadius="12"
   basicInfo-polygonSides="6"
   basicInfo-starPoints="5"
   id="desc3052">
			</desc>
		
	</g>
</g>
<g
   id="g3055"
   transform="translate(-1.46118e-5,0)">
	<rect
   x="-135"
   y="-439.20001"
   class="st1"
   width="390.70001"
   height="383"
   id="rect3057"
   style="fill:#615f5c;display:none" />
	<rect
   x="-135"
   y="-439.20001"
   class="st2"
   width="390.70001"
   height="383"
   id="rect3059"
   style="fill:none;stroke:#000000;stroke-width:0.69999999;display:none" />
	<path
   class="st3"
   d="m 17,-283.4 c 0,-1.9 0.3,-3.5 0.9,-4.8 0.4,-1 1,-1.8 1.7,-2.6 0.7,-0.8 1.5,-1.3 2.4,-1.7 1.2,-0.5 2.5,-0.7 4,-0.7 2.7,0 4.9,0.9 6.6,2.6 1.6,1.7 2.5,4.1 2.5,7.1 0,3 -0.8,5.4 -2.5,7.1 -1.6,1.7 -3.8,2.5 -6.6,2.5 -2.8,0 -5,-0.8 -6.6,-2.5 -1.6,-1.7 -2.4,-4.1 -2.4,-7 l 0,0 z m 3.9,-0.2 c 0,2.1 0.5,3.7 1.5,4.8 1,1.1 2.2,1.6 3.7,1.6 1.5,0 2.7,-0.5 3.7,-1.6 1,-1.1 1.4,-2.7 1.4,-4.9 0,-2.1 -0.5,-3.7 -1.4,-4.8 -0.9,-1.1 -2.2,-1.6 -3.7,-1.6 -1.5,0 -2.8,0.5 -3.7,1.6 -1,1.2 -1.5,2.8 -1.5,4.9 l 0,0 z m 0,0"
   id="path3061"
   inkscape:connector-curvature="0"
   style="fill:#ff8c16;display:none" />
	<path
   class="st3"
   d="m 39,-287.7 h 3.3 v 2 c 0.4,-0.7 1,-1.2 1.8,-1.7 0.7,-0.4 1.6,-0.6 2.5,-0.6 1.6,0 2.9,0.6 4,1.8 1.1,1.2 1.6,2.9 1.6,5.1 0,2.3 -0.5,4 -1.6,5.3 -1.1,1.2 -2.4,1.9 -4,1.9 -0.7,0 -1.4,-0.1 -2,-0.4 -0.6,-0.3 -1.2,-0.8 -1.9,-1.5 v 6.8 H 39 v -18.7 z m 3.6,6.5 c 0,1.5 0.3,2.6 0.9,3.4 0.6,0.7 1.3,1.1 2.2,1.1 0.8,0 1.5,-0.3 2.1,-1 0.6,-0.7 0.8,-1.8 0.8,-3.3 0,-1.4 -0.3,-2.5 -0.9,-3.1 -0.6,-0.7 -1.3,-1 -2.1,-1 -0.9,0 -1.6,0.3 -2.2,1 -0.5,0.6 -0.8,1.6 -0.8,2.9 l 0,0 z m 0,0"
   id="path3063"
   inkscape:connector-curvature="0"
   style="fill:#ff8c16;display:none" />
	<path
   class="st3"
   d="m 64.2,-278.5 3.6,0.6 c -0.5,1.3 -1.2,2.3 -2.2,3 -1,0.7 -2.2,1 -3.7,1 -2.3,0 -4.1,-0.8 -5.2,-2.3 -0.9,-1.2 -1.3,-2.8 -1.3,-4.6 0,-2.2 0.6,-4 1.7,-5.3 1.2,-1.3 2.6,-1.9 4.4,-1.9 2,0 3.6,0.7 4.7,2 1.2,1.3 1.7,3.4 1.7,6.1 H 59 c 0,1.1 0.3,1.9 0.9,2.5 0.6,0.6 1.2,0.9 2.1,0.9 0.6,0 1,-0.2 1.4,-0.5 0.3,-0.4 0.6,-0.9 0.8,-1.5 l 0,0 z m 0.2,-3.6 c 0,-1 -0.3,-1.8 -0.8,-2.4 -0.5,-0.5 -1.1,-0.8 -1.9,-0.8 -0.8,0 -1.4,0.3 -1.9,0.9 -0.5,0.6 -0.8,1.3 -0.8,2.3 h 5.4 z m 0,0"
   id="path3065"
   inkscape:connector-curvature="0"
   style="fill:#ff8c16;display:none" />
	<path
   class="st3"
   d="m 83.9,-274.2 h -3.6 v -6.9 c 0,-1.5 -0.1,-2.4 -0.2,-2.8 -0.2,-0.4 -0.4,-0.8 -0.7,-1 -0.3,-0.2 -0.8,-0.4 -1.2,-0.4 -0.6,0 -1.2,0.2 -1.7,0.5 -0.5,0.3 -0.8,0.8 -1,1.3 -0.2,0.6 -0.3,1.6 -0.3,3.1 v 6.1 h -3.6 v -13.5 h 3.3 v 2 c 1.2,-1.5 2.7,-2.3 4.4,-2.3 0.8,0 1.5,0.1 2.2,0.4 0.6,0.3 1.1,0.6 1.5,1.1 0.3,0.4 0.6,0.9 0.7,1.5 0.1,0.6 0.2,1.4 0.2,2.4 v 8.5 z m 0,0"
   id="path3067"
   inkscape:connector-curvature="0"
   style="fill:#ff8c16;display:none" />
	<path
   class="st3"
   d="M 20.4,-241.2 16,-259.9 h 3.8 l 2.8,12.8 3.4,-12.8 h 4.5 l 3.3,13 2.9,-13 h 3.8 l -4.5,18.6 h -4 l -3.7,-13.9 -3.7,13.9 h -4.2 z m 0,0"
   id="path3069"
   inkscape:connector-curvature="0"
   style="fill:#ff8c16;display:none" />
	<path
   class="st3"
   d="m 48.8,-245.5 3.6,0.6 c -0.5,1.3 -1.2,2.3 -2.2,3 -1,0.7 -2.2,1 -3.7,1 -2.3,0 -4.1,-0.8 -5.2,-2.3 -0.9,-1.2 -1.3,-2.8 -1.3,-4.6 0,-2.2 0.6,-4 1.8,-5.3 1.2,-1.3 2.6,-1.9 4.4,-1.9 2,0 3.6,0.7 4.7,2 1.2,1.3 1.7,3.4 1.7,6.1 h -8.9 c 0,1.1 0.3,1.9 0.9,2.5 0.6,0.6 1.2,0.9 2.1,0.9 0.6,0 1,-0.2 1.4,-0.5 0.2,-0.4 0.5,-0.9 0.7,-1.5 l 0,0 z m 0.2,-3.6 c 0,-1 -0.3,-1.8 -0.8,-2.4 -0.5,-0.5 -1.1,-0.8 -1.9,-0.8 -0.8,0 -1.4,0.3 -1.9,0.9 -0.5,0.6 -0.8,1.3 -0.8,2.3 H 49 z m 0,0"
   id="path3071"
   inkscape:connector-curvature="0"
   style="fill:#ff8c16;display:none" />
	<path
   class="st3"
   d="m 58.9,-250.6 -3.2,-0.6 c 0.4,-1.3 1,-2.3 1.9,-2.9 0.9,-0.6 2.2,-0.9 4,-0.9 1.6,0 2.8,0.2 3.6,0.6 0.8,0.4 1.3,0.9 1.6,1.4 0.3,0.6 0.5,1.6 0.5,3.2 l 0,4.2 c 0,1.2 0.1,2.1 0.2,2.6 0.1,0.6 0.3,1.2 0.6,1.8 h -3.5 c -0.1,-0.2 -0.2,-0.6 -0.3,-1.1 -0.1,-0.2 -0.1,-0.4 -0.1,-0.4 -0.6,0.6 -1.3,1 -2,1.3 -0.7,0.3 -1.4,0.4 -2.2,0.4 -1.4,0 -2.5,-0.4 -3.3,-1.1 -0.8,-0.8 -1.2,-1.7 -1.2,-2.9 0,-0.8 0.2,-1.4 0.5,-2 0.4,-0.6 0.9,-1.1 1.5,-1.4 0.7,-0.3 1.6,-0.6 2.8,-0.8 1.7,-0.3 2.8,-0.6 3.5,-0.9 v -0.4 c 0,-0.7 -0.2,-1.2 -0.5,-1.5 -0.3,-0.3 -1,-0.4 -1.9,-0.4 -0.6,0 -1.1,0.1 -1.5,0.4 -0.5,0.3 -0.8,0.8 -1,1.4 l 0,0 z m 4.8,2.9 c -0.5,0.2 -1.2,0.3 -2.2,0.5 -1,0.2 -1.6,0.4 -1.9,0.6 -0.5,0.3 -0.7,0.8 -0.7,1.3 0,0.5 0.2,0.9 0.6,1.3 0.4,0.4 0.8,0.5 1.4,0.5 0.6,0 1.3,-0.2 1.8,-0.6 0.4,-0.3 0.7,-0.7 0.9,-1.2 0.1,-0.3 0.1,-0.9 0.1,-1.7 v -0.7 z m 0,0"
   id="path3073"
   inkscape:connector-curvature="0"
   style="fill:#ff8c16;display:none" />
	<path
   class="st3"
   d="m 77.7,-254.7 v 2.8 h -2.4 v 5.4 c 0,1.1 0,1.7 0.1,1.9 0,0.2 0.2,0.3 0.3,0.4 0.2,0.1 0.4,0.2 0.6,0.2 0.3,0 0.8,-0.1 1.4,-0.3 l 0.3,2.8 c -0.8,0.4 -1.8,0.5 -2.8,0.5 -0.6,0 -1.2,-0.1 -1.7,-0.3 -0.5,-0.2 -0.9,-0.5 -1.1,-0.8 -0.2,-0.3 -0.4,-0.8 -0.5,-1.4 -0.1,-0.4 -0.1,-1.3 -0.1,-2.5 v -5.9 h -1.6 v -2.8 h 1.6 v -2.7 l 3.6,-2.1 v 4.8 h 2.3 z m 0,0"
   id="path3075"
   inkscape:connector-curvature="0"
   style="fill:#ff8c16;display:none" />
	<path
   class="st3"
   d="m 85.6,-259.9 v 6.8 c 1.1,-1.3 2.5,-2 4.1,-2 0.8,0 1.6,0.2 2.2,0.5 0.7,0.3 1.2,0.7 1.5,1.2 0.3,0.5 0.6,1 0.7,1.6 0.1,0.6 0.2,1.5 0.2,2.7 v 7.9 h -3.6 v -7.1 c 0,-1.4 -0.1,-2.3 -0.2,-2.7 -0.1,-0.4 -0.4,-0.7 -0.7,-0.9 -0.3,-0.2 -0.8,-0.3 -1.3,-0.3 -0.6,0 -1.1,0.1 -1.6,0.4 -0.5,0.3 -0.8,0.7 -1,1.3 -0.2,0.6 -0.3,1.4 -0.3,2.6 v 6.8 H 82 v -18.6 h 3.6 z m 0,0"
   id="path3077"
   inkscape:connector-curvature="0"
   style="fill:#ff8c16;display:none" />
	<path
   class="st3"
   d="m 107,-245.5 3.6,0.6 c -0.5,1.3 -1.2,2.3 -2.2,3 -1,0.7 -2.2,1 -3.7,1 -2.3,0 -4.1,-0.8 -5.2,-2.3 -0.9,-1.2 -1.3,-2.8 -1.3,-4.6 0,-2.2 0.6,-4 1.8,-5.3 1.2,-1.3 2.6,-1.9 4.4,-1.9 2,0 3.6,0.7 4.7,2 1.2,1.3 1.7,3.4 1.7,6.1 h -8.9 c 0,1.1 0.3,1.9 0.9,2.5 0.5,0.6 1.2,0.9 2.1,0.9 0.6,0 1,-0.2 1.4,-0.5 0.2,-0.4 0.5,-0.9 0.7,-1.5 l 0,0 z m 0.2,-3.6 c 0,-1 -0.3,-1.8 -0.8,-2.4 -0.5,-0.5 -1.1,-0.8 -1.9,-0.8 -0.8,0 -1.4,0.3 -1.9,0.9 -0.5,0.6 -0.8,1.3 -0.8,2.3 h 5.4 z m 0,0"
   id="path3079"
   inkscape:connector-curvature="0"
   style="fill:#ff8c16;display:none" />
	<path
   class="st3"
   d="m 117.8,-241.2 h -3.6 v -13.5 h 3.3 v 1.9 c 0.6,-0.9 1.1,-1.5 1.5,-1.8 0.5,-0.3 1,-0.4 1.5,-0.4 0.8,0 1.6,0.2 2.3,0.7 l -1.1,3.1 c -0.6,-0.4 -1.2,-0.6 -1.7,-0.6 -0.5,0 -0.9,0.1 -1.3,0.4 -0.3,0.3 -0.6,0.8 -0.8,1.5 -0.2,0.7 -0.3,2.2 -0.3,4.5 v 4.2 z m 0,0"
   id="path3081"
   inkscape:connector-curvature="0"
   style="fill:#ff8c16;display:none" />
	<path
   class="st3"
   d="m 17.7,-208.2 v -18.6 h 5.6 l 3.4,12.7 3.3,-12.7 h 5.6 v 18.6 h -3.5 v -14.7 l -3.7,14.7 h -3.6 l -3.7,-14.7 v 14.7 h -3.4 z m 0,0"
   id="path3083"
   inkscape:connector-curvature="0"
   style="fill:#ff8c16;display:none" />
	<path
   class="st3"
   d="m 44,-217.6 -3.2,-0.6 c 0.4,-1.3 1,-2.3 1.9,-2.9 0.9,-0.6 2.2,-0.9 4,-0.9 1.6,0 2.8,0.2 3.6,0.6 0.8,0.4 1.3,0.9 1.6,1.4 0.3,0.6 0.5,1.6 0.5,3.2 l 0,4.2 c 0,1.2 0.1,2.1 0.2,2.6 0.1,0.6 0.3,1.2 0.6,1.8 h -3.5 c -0.1,-0.2 -0.2,-0.6 -0.3,-1.1 -0.1,-0.2 -0.1,-0.4 -0.1,-0.4 -0.6,0.6 -1.3,1 -2,1.3 -0.7,0.3 -1.4,0.4 -2.2,0.4 -1.4,0 -2.5,-0.4 -3.3,-1.1 -0.8,-0.8 -1.2,-1.7 -1.2,-2.9 0,-0.8 0.2,-1.4 0.5,-2 0.4,-0.6 0.9,-1.1 1.5,-1.4 0.7,-0.3 1.6,-0.6 2.8,-0.8 1.7,-0.3 2.8,-0.6 3.5,-0.9 v -0.4 c 0,-0.7 -0.2,-1.2 -0.5,-1.5 -0.3,-0.3 -1,-0.4 -1.9,-0.4 -0.6,0 -1.1,0.1 -1.5,0.4 -0.5,0.3 -0.7,0.8 -1,1.4 l 0,0 z m 4.8,2.9 c -0.5,0.2 -1.2,0.3 -2.2,0.5 -1,0.2 -1.6,0.4 -1.9,0.6 -0.5,0.3 -0.7,0.8 -0.7,1.3 0,0.5 0.2,0.9 0.6,1.3 0.4,0.4 0.8,0.5 1.4,0.5 0.6,0 1.3,-0.2 1.8,-0.6 0.4,-0.3 0.7,-0.7 0.9,-1.2 0.1,-0.3 0.1,-0.9 0.1,-1.7 v -0.7 z m 0,0"
   id="path3085"
   inkscape:connector-curvature="0"
   style="fill:#ff8c16;display:none" />
	<path
   class="st3"
   d="m 56.5,-221.7 h 3.3 v 2 c 0.4,-0.7 1,-1.2 1.8,-1.6 0.7,-0.4 1.6,-0.6 2.5,-0.6 1.6,0 2.9,0.6 4,1.8 1.1,1.2 1.6,2.9 1.6,5.1 0,2.3 -0.6,4 -1.7,5.3 -1.1,1.3 -2.4,1.9 -4,1.9 -0.7,0 -1.4,-0.1 -2,-0.4 -0.6,-0.3 -1.2,-0.8 -1.9,-1.5 v 6.8 h -3.6 v -18.8 z m 3.6,6.5 c 0,1.5 0.3,2.6 0.9,3.4 0.6,0.7 1.3,1.1 2.2,1.1 0.8,0 1.5,-0.3 2.1,-1 0.5,-0.7 0.8,-1.8 0.8,-3.3 0,-1.4 -0.3,-2.5 -0.9,-3.1 -0.6,-0.7 -1.3,-1 -2.1,-1 -0.9,0 -1.6,0.3 -2.2,1 -0.6,0.6 -0.8,1.6 -0.8,2.9 l 0,0 z m 0,0"
   id="path3087"
   inkscape:connector-curvature="0"
   style="fill:#ff8c16;display:none" />
	<g
   id="g3089">
		<defs
   id="defs3091">
			<rect
   id="SVGID_1_"
   x="-146"
   y="-462"
   width="419.79999"
   height="419.79999" />
		</defs>
		<clipPath
   id="SVGID_2_">
			<use
   xlink:href="#SVGID_1_"
   style="overflow:visible"
   id="use3095"
   x="0"
   y="0"
   width="4363.3999"
   height="419.79999" />
		</clipPath>
		<path
   class="st4"
   d="m -146,-462.2 h 420 v 420 h -420 v -420 z m 248.3,314.5 c -11.9,4.4 -24.8,6.8 -38.3,6.8 -13.5,0 -26.4,-2.4 -38.3,-6.8 l 38.3,77.6 38.3,-77.6 z m -139.2,-57.7 -27.8,82 82,-27.8 c -23.9,-11.1 -43.2,-30.4 -54.2,-54.2 l 0,0 z m 201.8,0 c -11.1,23.9 -30.3,43.1 -54.2,54.2 l 82,27.8 -27.8,-82 z M 64,-336.1 c -48.7,0 -88.1,37.6 -88.1,83.9 0,46.3 39.4,83.9 88.1,83.9 48.6,0 88.1,-37.6 88.1,-83.9 0,-46.3 -39.5,-83.9 -88.1,-83.9 l 0,0 z m -104.5,45.6 -77.6,38.3 77.6,38.3 c -4.4,-11.9 -6.8,-24.8 -6.8,-38.3 0,-13.4 2.4,-26.3 6.8,-38.3 l 0,0 z m 209,0 c 4.4,11.9 6.8,24.8 6.8,38.3 0,13.5 -2.4,26.4 -6.8,38.3 l 77.6,-38.3 -77.6,-38.3 0,0 z M -64.8,-381 -37,-299 c 11.1,-23.8 30.3,-43.1 54.2,-54.2 l -82,-27.8 z m 257.6,0 -82,27.8 c 23.9,11.1 43.1,30.3 54.2,54.2 l 27.8,-82 z M 64,-434.3 25.7,-356.7 c 11.9,-4.4 24.8,-6.8 38.3,-6.8 13.5,0 26.4,2.4 38.3,6.8 L 64,-434.3 z m 0,0"
   id="path3097"
   clip-path="url(#SVGID_2_)"
   inkscape:connector-curvature="0"
   style="fill:#ff8c18" />
	</g>
</g>
</svg>
