<?xml version="1.0" encoding="UTF-8" standalone="no"?>
<!-- Created with Inkscape (http://www.inkscape.org/) -->

<svg
   xmlns:dc="http://purl.org/dc/elements/1.1/"
   xmlns:cc="http://creativecommons.org/ns#"
   xmlns:rdf="http://www.w3.org/1999/02/22-rdf-syntax-ns#"
   xmlns:svg="http://www.w3.org/2000/svg"
   xmlns="http://www.w3.org/2000/svg"
   xmlns:sodipodi="http://sodipodi.sourceforge.net/DTD/sodipodi-0.dtd"
   xmlns:inkscape="http://www.inkscape.org/namespaces/inkscape"
   width="51"
   height="51"
   id="svg2"
   version="1.1"
   inkscape:version="0.48.2 r9819"
   sodipodi:docname="sw-12.svg">
  <defs
     id="defs4" />
  <sodipodi:namedview
     id="base"
     pagecolor="#ffffff"
     bordercolor="#666666"
     borderopacity="1.0"
     inkscape:pageopacity="0.0"
     inkscape:pageshadow="2"
     inkscape:zoom="4.9353498"
     inkscape:cx="54.875323"
     inkscape:cy="42.669652"
     inkscape:document-units="px"
     inkscape:current-layer="g4100"
     showgrid="false"
     inkscape:window-width="1280"
     inkscape:window-height="753"
     inkscape:window-x="-4"
     inkscape:window-y="-4"
     inkscape:window-maximized="1"
     inkscape:snap-center="true"
     inkscape:snap-page="false"
     inkscape:snap-global="true"
     inkscape:snap-object-midpoints="true"
     showguides="true"
     inkscape:guide-bbox="true" />
  <metadata
     id="metadata7">
    <rdf:RDF>
      <cc:Work
         rdf:about="">
        <dc:format>image/svg+xml</dc:format>
        <dc:type
           rdf:resource="http://purl.org/dc/dcmitype/StillImage" />
        <dc:title></dc:title>
      </cc:Work>
    </rdf:RDF>
  </metadata>
  <g
     inkscape:label="Livello 1"
     inkscape:groupmode="layer"
     id="layer1"
     transform="translate(0,-1001.3622)" />
  <g
     id="g4023"
     transform="matrix(0.86598019,0,0,0.86598019,3.4298369,3.4175052)">
    <g
       id="g4100"
       transform="translate(-2.3095217,0)">
      <path
         inkscape:connector-curvature="0"
         style="fill:none;stroke:#2f54df;stroke-width:2.03989625;stroke-linecap:round;stroke-linejoin:round;stroke-miterlimit:4;stroke-opacity:1;stroke-dasharray:none;stroke-dashoffset:0"
         d="m 36.52816,1.6469715 c -5.769122,1.293679 -10.068071,6.398524 -10.068071,12.5580245 0,1.257757 0.169984,2.495175 0.505208,3.644713 0.148468,0.195069 0.32601,0.369878 0.469122,0.57738 7.665532,-2.531017 10.387913,1.646067 11.655867,5.882063 2.523945,-0.05962 4.484202,0.547235 5.918149,1.515624 0.0095,-0.0046 0.02658,0.0046 0.03609,0 2.626439,-1.290697 4.776571,-3.447019 6.026408,-6.098581 -1.158484,0.355651 -2.405738,0.541294 -3.6808,0.541294 -6.885609,0 -12.485852,-5.564155 -12.485852,-12.4497643 0,-2.239102 0.590472,-4.3544901 1.623882,-6.1707532 z"
         id="path3981" />
      <path
         sodipodi:nodetypes="cscccsc"
         inkscape:connector-curvature="0"
         id="path4062"
         d="m 38.130929,37.59695 5.7664,-0.05976 C 50.086534,37.473055 50.645065,24.043419 39.107032,24.315976 37.839078,20.07998 35.084242,15.891485 27.41871,18.422502 21.240662,9.4647848 9.8953004,12.122157 8.6679834,23.760398 1.4133414,24.831547 0.83744935,37.983411 6.9162414,37.920419 l 6.2813356,-0.06509"
         style="fill:none;stroke:#3139ae;stroke-width:3.46428251;stroke-linecap:butt;stroke-linejoin:miter;stroke-miterlimit:4;stroke-opacity:1;stroke-dasharray:none" />
      <g
         id="g4210"
         transform="matrix(0.80472754,0,0,0.80472754,5.0432839,7.8558826)">
        <path
           inkscape:transform-center-y="-29.648581"
           inkscape:transform-center-x="-23.19337"
           style="fill:none;stroke:#2f54df;stroke-width:3.12785864;stroke-linecap:round;stroke-linejoin:miter;stroke-miterlimit:4;stroke-opacity:1;stroke-dasharray:none"
           d="m 18.52405,35.601557 -2.372804,3.344656 -2.159345,3.043764 0,0"
           id="path4006-1"
           inkscape:connector-curvature="0"
           sodipodi:nodetypes="cccc" />
        <path
           sodipodi:nodetypes="cccc"
           inkscape:connector-curvature="0"
           id="path4200"
           d="m 27.08525,35.601557 -2.372804,3.344656 -2.159345,3.043764 0,0"
           style="fill:none;stroke:#2f54df;stroke-width:3.12785864;stroke-linecap:round;stroke-linejoin:miter;stroke-miterlimit:4;stroke-opacity:1;stroke-dasharray:none"
           inkscape:transform-center-x="-23.19337"
           inkscape:transform-center-y="-29.648581" />
        <path
           inkscape:transform-center-y="-29.648581"
           inkscape:transform-center-x="-23.19337"
           style="fill:none;stroke:#2f54df;stroke-width:3.12785864;stroke-linecap:round;stroke-linejoin:miter;stroke-miterlimit:4;stroke-opacity:1;stroke-dasharray:none"
           d="m 35.64645,35.601557 -2.372804,3.344656 -2.159345,3.043764 0,0"
           id="path4202"
           inkscape:connector-curvature="0"
           sodipodi:nodetypes="cccc" />
        <path
           inkscape:transform-center-y="-29.648581"
           inkscape:transform-center-x="-23.19337"
           style="fill:none;stroke:#2f54df;stroke-width:3.12785864;stroke-linecap:round;stroke-linejoin:miter;stroke-miterlimit:4;stroke-opacity:1;stroke-dasharray:none"
           d="m 17.51685,44.918157 -2.372804,3.344656 -2.159345,3.043764 0,0"
           id="path4206"
           inkscape:connector-curvature="0"
           sodipodi:nodetypes="cccc" />
        <path
           sodipodi:nodetypes="cccc"
           inkscape:connector-curvature="0"
           id="path4208"
           d="m 26.07805,44.918157 -2.372804,3.344656 -2.159345,3.043764 0,0"
           style="fill:none;stroke:#2f54df;stroke-width:3.12785864;stroke-linecap:round;stroke-linejoin:miter;stroke-miterlimit:4;stroke-opacity:1;stroke-dasharray:none"
           inkscape:transform-center-x="-23.19337"
           inkscape:transform-center-y="-29.648581" />
      </g>
    </g>
  </g>
</svg>
