<?xml version="1.0" encoding="UTF-8" standalone="no"?>
<!-- Created with Inkscape (http://www.inkscape.org/) -->

<svg
   xmlns:dc="http://purl.org/dc/elements/1.1/"
   xmlns:cc="http://creativecommons.org/ns#"
   xmlns:rdf="http://www.w3.org/1999/02/22-rdf-syntax-ns#"
   xmlns:svg="http://www.w3.org/2000/svg"
   xmlns="http://www.w3.org/2000/svg"
   xmlns:sodipodi="http://sodipodi.sourceforge.net/DTD/sodipodi-0.dtd"
   xmlns:inkscape="http://www.inkscape.org/namespaces/inkscape"
   width="51"
   height="51"
   id="svg2"
   version="1.1"
   inkscape:version="0.48.2 r9819"
   sodipodi:docname="sw-10.svg">
  <defs
     id="defs4" />
  <sodipodi:namedview
     id="base"
     pagecolor="#ffffff"
     bordercolor="#666666"
     borderopacity="1.0"
     inkscape:pageopacity="0.0"
     inkscape:pageshadow="2"
     inkscape:zoom="6.0265625"
     inkscape:cx="20.966792"
     inkscape:cy="40.55697"
     inkscape:document-units="px"
     inkscape:current-layer="g4100"
     showgrid="false"
     inkscape:window-width="1280"
     inkscape:window-height="753"
     inkscape:window-x="-4"
     inkscape:window-y="-4"
     inkscape:window-maximized="1"
     inkscape:snap-center="true"
     inkscape:snap-page="false"
     inkscape:snap-global="true"
     inkscape:snap-object-midpoints="true" />
  <metadata
     id="metadata7">
    <rdf:RDF>
      <cc:Work
         rdf:about="">
        <dc:format>image/svg+xml</dc:format>
        <dc:type
           rdf:resource="http://purl.org/dc/dcmitype/StillImage" />
        <dc:title></dc:title>
      </cc:Work>
    </rdf:RDF>
  </metadata>
  <g
     inkscape:label="Livello 1"
     inkscape:groupmode="layer"
     id="layer1"
     transform="translate(0,-1001.3622)" />
  <g
     id="g4023"
     transform="matrix(0.86598019,0,0,0.86598019,3.4298369,3.4175052)">
    <g
       id="g4100">
      <path
         inkscape:connector-curvature="0"
         id="path4131"
         d="m 7.1107097,23.583881 c 0,0 5.5471683,-2.35917 8.4730583,-2.299342 2.544694,0.05203 4.736052,2.287465 7.281251,2.299342 2.404259,0.01122 4.49376,-2.117306 6.898026,-2.10773 2.343259,0.0093 4.363159,2.11756 6.706415,2.10773 2.282406,-0.0096 4.233551,-2.180898 6.514804,-2.10773 1.90738,0.06118 5.322974,2.10773 5.322974,2.10773"
         style="fill:none;stroke:#9d0000;stroke-width:3.22890997;stroke-linecap:round;stroke-linejoin:miter;stroke-miterlimit:4;stroke-opacity:1;stroke-dasharray:none"
         sodipodi:nodetypes="csssssc" />
      <path
         sodipodi:nodetypes="csssssc"
         style="fill:none;stroke:#2f54df;stroke-width:3.22890997000000010;stroke-linecap:round;stroke-linejoin:miter;stroke-miterlimit:4;stroke-opacity:1;stroke-dasharray:none"
         d="m 2.3204133,16.877466 c 0,0 5.5471683,-2.35917 8.4730587,-2.299342 2.544694,0.05203 4.736052,2.287465 7.281251,2.299342 2.404259,0.01122 4.49376,-2.117306 6.898026,-2.10773 2.343259,0.0093 4.363159,2.11756 6.706415,2.10773 2.282406,-0.0096 4.233551,-2.180898 6.514804,-2.10773 1.90738,0.06118 5.322974,2.10773 5.322974,2.10773"
         id="path4137"
         inkscape:connector-curvature="0" />
      <path
         sodipodi:nodetypes="csssssc"
         style="fill:none;stroke:#9d0000;stroke-width:3.22890997;stroke-linecap:round;stroke-linejoin:miter;stroke-miterlimit:4;stroke-opacity:1;stroke-dasharray:none"
         d="m 7.1107097,36.805099 c 0,0 5.5471683,-2.35917 8.4730583,-2.299342 2.544694,0.05203 4.736052,2.287465 7.281251,2.299342 2.404259,0.01122 4.49376,-2.117306 6.898026,-2.10773 2.343259,0.0093 4.363159,2.11756 6.706415,2.10773 2.282406,-0.0096 4.233551,-2.180898 6.514804,-2.10773 1.90738,0.06118 5.322974,2.10773 5.322974,2.10773"
         id="path4139"
         inkscape:connector-curvature="0" />
      <path
         inkscape:connector-curvature="0"
         id="path4141"
         d="m 2.3204133,30.098684 c 0,0 5.5471683,-2.35917 8.4730587,-2.299342 2.544694,0.05203 4.736052,2.287465 7.281251,2.299342 2.404259,0.01122 4.49376,-2.117306 6.898026,-2.10773 2.343259,0.0093 4.363159,2.11756 6.706415,2.10773 2.282406,-0.0096 4.233551,-2.180898 6.514804,-2.10773 1.90738,0.06118 5.322974,2.10773 5.322974,2.10773"
         style="fill:none;stroke:#2f54df;stroke-width:3.22890997000000010;stroke-linecap:round;stroke-linejoin:miter;stroke-miterlimit:4;stroke-opacity:1;stroke-dasharray:none"
         sodipodi:nodetypes="csssssc" />
    </g>
  </g>
</svg>
