<?xml version="1.0" encoding="UTF-8" standalone="no"?>
<!-- Created with Inkscape (http://www.inkscape.org/) -->

<svg
   xmlns:dc="http://purl.org/dc/elements/1.1/"
   xmlns:cc="http://creativecommons.org/ns#"
   xmlns:rdf="http://www.w3.org/1999/02/22-rdf-syntax-ns#"
   xmlns:svg="http://www.w3.org/2000/svg"
   xmlns="http://www.w3.org/2000/svg"
   xmlns:sodipodi="http://sodipodi.sourceforge.net/DTD/sodipodi-0.dtd"
   xmlns:inkscape="http://www.inkscape.org/namespaces/inkscape"
   width="51"
   height="51"
   id="svg2"
   version="1.1"
   inkscape:version="0.48.2 r9819"
   sodipodi:docname="sw-19.svg">
  <defs
     id="defs4" />
  <sodipodi:namedview
     id="base"
     pagecolor="#ffffff"
     bordercolor="#666666"
     borderopacity="1.0"
     inkscape:pageopacity="0.0"
     inkscape:pageshadow="2"
     inkscape:zoom="4"
     inkscape:cx="-1.3394754"
     inkscape:cy="38.199038"
     inkscape:document-units="px"
     inkscape:current-layer="g4100"
     showgrid="false"
     inkscape:window-width="1280"
     inkscape:window-height="753"
     inkscape:window-x="-4"
     inkscape:window-y="-4"
     inkscape:window-maximized="1"
     inkscape:snap-center="true"
     inkscape:snap-page="false"
     inkscape:snap-global="false"
     inkscape:snap-object-midpoints="true"
     showguides="true"
     inkscape:guide-bbox="true"
     inkscape:snap-bbox="true"
     inkscape:object-paths="true"
     inkscape:snap-intersection-paths="true" />
  <metadata
     id="metadata7">
    <rdf:RDF>
      <cc:Work
         rdf:about="">
        <dc:format>image/svg+xml</dc:format>
        <dc:type
           rdf:resource="http://purl.org/dc/dcmitype/StillImage" />
        <dc:title></dc:title>
      </cc:Work>
    </rdf:RDF>
  </metadata>
  <g
     inkscape:label="Livello 1"
     inkscape:groupmode="layer"
     id="layer1"
     transform="translate(0,-1001.3622)" />
  <g
     id="g4023"
     transform="matrix(0.86598019,0,0,0.86598019,3.4298369,3.4175052)">
    <g
       id="g4100"
       transform="translate(-2.3095217,0)">
      <path
         sodipodi:nodetypes="cscccsc"
         inkscape:connector-curvature="0"
         id="path4062"
         d="m 40.440451,37.59695 5.7664,-0.05976 C 52.396056,37.473055 52.954587,24.043419 41.416554,24.315976 40.1486,20.07998 37.393764,15.891485 29.728232,18.422502 23.550184,9.4647848 12.204822,12.122157 10.977505,23.760398 3.7228631,24.831547 3.146971,37.983411 9.2257631,37.920419 l 6.2813359,-0.06509"
         style="fill:none;stroke:#3139ae;stroke-width:3.46428251;stroke-linecap:butt;stroke-linejoin:miter;stroke-miterlimit:4;stroke-opacity:1;stroke-dasharray:none" />
      <g
         id="g4210"
         transform="matrix(0.80472754,0,0,0.80472754,7.3528056,7.8558826)">
        <path
           style="fill:#2f54df;fill-opacity:1;fill-rule:nonzero;stroke:none"
           d="m 15.260525,41.62977 0,-0.49193 -0.446083,0.443465 c -0.335718,0.333751 -0.470861,0.433959 -0.546235,0.405034 -0.08233,-0.0316 -0.0029,-0.136031 0.446082,-0.586726 l 0.546236,-0.548294 0,-0.419659 0,-0.41966 -0.272593,0.268494 c -0.221451,0.218121 -0.284564,0.254069 -0.336402,0.191607 -0.05034,-0.06065 0.0072,-0.147145 0.272593,-0.409777 l 0.336402,-0.332892 0,-0.382273 c 0,-0.21025 -0.01903,-0.381286 -0.04227,-0.380079 -0.02326,0.0012 -0.181387,0.0852 -0.351409,0.186648 -0.327553,0.195446 -0.310926,0.165131 -0.507087,0.924497 -0.03728,0.144339 -0.09464,0.23958 -0.144275,0.23958 -0.10343,0 -0.102906,-0.04545 0.0053,-0.463165 0.04824,-0.186181 0.07995,-0.345342 0.07047,-0.353692 -0.0095,-0.0084 -0.169456,0.07729 -0.355483,0.190313 l -0.338229,0.205495 -0.164072,0.647405 c -0.09024,0.356073 -0.171588,0.656881 -0.180777,0.668463 -0.0092,0.01159 -0.05357,0.0069 -0.09863,-0.01038 -0.06946,-0.02665 -0.06084,-0.114491 0.05669,-0.577326 0.07624,-0.300238 0.131037,-0.553386 0.121773,-0.562549 -0.0093,-0.0092 -0.181731,0.08165 -0.383259,0.201813 -0.201529,0.120162 -0.392655,0.219435 -0.424726,0.220608 -0.03207,0.0012 -0.102121,-0.07203 -0.155667,-0.162679 l -0.09736,-0.16481 0.428152,-0.236346 c 0.235484,-0.129989 0.407003,-0.254863 0.381154,-0.277497 -0.02585,-0.02264 -0.275304,-0.09974 -0.554345,-0.171343 -0.611031,-0.156797 -0.656388,-0.177401 -0.598106,-0.271704 0.03564,-0.05766 0.194829,-0.03392 0.761448,0.113553 l 0.716393,0.186453 0.304962,-0.169115 c 0.16773,-0.09301 0.312248,-0.193325 0.321151,-0.222917 0.0089,-0.02959 -0.129674,-0.0894 -0.307949,-0.132912 -0.286686,-0.06997 -0.387194,-0.154225 -0.294523,-0.246898 0.01629,-0.01629 0.199653,0.01754 0.407475,0.07516 0.505468,0.140162 0.584738,0.134029 0.917986,-0.07102 0.319059,-0.196318 0.325382,-0.178752 -0.16113,-0.447641 l -0.243533,-0.134597 -0.485821,0.125589 c -0.373924,0.09666 -0.495675,0.109646 -0.528602,0.05637 -0.05632,-0.09113 0.02978,-0.139894 0.39072,-0.221278 0.164189,-0.03703 0.308841,-0.08401 0.321451,-0.104406 0.01261,-0.02041 -0.137699,-0.122916 -0.334017,-0.227806 l -0.356944,-0.190712 -0.638669,0.179315 c -0.480415,0.134883 -0.649134,0.162385 -0.680899,0.110987 -0.06169,-0.09981 -0.01323,-0.12463 0.530887,-0.271856 0.271288,-0.07341 0.493251,-0.151119 0.493251,-0.172697 0,-0.02157 -0.145861,-0.121217 -0.324136,-0.221423 -0.510953,-0.2872 -0.499152,-0.259564 -0.25951,-0.607719 0.0078,-0.01134 0.196551,0.08452 0.419433,0.213019 0.222882,0.128501 0.418171,0.220708 0.433974,0.204904 0.0158,-0.0158 -0.04052,-0.286442 -0.125162,-0.60142 -0.122864,-0.457212 -0.139079,-0.581845 -0.08041,-0.618101 0.04041,-0.02497 0.08227,-0.03662 0.093,-0.02589 0.01074,0.01074 0.105554,0.342316 0.210701,0.736838 0.105148,0.394521 0.198565,0.723686 0.207595,0.731477 0.04781,0.04125 0.65067,0.366295 0.679364,0.366295 0.01856,0 -0.01341,-0.164886 -0.07104,-0.366416 -0.100957,-0.353026 -0.101048,-0.366415 -0.0025,-0.366415 0.07973,0 0.128291,0.09563 0.220132,0.433492 0.130257,0.479187 0.146053,0.500684 0.529283,0.720313 l 0.267765,0.153456 0,-0.415679 0,-0.415681 -0.364527,-0.361286 c -0.287922,-0.285364 -0.351114,-0.377449 -0.300701,-0.438192 0.05178,-0.06239 0.120585,-0.02086 0.364527,0.22006 l 0.300701,0.296966 0,-0.419747 0,-0.419746 -0.489781,-0.492061 c -0.403794,-0.405674 -0.472235,-0.498793 -0.389842,-0.53041 0.07453,-0.0286 0.199071,0.06002 0.489781,0.348504 l 0.389842,0.386855 0,-0.491741 0,-0.49174 0.225487,0 0.225487,0 0,0.520194 0,0.520193 0.469537,-0.467099 c 0.379032,-0.377062 0.481849,-0.452263 0.533413,-0.390134 0.05067,0.06105 -0.04644,0.186815 -0.469538,0.60816 l -0.533412,0.531194 0,0.421782 0,0.42178 0.281506,-0.277272 c 0.221114,-0.217791 0.296222,-0.262557 0.350102,-0.208677 0.05388,0.05388 -0.0065,0.144376 -0.281507,0.421838 l -0.350101,0.353242 0,0.384349 0,0.384348 0.267765,-0.154109 c 0.409363,-0.235605 0.447688,-0.285613 0.552115,-0.720437 0.120677,-0.502484 0.146439,-0.553821 0.246804,-0.491792 0.06649,0.0411 0.06353,0.102103 -0.01924,0.397104 -0.05379,0.191703 -0.08873,0.357617 -0.07765,0.368696 0.01108,0.01108 0.175428,-0.06737 0.36522,-0.174321 l 0.345073,-0.194465 0.158076,-0.648128 c 0.128531,-0.526994 0.176977,-0.648128 0.259205,-0.648128 0.05562,0 0.100621,0.0063 0.1,0.0141 -6.2e-4,0.0078 -0.06277,0.254235 -0.138116,0.54774 -0.07534,0.293506 -0.129066,0.541567 -0.119384,0.551249 0.0097,0.0097 0.199961,-0.08753 0.422843,-0.216035 0.222882,-0.128501 0.411628,-0.224361 0.419433,-0.21302 0.2181,0.316858 0.218506,0.324443 0.02367,0.443009 -0.101489,0.06175 -0.292336,0.169514 -0.424105,0.239456 -0.131768,0.06994 -0.23958,0.142347 -0.23958,0.160902 0,0.01856 0.272699,0.105019 0.605996,0.192142 0.333298,0.08713 0.612935,0.163483 0.621416,0.169686 0.0085,0.0062 5.07e-4,0.05007 -0.01766,0.09749 -0.0285,0.07426 -0.134312,0.0593 -0.763434,-0.107892 l -0.730353,-0.194102 -0.337139,0.185343 c -0.185428,0.10194 -0.337141,0.203037 -0.337141,0.224662 0,0.02163 0.142086,0.07112 0.315746,0.109977 0.282429,0.06321 0.428166,0.170622 0.344712,0.254076 -0.01646,0.01646 -0.237491,-0.02608 -0.491178,-0.09453 l -0.461248,-0.124459 -0.234525,0.129535 c -0.481579,0.26599 -0.477134,0.24446 -0.09802,0.474759 l 0.340998,0.207145 0.503409,-0.137584 c 0.484657,-0.132459 0.504441,-0.133643 0.531082,-0.03177 0.01524,0.05827 -0.0016,0.106165 -0.03751,0.106586 -0.03585,4.23e-4 -0.21739,0.04634 -0.403417,0.102051 l -0.33823,0.101284 0.370675,0.207347 0.370677,0.207346 0.655093,-0.188789 c 0.557417,-0.160642 0.659943,-0.176153 0.68762,-0.104029 0.01789,0.04662 0.02559,0.09071 0.01711,0.09799 -0.0085,0.0073 -0.256408,0.08196 -0.550951,0.165979 -0.294542,0.08402 -0.543451,0.160568 -0.553134,0.170122 -0.0097,0.0096 0.174522,0.123423 0.40934,0.253046 l 0.426942,0.235676 -0.09736,0.164811 c -0.05354,0.09065 -0.123595,0.163852 -0.155666,0.162678 -0.03207,-0.0012 -0.223198,-0.100657 -0.424726,-0.221078 -0.201529,-0.12042 -0.374502,-0.196675 -0.384382,-0.169455 -0.0099,0.02722 0.04719,0.288677 0.126836,0.581014 0.168069,0.616928 0.172009,0.657226 0.06424,0.657226 -0.07668,0 -0.150388,-0.19915 -0.31296,-0.845574 -0.146691,-0.583279 -0.164351,-0.611261 -0.515765,-0.817219 -0.185313,-0.108609 -0.345851,-0.197472 -0.356748,-0.197472 -0.0109,0 0.0174,0.142503 0.06288,0.316672 0.08159,0.312454 0.07192,0.472532 -0.02856,0.472532 -0.0283,0 -0.08118,-0.120495 -0.117509,-0.267766 -0.172214,-0.698034 -0.156805,-0.670757 -0.482854,-0.854768 -0.169585,-0.09571 -0.321405,-0.174015 -0.337377,-0.174015 -0.01597,0 -0.02904,0.188678 -0.02904,0.419283 l 0,0.419283 0.363622,0.325233 c 0.279227,0.24975 0.349447,0.342312 0.302553,0.398815 -0.04821,0.0581 -0.121794,0.01707 -0.349527,-0.194893 l -0.288462,-0.268473 -0.0169,0.390667 -0.0169,0.390666 0.494064,0.496363 c 0.390342,0.39216 0.479542,0.510887 0.424888,0.56554 -0.05465,0.05465 -0.157786,-0.01884 -0.491257,-0.350087 l -0.422081,-0.419265 0,0.491842 0,0.49184 -0.225487,0 -0.225487,0 0,-0.491929 z"
           id="path4649"
           inkscape:connector-curvature="0" />
        <path
           inkscape:connector-curvature="0"
           id="path4651"
           d="m 26.207335,38.735028 0,-0.49193 -0.446083,0.443465 c -0.335718,0.333751 -0.470861,0.433959 -0.546235,0.405034 -0.08233,-0.0316 -0.0029,-0.136031 0.446082,-0.586726 l 0.546236,-0.548294 0,-0.419659 0,-0.41966 -0.272593,0.268494 c -0.221451,0.218121 -0.284564,0.254069 -0.336402,0.191607 -0.05034,-0.06065 0.0072,-0.147145 0.272593,-0.409777 l 0.336402,-0.332892 0,-0.382273 c 0,-0.21025 -0.01903,-0.381286 -0.04227,-0.380079 -0.02326,0.0012 -0.181387,0.0852 -0.351409,0.186648 -0.327553,0.195446 -0.310926,0.165131 -0.507087,0.924497 -0.03728,0.144339 -0.09464,0.23958 -0.144275,0.23958 -0.10343,0 -0.102906,-0.04545 0.0053,-0.463165 0.04824,-0.186181 0.07995,-0.345342 0.07047,-0.353692 -0.0095,-0.0084 -0.169456,0.07729 -0.355483,0.190313 l -0.338229,0.205495 -0.164072,0.647405 c -0.09024,0.356073 -0.171588,0.656881 -0.180777,0.668463 -0.0092,0.01159 -0.05357,0.0069 -0.09863,-0.01038 -0.06946,-0.02665 -0.06084,-0.114491 0.05669,-0.577326 0.07624,-0.300238 0.131037,-0.553386 0.121773,-0.562549 -0.0093,-0.0092 -0.181731,0.08165 -0.383259,0.201813 -0.201529,0.120162 -0.392655,0.219435 -0.424726,0.220608 -0.03207,0.0012 -0.102121,-0.07203 -0.155667,-0.162679 l -0.09736,-0.16481 0.428152,-0.236346 c 0.235484,-0.129989 0.407003,-0.254863 0.381154,-0.277497 -0.02585,-0.02264 -0.275304,-0.09974 -0.554345,-0.171343 -0.611031,-0.156797 -0.656388,-0.177401 -0.598106,-0.271704 0.03564,-0.05766 0.194829,-0.03392 0.761448,0.113553 l 0.716393,0.186453 0.304962,-0.169115 c 0.16773,-0.09301 0.312248,-0.193325 0.321151,-0.222917 0.0089,-0.02959 -0.129674,-0.0894 -0.307949,-0.132912 -0.286686,-0.06997 -0.387194,-0.154225 -0.294523,-0.246898 0.01629,-0.01629 0.199653,0.01754 0.407475,0.07516 0.505468,0.140162 0.584738,0.134029 0.917986,-0.07102 0.319059,-0.196318 0.325382,-0.178752 -0.16113,-0.447641 l -0.243533,-0.134597 -0.485821,0.125589 c -0.373924,0.09666 -0.495675,0.109646 -0.528602,0.05637 -0.05632,-0.09113 0.02978,-0.139894 0.39072,-0.221278 0.164189,-0.03703 0.308841,-0.08401 0.321451,-0.104406 0.01261,-0.02041 -0.137699,-0.122916 -0.334017,-0.227806 l -0.356944,-0.190712 -0.638669,0.179315 c -0.480415,0.134883 -0.649134,0.162385 -0.680899,0.110987 -0.06169,-0.09981 -0.01323,-0.12463 0.530887,-0.271856 0.271288,-0.07341 0.493251,-0.151119 0.493251,-0.172697 0,-0.02157 -0.145861,-0.121217 -0.324136,-0.221423 -0.510953,-0.2872 -0.499152,-0.259564 -0.25951,-0.607719 0.0078,-0.01134 0.196551,0.08452 0.419433,0.213019 0.222882,0.128501 0.418171,0.220708 0.433974,0.204904 0.0158,-0.0158 -0.04052,-0.286442 -0.125162,-0.60142 -0.122864,-0.457212 -0.139079,-0.581845 -0.08041,-0.618101 0.04041,-0.02497 0.08227,-0.03662 0.093,-0.02589 0.01074,0.01074 0.105554,0.342316 0.210701,0.736838 0.105148,0.394521 0.198565,0.723686 0.207595,0.731477 0.04781,0.04125 0.65067,0.366295 0.679364,0.366295 0.01856,0 -0.01341,-0.164886 -0.07104,-0.366416 -0.100957,-0.353026 -0.101048,-0.366415 -0.0025,-0.366415 0.07973,0 0.128291,0.09563 0.220132,0.433492 0.130257,0.479187 0.146053,0.500684 0.529283,0.720313 l 0.267765,0.153456 0,-0.415679 0,-0.415681 -0.364527,-0.361286 c -0.287922,-0.285364 -0.351114,-0.377449 -0.300701,-0.438192 0.05178,-0.06239 0.120585,-0.02086 0.364527,0.22006 l 0.300701,0.296966 0,-0.419747 0,-0.419746 -0.489781,-0.492061 c -0.403794,-0.405674 -0.472235,-0.498793 -0.389842,-0.53041 0.07453,-0.0286 0.199071,0.06002 0.489781,0.348504 l 0.389842,0.386855 0,-0.491741 0,-0.49174 0.225487,0 0.225487,0 0,0.520194 0,0.520193 0.469537,-0.467099 c 0.379032,-0.377062 0.481849,-0.452263 0.533413,-0.390134 0.05067,0.06105 -0.04644,0.186815 -0.469538,0.60816 l -0.533412,0.531194 0,0.421782 0,0.42178 0.281506,-0.277272 c 0.221114,-0.217791 0.296222,-0.262557 0.350102,-0.208677 0.05388,0.05388 -0.0065,0.144376 -0.281507,0.421838 l -0.350101,0.353242 0,0.384349 0,0.384348 0.267765,-0.154109 c 0.409363,-0.235605 0.447688,-0.285613 0.552115,-0.720437 0.120677,-0.502484 0.146439,-0.553821 0.246804,-0.491792 0.06649,0.0411 0.06353,0.102103 -0.01924,0.397104 -0.05379,0.191703 -0.08873,0.357617 -0.07765,0.368696 0.01108,0.01108 0.175428,-0.06737 0.36522,-0.174321 l 0.345073,-0.194465 0.158077,-0.648128 c 0.12853,-0.526994 0.176977,-0.648128 0.259205,-0.648128 0.05562,0 0.100621,0.0063 0.1,0.0141 -6.2e-4,0.0078 -0.06277,0.254235 -0.138116,0.54774 -0.07534,0.293506 -0.129066,0.541567 -0.119384,0.551249 0.0097,0.0097 0.199961,-0.08753 0.422843,-0.216035 0.222882,-0.128501 0.411628,-0.224361 0.419433,-0.21302 0.2181,0.316858 0.218506,0.324443 0.02367,0.443009 -0.101489,0.06175 -0.292336,0.169514 -0.424105,0.239456 -0.131768,0.06994 -0.23958,0.142347 -0.23958,0.160902 0,0.01856 0.272699,0.105019 0.605996,0.192142 0.333298,0.08713 0.612935,0.163483 0.621416,0.169686 0.0085,0.0062 5.07e-4,0.05007 -0.01766,0.09749 -0.0285,0.07426 -0.134312,0.0593 -0.763434,-0.107892 l -0.730353,-0.194102 -0.337139,0.185343 c -0.185428,0.10194 -0.337141,0.203037 -0.337141,0.224662 0,0.02163 0.142086,0.07112 0.315746,0.109977 0.282429,0.06321 0.428166,0.170622 0.344712,0.254076 -0.01646,0.01646 -0.237491,-0.02608 -0.491178,-0.09453 L 27.550126,35.265865 27.315601,35.3954 c -0.481579,0.26599 -0.477134,0.24446 -0.09802,0.474759 l 0.340998,0.207145 0.503409,-0.137584 c 0.484657,-0.132459 0.504441,-0.133643 0.531082,-0.03177 0.01524,0.05827 -0.0016,0.106165 -0.03751,0.106586 -0.03585,4.23e-4 -0.21739,0.04634 -0.403417,0.102051 l -0.33823,0.101284 0.370675,0.207347 0.370677,0.207346 0.655093,-0.188789 c 0.557417,-0.160642 0.659943,-0.176153 0.68762,-0.104029 0.01789,0.04662 0.02559,0.09071 0.01711,0.09799 -0.0085,0.0073 -0.256408,0.08196 -0.550951,0.165979 -0.294542,0.08402 -0.543452,0.160568 -0.553134,0.170122 -0.0097,0.0096 0.174522,0.123423 0.40934,0.253046 l 0.426942,0.235676 -0.09736,0.164811 c -0.05354,0.09065 -0.123595,0.163852 -0.155666,0.162678 -0.03207,-0.0012 -0.223198,-0.100657 -0.424726,-0.221078 -0.201529,-0.12042 -0.374502,-0.196675 -0.384382,-0.169455 -0.0099,0.02722 0.04719,0.288677 0.126836,0.581014 0.168069,0.616928 0.172009,0.657226 0.06424,0.657226 -0.07668,0 -0.150388,-0.19915 -0.31296,-0.845574 -0.146691,-0.583279 -0.164351,-0.611261 -0.515765,-0.817219 -0.185313,-0.108609 -0.345851,-0.197472 -0.356748,-0.197472 -0.0109,0 0.0174,0.142503 0.06288,0.316672 0.08159,0.312454 0.07192,0.472532 -0.02856,0.472532 -0.0283,0 -0.08118,-0.120495 -0.117509,-0.267766 -0.172214,-0.698034 -0.156805,-0.670757 -0.482854,-0.854768 -0.169585,-0.09571 -0.321405,-0.174015 -0.337377,-0.174015 -0.01597,0 -0.02904,0.188678 -0.02904,0.419283 l 0,0.419283 0.363622,0.325233 c 0.279227,0.24975 0.349447,0.342312 0.302553,0.398815 -0.04821,0.0581 -0.121794,0.01707 -0.349527,-0.194893 l -0.288462,-0.268473 -0.0169,0.390667 -0.0169,0.390666 0.494064,0.496363 c 0.390342,0.39216 0.479542,0.510887 0.424888,0.56554 -0.05465,0.05465 -0.157786,-0.01884 -0.491257,-0.350087 l -0.422081,-0.419265 0,0.491842 0,0.49184 -0.225487,0 -0.225487,0 0,-0.491929 z"
           style="fill:#2f54df;fill-opacity:1;fill-rule:nonzero;stroke:none" />
        <path
           style="fill:#2f54df;fill-opacity:1;fill-rule:nonzero;stroke:none"
           d="m 33.885588,41.692822 0,-0.49193 -0.446083,0.443465 c -0.335718,0.333751 -0.470861,0.433959 -0.546235,0.405034 -0.08233,-0.0316 -0.0029,-0.136031 0.446083,-0.586726 l 0.546235,-0.548294 0,-0.419659 0,-0.41966 -0.272593,0.268494 c -0.22145,0.218121 -0.284564,0.254069 -0.336401,0.191607 -0.05034,-0.06065 0.0072,-0.147145 0.272593,-0.409777 l 0.336401,-0.332892 0,-0.382273 c 0,-0.21025 -0.01903,-0.381286 -0.04227,-0.380079 -0.02326,0.0012 -0.181387,0.0852 -0.351409,0.186648 -0.327553,0.195446 -0.310926,0.165131 -0.507087,0.924497 -0.03728,0.144339 -0.09464,0.23958 -0.144275,0.23958 -0.10343,0 -0.102906,-0.04545 0.0053,-0.463165 0.04824,-0.186181 0.07995,-0.345342 0.07047,-0.353692 -0.0095,-0.0084 -0.169456,0.07729 -0.355483,0.190313 l -0.338229,0.205495 -0.164072,0.647405 c -0.09024,0.356073 -0.171588,0.656881 -0.180777,0.668463 -0.0092,0.01159 -0.05357,0.0069 -0.09863,-0.01038 -0.06946,-0.02665 -0.06084,-0.114491 0.05669,-0.577326 0.07624,-0.300238 0.131037,-0.553386 0.121773,-0.562549 -0.0093,-0.0092 -0.18173,0.08165 -0.383258,0.201813 -0.201529,0.120162 -0.392656,0.219435 -0.424726,0.220608 -0.03207,0.0012 -0.102121,-0.07203 -0.155668,-0.162679 l -0.09736,-0.16481 0.428152,-0.236346 c 0.235484,-0.129989 0.407003,-0.254863 0.381154,-0.277497 -0.02585,-0.02264 -0.275304,-0.09974 -0.554346,-0.171343 -0.611031,-0.156797 -0.656388,-0.177401 -0.598106,-0.271704 0.03564,-0.05766 0.194829,-0.03392 0.761448,0.113553 l 0.716393,0.186453 0.304962,-0.169115 c 0.16773,-0.09301 0.312248,-0.193325 0.321151,-0.222917 0.0089,-0.02959 -0.129674,-0.0894 -0.307949,-0.132912 -0.286685,-0.06997 -0.387194,-0.154225 -0.294523,-0.246898 0.01629,-0.01629 0.199653,0.01754 0.407475,0.07516 0.505468,0.140162 0.584739,0.134029 0.917986,-0.07102 0.319059,-0.196318 0.325383,-0.178752 -0.16113,-0.447641 l -0.243533,-0.134597 -0.485821,0.125589 c -0.373924,0.09666 -0.495675,0.109646 -0.528602,0.05637 -0.05632,-0.09113 0.02978,-0.139894 0.39072,-0.221278 0.16419,-0.03703 0.308842,-0.08401 0.321452,-0.104406 0.01261,-0.02041 -0.1377,-0.122916 -0.334017,-0.227806 L 31.9825,37.651286 31.343831,37.830601 c -0.480415,0.134883 -0.649134,0.162385 -0.680899,0.110987 -0.06169,-0.09981 -0.01323,-0.12463 0.530887,-0.271856 0.271287,-0.07341 0.493251,-0.151119 0.493251,-0.172697 0,-0.02157 -0.145861,-0.121217 -0.324136,-0.221423 -0.510953,-0.2872 -0.499152,-0.259564 -0.25951,-0.607719 0.0078,-0.01134 0.196551,0.08452 0.419433,0.213019 0.222882,0.128501 0.418171,0.220708 0.433974,0.204904 0.0158,-0.0158 -0.04052,-0.286442 -0.125162,-0.60142 -0.122864,-0.457212 -0.139079,-0.581845 -0.08041,-0.618101 0.04041,-0.02497 0.08227,-0.03662 0.093,-0.02589 0.01074,0.01074 0.105554,0.342316 0.210701,0.736838 0.105148,0.394521 0.198565,0.723686 0.207595,0.731477 0.04781,0.04125 0.65067,0.366295 0.679364,0.366295 0.01856,0 -0.01341,-0.164886 -0.07104,-0.366416 -0.100957,-0.353026 -0.101048,-0.366415 -0.0025,-0.366415 0.07973,0 0.128291,0.09563 0.220132,0.433492 0.130257,0.479187 0.146053,0.500684 0.529283,0.720313 l 0.267765,0.153456 0,-0.415679 0,-0.415681 -0.364527,-0.361286 c -0.287922,-0.285364 -0.351114,-0.377449 -0.300701,-0.438192 0.05178,-0.06239 0.120585,-0.02086 0.364527,0.22006 l 0.300701,0.296966 0,-0.419747 0,-0.419746 -0.489781,-0.492061 c -0.403794,-0.405674 -0.472235,-0.498793 -0.389842,-0.53041 0.07453,-0.0286 0.199071,0.06002 0.48978,0.348504 l 0.389843,0.386855 0,-0.491741 0,-0.49174 0.225487,0 0.225487,0 0,0.520194 0,0.520193 0.469537,-0.467099 c 0.379032,-0.377062 0.481849,-0.452263 0.533413,-0.390134 0.05067,0.06105 -0.04644,0.186815 -0.469538,0.60816 l -0.533412,0.531194 0,0.421782 0,0.42178 0.281506,-0.277272 c 0.221114,-0.217791 0.296222,-0.262557 0.350102,-0.208677 0.05388,0.05388 -0.0065,0.144376 -0.281507,0.421838 l -0.350101,0.353242 0,0.384349 0,0.384348 0.267765,-0.154109 c 0.409363,-0.235605 0.447688,-0.285613 0.552115,-0.720437 0.120677,-0.502484 0.146439,-0.553821 0.246804,-0.491792 0.06649,0.0411 0.06353,0.102103 -0.01924,0.397104 -0.05379,0.191703 -0.08873,0.357617 -0.07765,0.368696 0.01108,0.01108 0.175428,-0.06737 0.36522,-0.174321 l 0.345073,-0.194465 0.158077,-0.648128 c 0.12853,-0.526994 0.176977,-0.648128 0.259205,-0.648128 0.05562,0 0.100621,0.0063 0.1,0.0141 -6.19e-4,0.0078 -0.06277,0.254235 -0.138115,0.54774 -0.07534,0.293506 -0.129067,0.541567 -0.119385,0.551249 0.0097,0.0097 0.199961,-0.08753 0.422843,-0.216035 0.222882,-0.128501 0.411628,-0.224361 0.419434,-0.21302 0.218099,0.316858 0.218506,0.324443 0.02367,0.443009 -0.10149,0.06175 -0.292336,0.169514 -0.424105,0.239456 -0.131769,0.06994 -0.239581,0.142347 -0.239581,0.160902 0,0.01856 0.2727,0.105019 0.605997,0.192142 0.333298,0.08713 0.612934,0.163483 0.621416,0.169686 0.0085,0.0062 5.06e-4,0.05007 -0.01766,0.09749 -0.0285,0.07426 -0.134313,0.0593 -0.763434,-0.107892 L 36.194628,37.66859 35.85749,37.853933 c -0.185428,0.10194 -0.337141,0.203037 -0.337141,0.224662 0,0.02163 0.142085,0.07112 0.315746,0.109977 0.282428,0.06321 0.428166,0.170622 0.344712,0.254076 -0.01646,0.01646 -0.237491,-0.02608 -0.491178,-0.09453 l -0.461248,-0.124459 -0.234526,0.129535 c -0.481578,0.26599 -0.477134,0.24446 -0.09802,0.474759 l 0.340997,0.207145 0.503409,-0.137584 c 0.484657,-0.132459 0.504441,-0.133643 0.531083,-0.03177 0.01524,0.05827 -0.0016,0.106165 -0.03751,0.106586 -0.03585,4.23e-4 -0.217389,0.04634 -0.403417,0.102051 l -0.33823,0.101284 0.370676,0.207347 0.370677,0.207346 0.655092,-0.188789 c 0.557417,-0.160642 0.659943,-0.176153 0.68762,-0.104029 0.01789,0.04662 0.02559,0.09071 0.01711,0.09799 -0.0085,0.0073 -0.256407,0.08196 -0.550951,0.165979 -0.294542,0.08402 -0.543452,0.160568 -0.553134,0.170122 -0.0097,0.0096 0.174522,0.123423 0.40934,0.253046 l 0.426942,0.235676 -0.09736,0.164811 c -0.05354,0.09065 -0.123595,0.163852 -0.155665,0.162678 -0.03207,-0.0012 -0.223199,-0.100657 -0.424727,-0.221078 -0.201528,-0.12042 -0.374501,-0.196675 -0.384381,-0.169455 -0.0099,0.02722 0.04719,0.288677 0.126836,0.581014 0.168069,0.616928 0.172009,0.657226 0.06424,0.657226 -0.07668,0 -0.150388,-0.19915 -0.312961,-0.845574 -0.14669,-0.583279 -0.16435,-0.611261 -0.515764,-0.817219 -0.185313,-0.108609 -0.345851,-0.197472 -0.356748,-0.197472 -0.0109,0 0.0174,0.142503 0.06288,0.316672 0.08159,0.312454 0.07192,0.472532 -0.02856,0.472532 -0.0283,0 -0.08118,-0.120495 -0.117509,-0.267766 -0.172214,-0.698034 -0.156805,-0.670757 -0.482854,-0.854768 -0.169585,-0.09571 -0.321405,-0.174015 -0.337377,-0.174015 -0.01597,0 -0.02904,0.188678 -0.02904,0.419283 l 0,0.419283 0.363622,0.325233 c 0.279227,0.24975 0.349447,0.342312 0.302553,0.398815 -0.04821,0.0581 -0.121794,0.01707 -0.349527,-0.194893 l -0.288462,-0.268473 -0.0169,0.390667 -0.0169,0.390666 0.494064,0.496363 c 0.390342,0.39216 0.479542,0.510887 0.424888,0.56554 -0.05465,0.05465 -0.157786,-0.01884 -0.491257,-0.350087 l -0.422081,-0.419265 0,0.491842 0,0.49184 -0.225487,0 -0.225487,0 0,-0.491929 z"
           id="path4653"
           inkscape:connector-curvature="0" />
        <path
           inkscape:connector-curvature="0"
           id="path4655"
           d="m 23.432822,46.32091 0,-0.49193 -0.446083,0.443465 c -0.335718,0.333751 -0.470861,0.433959 -0.546235,0.405034 -0.08233,-0.0316 -0.0029,-0.136031 0.446083,-0.586726 l 0.546235,-0.548294 0,-0.419659 0,-0.41966 -0.272593,0.268494 c -0.22145,0.218121 -0.284564,0.254069 -0.336401,0.191607 -0.05034,-0.06065 0.0072,-0.147145 0.272593,-0.409777 l 0.336401,-0.332892 0,-0.382273 c 0,-0.21025 -0.01903,-0.381286 -0.04227,-0.380079 -0.02326,0.0012 -0.181387,0.0852 -0.351409,0.186648 -0.327553,0.195446 -0.310926,0.165131 -0.507087,0.924497 -0.03728,0.144339 -0.09464,0.23958 -0.144275,0.23958 -0.10343,0 -0.102906,-0.04545 0.0053,-0.463165 0.04824,-0.186181 0.07995,-0.345342 0.07047,-0.353692 -0.0095,-0.0084 -0.169456,0.07729 -0.355483,0.190313 l -0.338229,0.205495 -0.164072,0.647405 c -0.09024,0.356073 -0.171588,0.656881 -0.180777,0.668463 -0.0092,0.01159 -0.05357,0.0069 -0.09863,-0.01038 -0.06946,-0.02665 -0.06084,-0.114491 0.05669,-0.577326 0.07624,-0.300238 0.131037,-0.553386 0.121773,-0.562549 -0.0093,-0.0092 -0.18173,0.08165 -0.383258,0.201813 -0.201529,0.120162 -0.392656,0.219435 -0.424726,0.220608 -0.03207,0.0012 -0.102121,-0.07203 -0.155668,-0.162679 l -0.09736,-0.16481 0.428152,-0.236346 c 0.235484,-0.129989 0.407003,-0.254863 0.381154,-0.277497 -0.02585,-0.02264 -0.275304,-0.09974 -0.554346,-0.171343 -0.611031,-0.156797 -0.656388,-0.177401 -0.598106,-0.271704 0.03564,-0.05766 0.194829,-0.03392 0.761448,0.113553 l 0.716393,0.186453 0.304962,-0.169115 c 0.16773,-0.09301 0.312248,-0.193325 0.321151,-0.222917 0.0089,-0.02959 -0.129674,-0.0894 -0.307949,-0.132912 -0.286684,-0.06997 -0.387194,-0.154225 -0.294522,-0.246898 0.01629,-0.01629 0.199652,0.01754 0.407474,0.07516 0.505468,0.140162 0.584739,0.134029 0.917986,-0.07102 0.31906,-0.196318 0.325384,-0.178752 -0.16113,-0.447641 l -0.243533,-0.134597 -0.485821,0.125589 c -0.373924,0.09666 -0.495675,0.109646 -0.528602,0.05637 -0.05632,-0.09113 0.02978,-0.139894 0.39072,-0.221278 0.16419,-0.03703 0.308842,-0.08401 0.321453,-0.104406 0.01261,-0.02041 -0.137701,-0.122916 -0.334018,-0.227806 l -0.356943,-0.190712 -0.638669,0.179315 c -0.480415,0.134883 -0.649134,0.162385 -0.680899,0.110987 -0.06169,-0.09981 -0.01323,-0.12463 0.530887,-0.271856 0.271287,-0.07341 0.493251,-0.151119 0.493251,-0.172697 0,-0.02157 -0.145861,-0.121217 -0.324136,-0.221423 -0.510953,-0.2872 -0.499152,-0.259564 -0.25951,-0.607719 0.0078,-0.01134 0.196551,0.08452 0.419433,0.213019 0.222882,0.128501 0.418171,0.220708 0.433974,0.204904 0.0158,-0.0158 -0.04052,-0.286442 -0.125162,-0.60142 -0.122864,-0.457212 -0.139079,-0.581845 -0.08041,-0.618101 0.04041,-0.02497 0.08227,-0.03662 0.093,-0.02589 0.01074,0.01074 0.105554,0.342316 0.210701,0.736838 0.105148,0.394521 0.198565,0.723686 0.207595,0.731477 0.04781,0.04125 0.65067,0.366295 0.679364,0.366295 0.01856,0 -0.01341,-0.164886 -0.07104,-0.366416 -0.100957,-0.353026 -0.101048,-0.366415 -0.0025,-0.366415 0.07973,0 0.128291,0.09563 0.220132,0.433492 0.130257,0.479187 0.146053,0.500684 0.529283,0.720313 l 0.267765,0.153456 0,-0.415679 0,-0.415681 -0.364527,-0.361286 c -0.287922,-0.285364 -0.351114,-0.377449 -0.300701,-0.438192 0.05178,-0.06239 0.120585,-0.02086 0.364527,0.22006 l 0.300701,0.296966 0,-0.419747 0,-0.419746 -0.489781,-0.492061 c -0.403794,-0.405674 -0.472235,-0.498793 -0.389842,-0.53041 0.07453,-0.0286 0.199071,0.06002 0.48978,0.348504 l 0.389843,0.386855 0,-0.491741 0,-0.49174 0.225487,0 0.225487,0 0,0.520194 0,0.520193 0.469537,-0.467099 c 0.379032,-0.377062 0.481849,-0.452263 0.533413,-0.390134 0.05067,0.06105 -0.04644,0.186815 -0.469538,0.60816 l -0.533412,0.531194 0,0.421782 0,0.42178 0.281506,-0.277272 c 0.221114,-0.217791 0.296222,-0.262557 0.350102,-0.208677 0.05388,0.05388 -0.0065,0.144376 -0.281507,0.421838 l -0.350101,0.353242 0,0.384349 0,0.384348 0.267765,-0.154109 c 0.409363,-0.235605 0.447688,-0.285613 0.552115,-0.720437 0.120677,-0.502484 0.146439,-0.553821 0.246804,-0.491792 0.06649,0.0411 0.06353,0.102103 -0.01924,0.397104 -0.05379,0.191703 -0.08873,0.357617 -0.07765,0.368696 0.01108,0.01108 0.175428,-0.06737 0.36522,-0.174321 l 0.345073,-0.194465 0.158077,-0.648128 c 0.12853,-0.526994 0.176977,-0.648128 0.259205,-0.648128 0.05562,0 0.100621,0.0063 0.1,0.0141 -6.19e-4,0.0078 -0.06277,0.254235 -0.138115,0.54774 -0.07534,0.293506 -0.129067,0.541567 -0.119385,0.551249 0.0097,0.0097 0.199961,-0.08753 0.422843,-0.216035 0.222882,-0.128501 0.411628,-0.224361 0.419434,-0.21302 0.218099,0.316858 0.218506,0.324443 0.02367,0.443009 -0.10149,0.06175 -0.292336,0.169514 -0.424105,0.239456 -0.131769,0.06994 -0.239581,0.142347 -0.239581,0.160902 0,0.01856 0.2727,0.105019 0.605997,0.192142 0.333298,0.08713 0.612934,0.163483 0.621416,0.169686 0.0085,0.0062 5.06e-4,0.05007 -0.01766,0.09749 -0.0285,0.07426 -0.134313,0.0593 -0.763433,-0.107892 l -0.730355,-0.194102 -0.337138,0.185343 c -0.185428,0.10194 -0.337141,0.203037 -0.337141,0.224662 0,0.02163 0.142085,0.07112 0.315746,0.109977 0.282428,0.06321 0.428166,0.170622 0.344712,0.254076 -0.01646,0.01646 -0.237491,-0.02608 -0.491178,-0.09453 l -0.461248,-0.124459 -0.234526,0.129535 c -0.481578,0.26599 -0.477134,0.24446 -0.09802,0.474759 l 0.340997,0.207145 0.503409,-0.137584 c 0.484657,-0.132459 0.504441,-0.133643 0.531083,-0.03177 0.01524,0.05827 -0.0016,0.106165 -0.03751,0.106586 -0.03585,4.23e-4 -0.217389,0.04634 -0.403417,0.102051 l -0.33823,0.101284 0.370676,0.207347 0.370677,0.207346 0.655092,-0.188789 c 0.557417,-0.160642 0.659943,-0.176153 0.68762,-0.104029 0.01789,0.04662 0.02559,0.09071 0.01711,0.09799 -0.0085,0.0073 -0.256408,0.08196 -0.550951,0.165979 -0.294542,0.08402 -0.543452,0.160568 -0.553134,0.170122 -0.0097,0.0096 0.174522,0.123423 0.40934,0.253046 l 0.426942,0.235676 -0.09736,0.164811 c -0.05354,0.09065 -0.123595,0.163852 -0.155665,0.162678 -0.03207,-0.0012 -0.223199,-0.100657 -0.424726,-0.221078 -0.201529,-0.12042 -0.374501,-0.196675 -0.384381,-0.169455 -0.0099,0.02722 0.04719,0.288677 0.126836,0.581014 0.168069,0.616928 0.172009,0.657226 0.06424,0.657226 -0.07668,0 -0.150388,-0.19915 -0.312962,-0.845574 -0.14669,-0.583279 -0.164349,-0.611261 -0.515763,-0.817219 -0.185313,-0.108609 -0.345852,-0.197472 -0.356749,-0.197472 -0.0109,0 0.0174,0.142503 0.06288,0.316672 0.08159,0.312454 0.07192,0.472532 -0.02856,0.472532 -0.0283,0 -0.08118,-0.120495 -0.117508,-0.267766 -0.172214,-0.698034 -0.156805,-0.670757 -0.482855,-0.854768 -0.169584,-0.09571 -0.321405,-0.174015 -0.337376,-0.174015 -0.01597,0 -0.02904,0.188678 -0.02904,0.419283 l 0,0.419283 0.363622,0.325233 c 0.279227,0.24975 0.349447,0.342312 0.302554,0.398815 -0.04821,0.0581 -0.121794,0.01707 -0.349527,-0.194893 l -0.288463,-0.268473 -0.0169,0.390667 -0.0169,0.390666 0.494064,0.496363 c 0.390342,0.39216 0.479543,0.510887 0.424889,0.56554 -0.05465,0.05465 -0.157786,-0.01884 -0.491257,-0.350087 l -0.422081,-0.419265 0,0.491842 0,0.49184 -0.225487,0 -0.225487,0 0,-0.491929 z"
           style="fill:#2f54df;fill-opacity:1;fill-rule:nonzero;stroke:none" />
        <path
           inkscape:connector-curvature="0"
           id="path4657"
           d="m 13.049475,50.734807 0,-0.49193 -0.446083,0.443465 c -0.335718,0.333751 -0.470861,0.433959 -0.546235,0.405034 -0.08233,-0.0316 -0.0029,-0.136031 0.446082,-0.586726 l 0.546236,-0.548294 0,-0.419659 0,-0.41966 -0.272593,0.268494 c -0.221451,0.218121 -0.284564,0.254069 -0.336402,0.191607 -0.05034,-0.06065 0.0072,-0.147145 0.272593,-0.409777 l 0.336402,-0.332892 0,-0.382273 c 0,-0.21025 -0.01903,-0.381286 -0.04227,-0.380079 -0.02326,0.0012 -0.181387,0.0852 -0.351409,0.186648 -0.327553,0.195446 -0.310926,0.165131 -0.507087,0.924497 -0.03728,0.144339 -0.09464,0.23958 -0.144275,0.23958 -0.10343,0 -0.102906,-0.04545 0.0053,-0.463165 0.04824,-0.186181 0.07995,-0.345342 0.07047,-0.353692 -0.0095,-0.0084 -0.169456,0.07729 -0.355483,0.190313 l -0.338229,0.205495 -0.164072,0.647405 c -0.09024,0.356073 -0.171588,0.656881 -0.180777,0.668463 -0.0092,0.01159 -0.05357,0.0069 -0.09863,-0.01038 -0.06946,-0.02665 -0.06084,-0.114491 0.05669,-0.577326 0.07624,-0.300238 0.131037,-0.553386 0.121773,-0.562549 -0.0093,-0.0092 -0.181731,0.08165 -0.383259,0.201813 -0.201529,0.120162 -0.392655,0.219435 -0.424726,0.220608 -0.03207,0.0012 -0.102121,-0.07203 -0.155667,-0.162679 l -0.09736,-0.16481 0.428152,-0.236346 c 0.235484,-0.129989 0.407003,-0.254863 0.381154,-0.277497 -0.02585,-0.02264 -0.275304,-0.09974 -0.554345,-0.171343 -0.6110313,-0.156797 -0.6563883,-0.177401 -0.5981063,-0.271704 0.03564,-0.05766 0.194829,-0.03392 0.7614483,0.113553 l 0.716393,0.186453 0.304962,-0.169115 c 0.16773,-0.09301 0.312248,-0.193325 0.321151,-0.222917 0.0089,-0.02959 -0.129674,-0.0894 -0.307949,-0.132912 -0.286686,-0.06997 -0.387194,-0.154225 -0.294523,-0.246898 0.01629,-0.01629 0.199653,0.01754 0.407475,0.07516 0.505468,0.140162 0.584738,0.134029 0.917986,-0.07102 0.319059,-0.196318 0.325382,-0.178752 -0.16113,-0.447641 l -0.243533,-0.134597 -0.485821,0.125589 c -0.373924,0.09666 -0.495675,0.109646 -0.528602,0.05637 -0.05632,-0.09113 0.02978,-0.139894 0.39072,-0.221278 0.164189,-0.03703 0.308841,-0.08401 0.321451,-0.104406 0.01261,-0.02041 -0.137699,-0.122916 -0.334017,-0.227806 l -0.356944,-0.190712 -0.638669,0.179315 c -0.480415,0.134883 -0.6491343,0.162385 -0.6808993,0.110987 -0.06169,-0.09981 -0.01323,-0.12463 0.5308873,-0.271856 0.271288,-0.07341 0.493251,-0.151119 0.493251,-0.172697 0,-0.02157 -0.145861,-0.121217 -0.324136,-0.221423 -0.510953,-0.2872 -0.499152,-0.259564 -0.25951,-0.607719 0.0078,-0.01134 0.196551,0.08452 0.419433,0.213019 0.222882,0.128501 0.418171,0.220708 0.433974,0.204904 0.0158,-0.0158 -0.04052,-0.286442 -0.125162,-0.60142 -0.122864,-0.457212 -0.139079,-0.581845 -0.08041,-0.618101 0.04041,-0.02497 0.08227,-0.03662 0.093,-0.02589 0.01074,0.01074 0.105554,0.342316 0.210701,0.736838 0.105148,0.394521 0.198565,0.723686 0.207595,0.731477 0.04781,0.04125 0.65067,0.366295 0.679364,0.366295 0.01856,0 -0.01341,-0.164886 -0.07104,-0.366416 -0.100957,-0.353026 -0.101048,-0.366415 -0.0025,-0.366415 0.07973,0 0.128291,0.09563 0.220132,0.433492 0.130257,0.479187 0.146053,0.500684 0.529283,0.720313 l 0.267765,0.153456 0,-0.415679 0,-0.415681 -0.364527,-0.361286 c -0.287922,-0.285364 -0.351114,-0.377449 -0.300701,-0.438192 0.05178,-0.06239 0.120585,-0.02086 0.364527,0.22006 l 0.300701,0.296966 0,-0.419747 0,-0.419746 -0.489781,-0.492061 c -0.403794,-0.405674 -0.472235,-0.498793 -0.389842,-0.53041 0.07453,-0.0286 0.199071,0.06002 0.489781,0.348504 l 0.389842,0.386855 0,-0.491741 0,-0.49174 0.225487,0 0.225487,0 0,0.520194 0,0.520193 0.469537,-0.467099 c 0.379032,-0.377062 0.481849,-0.452263 0.533413,-0.390134 0.05067,0.06105 -0.04644,0.186815 -0.469538,0.60816 l -0.533412,0.531194 0,0.421782 0,0.42178 0.281506,-0.277272 c 0.221114,-0.217791 0.296222,-0.262557 0.350102,-0.208677 0.05388,0.05388 -0.0065,0.144376 -0.281507,0.421838 l -0.350101,0.353242 0,0.384349 0,0.384348 0.267765,-0.154109 c 0.409363,-0.235605 0.447688,-0.285613 0.552115,-0.720437 0.120677,-0.502484 0.146439,-0.553821 0.246804,-0.491792 0.06649,0.0411 0.06353,0.102103 -0.01924,0.397104 -0.05379,0.191703 -0.08873,0.357617 -0.07765,0.368696 0.01108,0.01108 0.175428,-0.06737 0.36522,-0.174321 l 0.345073,-0.194465 0.158076,-0.648128 c 0.128531,-0.526994 0.176977,-0.648128 0.259205,-0.648128 0.05562,0 0.100621,0.0063 0.1,0.0141 -6.2e-4,0.0078 -0.06277,0.254235 -0.138116,0.54774 -0.07534,0.293506 -0.129066,0.541567 -0.119384,0.551249 0.0097,0.0097 0.199961,-0.08753 0.422843,-0.216035 0.222882,-0.128501 0.411628,-0.224361 0.419433,-0.21302 0.2181,0.316858 0.218506,0.324443 0.02367,0.443009 -0.101489,0.06175 -0.292336,0.169514 -0.424105,0.239456 -0.131768,0.06994 -0.23958,0.142347 -0.23958,0.160902 0,0.01856 0.272699,0.105019 0.605996,0.192142 0.333298,0.08713 0.612935,0.163483 0.621416,0.169686 0.0085,0.0062 5.07e-4,0.05007 -0.01766,0.09749 -0.0285,0.07426 -0.134312,0.0593 -0.763434,-0.107892 l -0.730353,-0.194102 -0.337139,0.185343 c -0.185428,0.10194 -0.337141,0.203037 -0.337141,0.224662 0,0.02163 0.142086,0.07112 0.315746,0.109977 0.282429,0.06321 0.428166,0.170622 0.344712,0.254076 -0.01646,0.01646 -0.237491,-0.02608 -0.491178,-0.09453 l -0.461248,-0.124459 -0.234525,0.129535 c -0.481579,0.26599 -0.477134,0.24446 -0.09802,0.474759 l 0.340998,0.207145 0.503409,-0.137584 c 0.484657,-0.132459 0.504441,-0.133643 0.531082,-0.03177 0.01524,0.05827 -0.0016,0.106165 -0.03751,0.106586 -0.03585,4.23e-4 -0.21739,0.04634 -0.403417,0.102051 l -0.33823,0.101284 0.370675,0.207347 0.370677,0.207346 0.655093,-0.188789 c 0.557417,-0.160642 0.659943,-0.176153 0.68762,-0.104029 0.01789,0.04662 0.02559,0.09071 0.01711,0.09799 -0.0085,0.0073 -0.256408,0.08196 -0.550951,0.165979 -0.294542,0.08402 -0.543451,0.160568 -0.553134,0.170122 -0.0097,0.0096 0.174522,0.123423 0.40934,0.253046 l 0.426942,0.235676 -0.09736,0.164811 c -0.05354,0.09065 -0.123595,0.163852 -0.155666,0.162678 -0.03207,-0.0012 -0.223198,-0.100657 -0.424726,-0.221078 -0.201529,-0.12042 -0.374502,-0.196675 -0.384382,-0.169455 -0.0099,0.02722 0.04719,0.288677 0.126836,0.581014 0.168069,0.616928 0.172009,0.657226 0.06424,0.657226 -0.07668,0 -0.150388,-0.19915 -0.31296,-0.845574 -0.146691,-0.583279 -0.164351,-0.611261 -0.515765,-0.817219 -0.185313,-0.108609 -0.345851,-0.197472 -0.356748,-0.197472 -0.0109,0 0.0174,0.142503 0.06288,0.316672 0.08159,0.312454 0.07192,0.472532 -0.02856,0.472532 -0.0283,0 -0.08118,-0.120495 -0.117509,-0.267766 -0.172214,-0.698034 -0.156804,-0.670757 -0.482853,-0.854768 -0.169586,-0.09571 -0.321405,-0.174015 -0.337377,-0.174015 -0.01597,0 -0.02904,0.188678 -0.02904,0.419283 l 0,0.419283 0.363622,0.325233 c 0.279226,0.24975 0.349447,0.342312 0.302553,0.398815 -0.04821,0.0581 -0.121795,0.01707 -0.349527,-0.194893 l -0.288462,-0.268473 -0.0169,0.390667 -0.0169,0.390666 0.494064,0.496363 c 0.390342,0.39216 0.479542,0.510887 0.424888,0.56554 -0.05465,0.05465 -0.157786,-0.01884 -0.491257,-0.350087 l -0.422081,-0.419265 0,0.491842 0,0.49184 -0.225487,0 -0.225487,0 0,-0.491929 z"
           style="fill:#2f54df;fill-opacity:1;fill-rule:nonzero;stroke:none" />
        <path
           style="fill:#2f54df;fill-opacity:1;fill-rule:nonzero;stroke:none"
           d="m 31.585462,50.451697 0,-0.49193 -0.446083,0.443465 c -0.335718,0.333751 -0.470861,0.433959 -0.546235,0.405034 -0.08233,-0.0316 -0.0029,-0.136031 0.446083,-0.586726 l 0.546235,-0.548294 0,-0.419659 0,-0.41966 -0.272593,0.268494 c -0.22145,0.218121 -0.284564,0.254069 -0.336401,0.191607 -0.05034,-0.06065 0.0072,-0.147145 0.272593,-0.409777 l 0.336401,-0.332892 0,-0.382273 c 0,-0.21025 -0.01903,-0.381286 -0.04227,-0.380079 -0.02326,0.0012 -0.181387,0.0852 -0.351409,0.186648 -0.327553,0.195446 -0.310926,0.165131 -0.507087,0.924497 -0.03728,0.144339 -0.09464,0.23958 -0.144275,0.23958 -0.10343,0 -0.102906,-0.04545 0.0053,-0.463165 0.04824,-0.186181 0.07995,-0.345342 0.07047,-0.353692 -0.0095,-0.0084 -0.169456,0.07729 -0.355483,0.190313 l -0.338229,0.205495 -0.164072,0.647405 c -0.09024,0.356073 -0.171588,0.656881 -0.180777,0.668463 -0.0092,0.01159 -0.05357,0.0069 -0.09863,-0.01038 -0.06946,-0.02665 -0.06084,-0.114491 0.05669,-0.577326 0.07624,-0.300238 0.131037,-0.553386 0.121773,-0.562549 -0.0093,-0.0092 -0.18173,0.08165 -0.383258,0.201813 -0.201529,0.120162 -0.392656,0.219435 -0.424726,0.220608 -0.03207,0.0012 -0.102121,-0.07203 -0.155668,-0.162679 l -0.09736,-0.16481 0.428152,-0.236346 c 0.235484,-0.129989 0.407003,-0.254863 0.381154,-0.277497 -0.02585,-0.02264 -0.275304,-0.09974 -0.554346,-0.171343 -0.611031,-0.156797 -0.656388,-0.177401 -0.598106,-0.271704 0.03564,-0.05766 0.194829,-0.03392 0.761448,0.113553 l 0.716393,0.186453 0.304962,-0.169115 c 0.16773,-0.09301 0.312248,-0.193325 0.321151,-0.222917 0.0089,-0.02959 -0.129674,-0.0894 -0.307949,-0.132912 -0.286684,-0.06997 -0.387194,-0.154225 -0.294522,-0.246898 0.01629,-0.01629 0.199652,0.01754 0.407474,0.07516 0.505468,0.140162 0.584739,0.134029 0.917986,-0.07102 0.31906,-0.196318 0.325384,-0.178752 -0.16113,-0.447641 l -0.243533,-0.134597 -0.485821,0.125589 c -0.373924,0.09666 -0.495675,0.109646 -0.528602,0.05637 -0.05632,-0.09113 0.02978,-0.139894 0.39072,-0.221278 0.16419,-0.03703 0.308842,-0.08401 0.321453,-0.104406 0.01261,-0.02041 -0.137701,-0.122916 -0.334018,-0.227806 l -0.356943,-0.190712 -0.638669,0.179315 c -0.480415,0.134883 -0.649134,0.162385 -0.680899,0.110987 -0.06169,-0.09981 -0.01323,-0.12463 0.530887,-0.271856 0.271287,-0.07341 0.493251,-0.151119 0.493251,-0.172697 0,-0.02157 -0.145861,-0.121217 -0.324136,-0.221423 -0.510953,-0.2872 -0.499152,-0.259564 -0.25951,-0.607719 0.0078,-0.01134 0.196551,0.08452 0.419433,0.213019 0.222882,0.128501 0.418171,0.220708 0.433974,0.204904 0.0158,-0.0158 -0.04052,-0.286442 -0.125162,-0.60142 -0.122864,-0.457212 -0.139079,-0.581845 -0.08041,-0.618101 0.04041,-0.02497 0.08227,-0.03662 0.093,-0.02589 0.01074,0.01074 0.105554,0.342316 0.210701,0.736838 0.105148,0.394521 0.198565,0.723686 0.207595,0.731477 0.04781,0.04125 0.65067,0.366295 0.679364,0.366295 0.01856,0 -0.01341,-0.164886 -0.07104,-0.366416 -0.100957,-0.353026 -0.101048,-0.366415 -0.0025,-0.366415 0.07973,0 0.128291,0.09563 0.220132,0.433492 0.130257,0.479187 0.146053,0.500684 0.529283,0.720313 l 0.267765,0.153456 0,-0.415679 0,-0.415681 -0.364527,-0.361286 c -0.287922,-0.285364 -0.351114,-0.377449 -0.300701,-0.438192 0.05178,-0.06239 0.120585,-0.02086 0.364527,0.22006 l 0.300701,0.296966 0,-0.419747 0,-0.419746 -0.489781,-0.492061 c -0.403794,-0.405674 -0.472235,-0.498793 -0.389842,-0.53041 0.07453,-0.0286 0.199071,0.06002 0.48978,0.348504 l 0.389843,0.386855 0,-0.491741 0,-0.49174 0.225487,0 0.225487,0 0,0.520194 0,0.520193 0.469537,-0.467099 c 0.379032,-0.377062 0.481849,-0.452263 0.533413,-0.390134 0.05067,0.06105 -0.04644,0.186815 -0.469538,0.60816 l -0.533412,0.531194 0,0.421782 0,0.42178 0.281506,-0.277272 c 0.221114,-0.217791 0.296222,-0.262557 0.350102,-0.208677 0.05388,0.05388 -0.0065,0.144376 -0.281507,0.421838 l -0.350101,0.353242 0,0.384349 0,0.384348 0.267765,-0.154109 c 0.409363,-0.235605 0.447688,-0.285613 0.552115,-0.720437 0.120677,-0.502484 0.146439,-0.553821 0.246804,-0.491792 0.06649,0.0411 0.06353,0.102103 -0.01924,0.397104 -0.05379,0.191703 -0.08873,0.357617 -0.07765,0.368696 0.01108,0.01108 0.175428,-0.06737 0.36522,-0.174321 l 0.345073,-0.194465 0.158077,-0.648128 c 0.12853,-0.526994 0.176977,-0.648128 0.259205,-0.648128 0.05562,0 0.100621,0.0063 0.1,0.0141 -6.19e-4,0.0078 -0.06277,0.254235 -0.138115,0.54774 -0.07534,0.293506 -0.129067,0.541567 -0.119385,0.551249 0.0097,0.0097 0.199961,-0.08753 0.422843,-0.216035 0.222882,-0.128501 0.411628,-0.224361 0.419434,-0.21302 0.218099,0.316858 0.218506,0.324443 0.02367,0.443009 -0.10149,0.06175 -0.292336,0.169514 -0.424105,0.239456 -0.131769,0.06994 -0.239581,0.142347 -0.239581,0.160902 0,0.01856 0.2727,0.105019 0.605997,0.192142 0.333298,0.08713 0.612934,0.163483 0.621416,0.169686 0.0085,0.0062 5.06e-4,0.05007 -0.01766,0.09749 -0.0285,0.07426 -0.134313,0.0593 -0.763433,-0.107892 l -0.730355,-0.194102 -0.337138,0.185343 c -0.185428,0.10194 -0.337141,0.203037 -0.337141,0.224662 0,0.02163 0.142085,0.07112 0.315746,0.109977 0.282428,0.06321 0.428166,0.170622 0.344712,0.254076 -0.01646,0.01646 -0.237491,-0.02608 -0.491178,-0.09453 l -0.461248,-0.124459 -0.234526,0.129535 c -0.481578,0.26599 -0.477134,0.24446 -0.09802,0.474759 l 0.340997,0.207145 0.503409,-0.137584 c 0.484657,-0.132459 0.504441,-0.133643 0.531083,-0.03177 0.01524,0.05827 -0.0016,0.106165 -0.03751,0.106586 -0.03585,4.23e-4 -0.217389,0.04634 -0.403417,0.102051 l -0.33823,0.101284 0.370676,0.207347 0.370677,0.207346 0.655092,-0.188789 c 0.557417,-0.160642 0.659943,-0.176153 0.68762,-0.104029 0.01789,0.04662 0.02559,0.09071 0.01711,0.09799 -0.0085,0.0073 -0.256408,0.08196 -0.550951,0.165979 -0.294542,0.08402 -0.543452,0.160568 -0.553134,0.170122 -0.0097,0.0096 0.174522,0.123423 0.40934,0.253046 l 0.426942,0.235676 -0.09736,0.164811 c -0.05354,0.09065 -0.123595,0.163852 -0.155665,0.162678 -0.03207,-0.0012 -0.223199,-0.100657 -0.424726,-0.221078 -0.201529,-0.12042 -0.374501,-0.196675 -0.384381,-0.169455 -0.0099,0.02722 0.04719,0.288677 0.126836,0.581014 0.168069,0.616928 0.172009,0.657226 0.06424,0.657226 -0.07668,0 -0.150388,-0.19915 -0.312962,-0.845574 -0.14669,-0.583279 -0.164349,-0.611261 -0.515763,-0.817219 -0.185313,-0.108609 -0.345852,-0.197472 -0.356749,-0.197472 -0.0109,0 0.0174,0.142503 0.06288,0.316672 0.08159,0.312454 0.07192,0.472532 -0.02856,0.472532 -0.0283,0 -0.08118,-0.120495 -0.117508,-0.267766 -0.172214,-0.698034 -0.156805,-0.670757 -0.482855,-0.854768 -0.169584,-0.09571 -0.321405,-0.174015 -0.337376,-0.174015 -0.01597,0 -0.02904,0.188678 -0.02904,0.419283 l 0,0.419283 0.363622,0.325233 c 0.279227,0.24975 0.349447,0.342312 0.302554,0.398815 -0.04821,0.0581 -0.121794,0.01707 -0.349527,-0.194893 l -0.288463,-0.268473 -0.0169,0.390667 -0.0169,0.390666 0.494064,0.496363 c 0.390342,0.39216 0.479543,0.510887 0.424889,0.56554 -0.05465,0.05465 -0.157786,-0.01884 -0.491257,-0.350087 l -0.422081,-0.419265 0,0.491842 0,0.49184 -0.225487,0 -0.225487,0 0,-0.491929 z"
           id="path4659"
           inkscape:connector-curvature="0" />
        <path
           style="fill:#2f54df;fill-opacity:1;fill-rule:nonzero;stroke:none"
           d="m 21.657136,54.311499 0,-0.49193 -0.446083,0.443465 c -0.335718,0.333751 -0.470861,0.433959 -0.546235,0.405034 -0.08233,-0.0316 -0.0029,-0.136031 0.446083,-0.586726 l 0.546235,-0.548294 0,-0.419659 0,-0.41966 -0.272593,0.268494 c -0.22145,0.218121 -0.284564,0.254069 -0.336401,0.191607 -0.05034,-0.06065 0.0072,-0.147145 0.272593,-0.409777 l 0.336401,-0.332892 0,-0.382273 c 0,-0.21025 -0.01903,-0.381286 -0.04227,-0.380079 -0.02326,0.0012 -0.181387,0.0852 -0.351409,0.186648 -0.327553,0.195446 -0.310926,0.165131 -0.507087,0.924497 -0.03728,0.144339 -0.09464,0.23958 -0.144275,0.23958 -0.10343,0 -0.102906,-0.04545 0.0053,-0.463165 0.04824,-0.186181 0.07995,-0.345342 0.07047,-0.353692 -0.0095,-0.0084 -0.169456,0.07729 -0.355483,0.190313 l -0.338229,0.205495 -0.164072,0.647405 c -0.09024,0.356073 -0.171588,0.656881 -0.180777,0.668463 -0.0092,0.01159 -0.05357,0.0069 -0.09863,-0.01038 -0.06946,-0.02665 -0.06084,-0.114491 0.05669,-0.577326 0.07624,-0.300238 0.131037,-0.553386 0.121773,-0.562549 -0.0093,-0.0092 -0.18173,0.08165 -0.383258,0.201813 -0.201529,0.120162 -0.392656,0.219435 -0.424726,0.220608 -0.03207,0.0012 -0.102121,-0.07203 -0.155668,-0.162679 l -0.09736,-0.16481 0.428152,-0.236346 c 0.235484,-0.129989 0.407003,-0.254863 0.381154,-0.277497 -0.02585,-0.02264 -0.275304,-0.09974 -0.554346,-0.171343 -0.611031,-0.156797 -0.656388,-0.177401 -0.598106,-0.271704 0.03564,-0.05766 0.194829,-0.03392 0.761448,0.113553 l 0.716393,0.186453 0.304962,-0.169115 c 0.16773,-0.09301 0.312248,-0.193325 0.321151,-0.222917 0.0089,-0.02959 -0.129674,-0.0894 -0.307949,-0.132912 -0.286684,-0.06997 -0.387194,-0.154225 -0.294522,-0.246898 0.01629,-0.01629 0.199652,0.01754 0.407474,0.07516 0.505468,0.140162 0.584739,0.134029 0.917986,-0.07102 0.31906,-0.196318 0.325384,-0.178752 -0.16113,-0.447641 l -0.243533,-0.134597 -0.485821,0.125589 c -0.373924,0.09666 -0.495675,0.109646 -0.528602,0.05637 -0.05632,-0.09113 0.02978,-0.139894 0.39072,-0.221278 0.16419,-0.03703 0.308842,-0.08401 0.321453,-0.104406 0.01261,-0.02041 -0.137701,-0.122916 -0.334018,-0.227806 l -0.356943,-0.190712 -0.638669,0.179315 c -0.480415,0.134883 -0.649134,0.162385 -0.680899,0.110987 -0.06169,-0.09981 -0.01323,-0.12463 0.530887,-0.271856 0.271287,-0.07341 0.493251,-0.151119 0.493251,-0.172697 0,-0.02157 -0.145861,-0.121217 -0.324136,-0.221423 -0.510953,-0.2872 -0.499152,-0.259564 -0.25951,-0.607719 0.0078,-0.01134 0.196551,0.08452 0.419433,0.213019 0.222882,0.128501 0.418171,0.220708 0.433974,0.204904 0.0158,-0.0158 -0.04052,-0.286442 -0.125162,-0.60142 -0.122864,-0.457212 -0.139079,-0.581845 -0.08041,-0.618101 0.04041,-0.02497 0.08227,-0.03662 0.093,-0.02589 0.01074,0.01074 0.105554,0.342316 0.210701,0.736838 0.105148,0.394521 0.198565,0.723686 0.207595,0.731477 0.04781,0.04125 0.65067,0.366295 0.679364,0.366295 0.01856,0 -0.01341,-0.164886 -0.07104,-0.366416 -0.100957,-0.353026 -0.101048,-0.366415 -0.0025,-0.366415 0.07973,0 0.128291,0.09563 0.220132,0.433492 0.130257,0.479187 0.146053,0.500684 0.529283,0.720313 l 0.267765,0.153456 0,-0.415679 0,-0.415681 -0.364527,-0.361286 c -0.287922,-0.285364 -0.351114,-0.377449 -0.300701,-0.438192 0.05178,-0.06239 0.120585,-0.02086 0.364527,0.22006 l 0.300701,0.296966 0,-0.419747 0,-0.419746 -0.489781,-0.492061 c -0.403794,-0.405674 -0.472235,-0.498793 -0.389842,-0.53041 0.07453,-0.0286 0.199071,0.06002 0.48978,0.348504 l 0.389843,0.386855 0,-0.491741 0,-0.49174 0.225487,0 0.225487,0 0,0.520194 0,0.520193 0.469537,-0.467099 c 0.379032,-0.377062 0.481849,-0.452263 0.533413,-0.390134 0.05067,0.06105 -0.04644,0.186815 -0.469538,0.60816 l -0.533412,0.531194 0,0.421782 0,0.42178 0.281506,-0.277272 c 0.221114,-0.217791 0.296222,-0.262557 0.350102,-0.208677 0.05388,0.05388 -0.0065,0.144376 -0.281507,0.421838 l -0.350101,0.353242 0,0.384349 0,0.384348 0.267765,-0.154109 c 0.409363,-0.235605 0.447688,-0.285613 0.552115,-0.720437 0.120677,-0.502484 0.146439,-0.553821 0.246804,-0.491792 0.06649,0.0411 0.06353,0.102103 -0.01924,0.397104 -0.05379,0.191703 -0.08873,0.357617 -0.07765,0.368696 0.01108,0.01108 0.175428,-0.06737 0.36522,-0.174321 l 0.345073,-0.194465 0.158077,-0.648128 c 0.12853,-0.526994 0.176977,-0.648128 0.259205,-0.648128 0.05562,0 0.100621,0.0063 0.1,0.0141 -6.19e-4,0.0078 -0.06277,0.254235 -0.138115,0.54774 -0.07534,0.293506 -0.129067,0.541567 -0.119385,0.551249 0.0097,0.0097 0.199961,-0.08753 0.422843,-0.216035 0.222882,-0.128501 0.411628,-0.224361 0.419434,-0.21302 0.218099,0.316858 0.218506,0.324443 0.02367,0.443009 -0.10149,0.06175 -0.292336,0.169514 -0.424105,0.239456 -0.131769,0.06994 -0.239581,0.142347 -0.239581,0.160902 0,0.01856 0.2727,0.105019 0.605997,0.192142 0.333298,0.08713 0.612934,0.163483 0.621416,0.169686 0.0085,0.0062 5.06e-4,0.05007 -0.01766,0.09749 -0.0285,0.07426 -0.134313,0.0593 -0.763433,-0.107892 l -0.730355,-0.194102 -0.337138,0.185343 c -0.185428,0.10194 -0.337141,0.203037 -0.337141,0.224662 0,0.02163 0.142085,0.07112 0.315746,0.109977 0.282428,0.06321 0.428166,0.170622 0.344712,0.254076 -0.01646,0.01646 -0.237491,-0.02608 -0.491178,-0.09453 l -0.461248,-0.124459 -0.234526,0.129535 c -0.481578,0.26599 -0.477134,0.24446 -0.09802,0.474759 l 0.340997,0.207145 0.503409,-0.137584 c 0.484657,-0.132459 0.504441,-0.133643 0.531083,-0.03177 0.01524,0.05827 -0.0016,0.106165 -0.03751,0.106586 -0.03585,4.23e-4 -0.217389,0.04634 -0.403417,0.102051 l -0.33823,0.101284 0.370676,0.207347 0.370677,0.207346 0.655092,-0.188789 c 0.557417,-0.160642 0.659943,-0.176153 0.68762,-0.104029 0.01789,0.04662 0.02559,0.09071 0.01711,0.09799 -0.0085,0.0073 -0.256408,0.08196 -0.550951,0.165979 -0.294542,0.08402 -0.543452,0.160568 -0.553134,0.170122 -0.0097,0.0096 0.174522,0.123423 0.40934,0.253046 l 0.426942,0.235676 -0.09736,0.164811 c -0.05354,0.09065 -0.123595,0.163852 -0.155665,0.162678 -0.03207,-0.0012 -0.223199,-0.100657 -0.424726,-0.221078 -0.201529,-0.12042 -0.374501,-0.196675 -0.384381,-0.169455 -0.0099,0.02722 0.04719,0.288677 0.126836,0.581014 0.168069,0.616928 0.172009,0.657226 0.06424,0.657226 -0.07668,0 -0.150388,-0.19915 -0.312962,-0.845574 -0.14669,-0.583279 -0.164349,-0.611261 -0.515763,-0.817219 -0.185313,-0.108609 -0.345852,-0.197472 -0.356749,-0.197472 -0.0109,0 0.0174,0.142503 0.06288,0.316672 0.08159,0.312454 0.07192,0.472532 -0.02856,0.472532 -0.0283,0 -0.08118,-0.120495 -0.117508,-0.267766 -0.172214,-0.698034 -0.156805,-0.670757 -0.482855,-0.854768 -0.169584,-0.09571 -0.321405,-0.174015 -0.337376,-0.174015 -0.01597,0 -0.02904,0.188678 -0.02904,0.419283 l 0,0.419283 0.363622,0.325233 c 0.279227,0.24975 0.349447,0.342312 0.302554,0.398815 -0.04821,0.0581 -0.121794,0.01707 -0.349527,-0.194893 l -0.288463,-0.268473 -0.0169,0.390667 -0.0169,0.390666 0.494064,0.496363 c 0.390342,0.39216 0.479543,0.510887 0.424889,0.56554 -0.05465,0.05465 -0.157786,-0.01884 -0.491257,-0.350087 l -0.422081,-0.419265 0,0.491842 0,0.49184 -0.225487,0 -0.225487,0 0,-0.491929 z"
           id="path4661"
           inkscape:connector-curvature="0" />
      </g>
    </g>
  </g>
</svg>
